<svg xmlns="http://www.w3.org/2000/svg" xmlns:xlink="http://www.w3.org/1999/xlink" contentStyleType="text/css" height="621px" preserveAspectRatio="none" style="width:1098px;height:621px;background:#FFFFFF;" version="1.1" viewBox="0 0 1098 621" width="1098px" zoomAndPan="magnify"><defs/><g><!--entity LLM/Agent--><g id="elem_LLM/Agent"><rect fill="#F1F1F1" height="46.4883" rx="2.5" ry="2.5" style="stroke:#181818;stroke-width:0.5;" width="114" x="623.1" y="7"/><rect fill="#F1F1F1" height="10" style="stroke:#181818;stroke-width:0.5;" width="15" x="717.1" y="12"/><rect fill="#F1F1F1" height="2" style="stroke:#181818;stroke-width:0.5;" width="4" x="715.1" y="14"/><rect fill="#F1F1F1" height="2" style="stroke:#181818;stroke-width:0.5;" width="4" x="715.1" y="18"/><text fill="#000000" font-family="sans-serif" font-size="14" lengthAdjust="spacing" textLength="74" x="638.1" y="40.5352">LLM/Agent</text></g><g id="elem_callTool"><ellipse cx="680.0967" cy="128.1809" fill="#F1F1F1" rx="49.7967" ry="14.6909" style="stroke:#181818;stroke-width:0.5;"/><text fill="#000000" font-family="sans-serif" font-size="14" lengthAdjust="spacing" textLength="54" x="650.654" y="132.0822">callTool</text></g><g id="elem_analyzeProject"><ellipse cx="379.1029" cy="222.0286" fill="#F1F1F1" rx="72.1429" ry="16.8286" style="stroke:#181818;stroke-width:0.5;"/><text fill="#000000" font-family="sans-serif" font-size="14" lengthAdjust="spacing" textLength="99" x="328.9129" y="225.5054">analyzeProject</text></g><g id="elem_getChunk"><ellipse cx="978.0982" cy="222.0289" fill="#F1F1F1" rx="59.3882" ry="14.7689" style="stroke:#181818;stroke-width:0.5;"/><text fill="#000000" font-family="sans-serif" font-size="14" lengthAdjust="spacing" textLength="67" x="941.5982" y="226.0465">getChunk</text></g><g id="elem_listFunctionsInFile"><ellipse cx="781.0982" cy="222.0336" fill="#F1F1F1" rx="82.5182" ry="18.9036" style="stroke:#181818;stroke-width:0.5;"/><text fill="#000000" font-family="sans-serif" font-size="14" lengthAdjust="spacing" textLength="124" x="719.0982" y="225.3247">listFunctionsInFile</text></g><g id="elem_getFunctionChunk"><ellipse cx="580.1047" cy="222.0309" fill="#F1F1F1" rx="83.8047" ry="19.1609" style="stroke:#181818;stroke-width:0.5;"/><text fill="#000000" font-family="sans-serif" font-size="14" lengthAdjust="spacing" textLength="127" x="516.6047" y="225.322">getFunctionChunk</text></g><g id="elem_getSwiftFiles"><ellipse cx="379.0983" cy="321.2197" fill="#F1F1F1" rx="67.2483" ry="15.8497" style="stroke:#181818;stroke-width:0.5;"/><text fill="#000000" font-family="sans-serif" font-size="14" lengthAdjust="spacing" textLength="86" x="333.0983" y="325.2372">getSwiftFiles</text></g><g id="elem_parseFile"><ellipse cx="699.0966" cy="416.2716" fill="#F1F1F1" rx="55.6966" ry="14.7416" style="stroke:#181818;stroke-width:0.5;"/><text fill="#000000" font-family="sans-serif" font-size="14" lengthAdjust="spacing" textLength="62" x="665.0966" y="420.2892">parseFile</text></g><g id="elem_getFunctionContent"><ellipse cx="569.1034" cy="321.2187" fill="#F1F1F1" rx="88.1434" ry="20.0287" style="stroke:#181818;stroke-width:0.5;"/><text fill="#000000" font-family="sans-serif" font-size="14" lengthAdjust="spacing" textLength="137" x="500.6034" y="324.5097">getFunctionContent</text></g><g id="elem_saveChunk"><ellipse cx="143.1025" cy="321.2165" fill="#F1F1F1" rx="63.4325" ry="15.0865" style="stroke:#181818;stroke-width:0.5;"/><text fill="#000000" font-family="sans-serif" font-size="14" lengthAdjust="spacing" textLength="75" x="102.6025" y="325.2341">saveChunk</text></g><g id="elem_loadChunk"><ellipse cx="1029.1025" cy="508.5965" fill="#F1F1F1" rx="63.4325" ry="15.0865" style="stroke:#181818;stroke-width:0.5;"/><text fill="#000000" font-family="sans-serif" font-size="14" lengthAdjust="spacing" textLength="75" x="988.6025" y="512.6141">loadChunk</text></g><g id="elem_execPromise"><ellipse cx="679.0972" cy="508.6014" fill="#F1F1F1" rx="67.6072" ry="15.9214" style="stroke:#181818;stroke-width:0.5;"/><text fill="#000000" font-family="sans-serif" font-size="14" lengthAdjust="spacing" textLength="87" x="632.5972" y="512.619">execPromise</text></g><g id="elem_getLineNumber"><ellipse cx="856.1039" cy="508.6028" fill="#F1F1F1" rx="74.5639" ry="17.3128" style="stroke:#181818;stroke-width:0.5;"/><text fill="#000000" font-family="sans-serif" font-size="14" lengthAdjust="spacing" textLength="105" x="803.6039" y="511.8938">getLineNumber</text></g><g id="elem_fs.readFile"><ellipse cx="856.1008" cy="600.7422" fill="#F1F1F1" rx="62.1108" ry="14.8222" style="stroke:#181818;stroke-width:0.5;"/><text fill="#000000" font-family="sans-serif" font-size="14" lengthAdjust="spacing" textLength="71" x="817.6008" y="604.7597">fs.readFile</text></g><g id="elem_fs.mkdir"><ellipse cx="218.0974" cy="416.2736" fill="#F1F1F1" rx="51.2674" ry="14.7036" style="stroke:#181818;stroke-width:0.5;"/><text fill="#000000" font-family="sans-serif" font-size="14" lengthAdjust="spacing" textLength="56" x="187.1193" y="420.2867">fs.mkdir</text></g><g id="elem_fs.writeFile"><ellipse cx="69.0986" cy="416.2697" fill="#F1F1F1" rx="63.0986" ry="15.0197" style="stroke:#181818;stroke-width:0.5;"/><text fill="#000000" font-family="sans-serif" font-size="14" lengthAdjust="spacing" textLength="74" x="29.0986" y="420.2873">fs.writeFile</text></g><!--link LLM/Agent to callTool--><g id="link_LLM/Agent_callTool"><path d="M680.1,53.98 C680.1,72.38 680.1,91.69 680.1,107.22 " fill="none" id="LLM/Agent-to-callTool" style="stroke:#181818;stroke-width:1.0;"/><polygon fill="#181818" points="680.1,113.22,684.1,104.22,680.1,108.22,676.1,104.22,680.1,113.22" style="stroke:#181818;stroke-width:1.0;"/></g><!--link callTool to analyzeProject--><g id="link_callTool_analyzeProject"><path d="M646.45,139.45 C591.37,156.26 487.8287,187.8486 427.4387,206.2786 " fill="none" id="callTool-to-analyzeProject" style="stroke:#181818;stroke-width:1.0;"/><polygon fill="#181818" points="421.7,208.03,431.4756,209.2288,426.4823,206.5705,429.1405,201.5772,421.7,208.03" style="stroke:#181818;stroke-width:1.0;"/></g><!--link callTool to getChunk--><g id="link_callTool_getChunk"><path d="M713.42,139.45 C769.91,156.86 878.3064,190.272 936.4864,208.212 " fill="none" id="callTool-to-getChunk" style="stroke:#181818;stroke-width:1.0;"/><polygon fill="#181818" points="942.22,209.98,934.7982,203.5056,937.442,208.5067,932.4409,211.1504,942.22,209.98" style="stroke:#181818;stroke-width:1.0;"/></g><!--link callTool to listFunctionsInFile--><g id="link_callTool_listFunctionsInFile"><path d="M694.57,142.34 C712.24,158.41 737.7608,181.6235 757.3808,199.4635 " fill="none" id="callTool-to-listFunctionsInFile" style="stroke:#181818;stroke-width:1.0;"/><polygon fill="#181818" points="761.82,203.5,757.8521,194.4858,758.1206,200.1363,752.4702,200.4048,761.82,203.5" style="stroke:#181818;stroke-width:1.0;"/></g><!--link callTool to getFunctionChunk--><g id="link_callTool_getFunctionChunk"><path d="M665.77,142.34 C648.38,158.31 623.3996,181.262 603.9696,199.102 " fill="none" id="callTool-to-getFunctionChunk" style="stroke:#181818;stroke-width:1.0;"/><polygon fill="#181818" points="599.55,203.16,608.8847,200.0195,603.233,199.7784,603.4741,194.1267,599.55,203.16" style="stroke:#181818;stroke-width:1.0;"/></g><!--link analyzeProject to getSwiftFiles--><g id="link_analyzeProject_getSwiftFiles"><path d="M379.1,239.08 C379.1,257.41 379.1,281.18 379.1,299.11 " fill="none" id="analyzeProject-to-getSwiftFiles" style="stroke:#181818;stroke-width:1.0;"/><polygon fill="#181818" points="379.1,305.11,383.1,296.11,379.1,300.11,375.1,296.11,379.1,305.11" style="stroke:#181818;stroke-width:1.0;"/></g><!--link analyzeProject to parseFile--><g id="link_analyzeProject_parseFile"><path d="M354.23,238.29 C319.72,261.32 264.72,306.01 294.1,341.25 C338.04,393.95 537.8856,408.9797 638.0656,413.3297 " fill="none" id="analyzeProject-to-parseFile" style="stroke:#181818;stroke-width:1.0;"/><polygon fill="#181818" points="644.06,413.59,635.242,409.2033,639.0647,413.3731,634.8949,417.1958,644.06,413.59" style="stroke:#181818;stroke-width:1.0;"/></g><!--link analyzeProject to getFunctionContent--><g id="link_analyzeProject_getFunctionContent"><path d="M407.96,237.79 C441.9,255.16 492.879,281.2262 529.139,299.7862 " fill="none" id="analyzeProject-to-getFunctionContent" style="stroke:#181818;stroke-width:1.0;"/><polygon fill="#181818" points="534.48,302.52,528.2911,294.8586,530.0292,300.2418,524.646,301.9799,534.48,302.52" style="stroke:#181818;stroke-width:1.0;"/></g><!--link analyzeProject to saveChunk--><g id="link_analyzeProject_saveChunk"><path d="M344.53,237.27 C298.44,256.25 223.1279,287.2652 179.1779,305.3652 " fill="none" id="analyzeProject-to-saveChunk" style="stroke:#181818;stroke-width:1.0;"/><polygon fill="#181818" points="173.63,307.65,183.4751,307.9214,178.2533,305.746,180.4287,300.5242,173.63,307.65" style="stroke:#181818;stroke-width:1.0;"/></g><!--link getChunk to loadChunk--><g id="link_getChunk_loadChunk"><path d="M980.63,237.14 C989.29,285.48 1016.6625,438.1839 1025.4325,487.1639 " fill="none" id="getChunk-to-loadChunk" style="stroke:#181818;stroke-width:1.0;"/><polygon fill="#181818" points="1026.49,493.07,1028.8411,483.5059,1025.6088,488.1483,1020.9664,484.9159,1026.49,493.07" style="stroke:#181818;stroke-width:1.0;"/></g><!--link listFunctionsInFile to parseFile--><g id="link_listFunctionsInFile_parseFile"><path d="M774.79,241.28 C766.55,264.7 751.37,306.46 736.1,341.25 C726.74,362.56 717.2135,381.2353 709.4235,395.9753 " fill="none" id="listFunctionsInFile-to-parseFile" style="stroke:#181818;stroke-width:1.0;"/><polygon fill="#181818" points="706.62,401.28,714.3618,395.1919,708.9563,396.8594,707.2888,391.4539,706.62,401.28" style="stroke:#181818;stroke-width:1.0;"/></g><!--link getFunctionChunk to parseFile--><g id="link_getFunctionChunk_parseFile"><path d="M610.49,240.3 C631.87,254.05 659.38,275.26 675.1,301.19 C694.5,333.21 698.2254,372.5325 698.8854,395.2025 " fill="none" id="getFunctionChunk-to-parseFile" style="stroke:#181818;stroke-width:1.0;"/><polygon fill="#181818" points="699.06,401.2,702.7964,392.0874,698.9145,396.2021,694.7998,392.3202,699.06,401.2" style="stroke:#181818;stroke-width:1.0;"/></g><!--link getFunctionChunk to getFunctionContent--><g id="link_getFunctionChunk_getFunctionContent"><path d="M578.03,241.31 C576.1,258.36 573.9039,277.728 571.9439,295.068 " fill="none" id="getFunctionChunk-to-getFunctionContent" style="stroke:#181818;stroke-width:1.0;"/><polygon fill="#181818" points="571.27,301.03,576.2556,292.5362,571.8316,296.0616,568.3062,291.6377,571.27,301.03" style="stroke:#181818;stroke-width:1.0;"/></g><!--link parseFile to execPromise--><g id="link_parseFile_execPromise"><path d="M695.97,431.38 C692.3,447.96 687.5361,469.4817 683.7661,486.5217 " fill="none" id="parseFile-to-execPromise" style="stroke:#181818;stroke-width:1.0;"/><polygon fill="#181818" points="682.47,492.38,688.3197,484.4566,683.5501,487.4981,680.5086,482.7284,682.47,492.38" style="stroke:#181818;stroke-width:1.0;"/></g><!--link parseFile to getLineNumber--><g id="link_parseFile_getLineNumber"><path d="M721.59,430.21 C750,446.56 793.6095,471.6475 823.9695,489.1175 " fill="none" id="parseFile-to-getLineNumber" style="stroke:#181818;stroke-width:1.0;"/><polygon fill="#181818" points="829.17,492.11,823.3643,484.1543,824.8363,489.6162,819.3743,491.0882,829.17,492.11" style="stroke:#181818;stroke-width:1.0;"/></g><!--link getLineNumber to fs.readFile--><g id="link_getLineNumber_fs.readFile"><path d="M856.1,526.14 C856.1,543.21 856.1,563.57 856.1,579.68 " fill="none" id="getLineNumber-to-fs.readFile" style="stroke:#181818;stroke-width:1.0;"/><polygon fill="#181818" points="856.1,585.68,860.1,576.68,856.1,580.68,852.1,576.68,856.1,585.68" style="stroke:#181818;stroke-width:1.0;"/></g><!--link getFunctionContent to fs.readFile--><g id="link_getFunctionContent_fs.readFile"><path d="M565.13,341.51 C558.18,381.21 548.51,472.78 594.1,525.92 C621.37,557.7 730.5598,579.8849 798.7998,591.1249 " fill="none" id="getFunctionContent-to-fs.readFile" style="stroke:#181818;stroke-width:1.0;"/><polygon fill="#181818" points="804.72,592.1,796.4897,586.6905,799.7865,591.2874,795.1896,594.5841,804.72,592.1" style="stroke:#181818;stroke-width:1.0;"/></g><!--link getFunctionContent to parseFile--><g id="link_getFunctionContent_parseFile"><path d="M595.09,340.83 C620.43,358.97 653.4508,382.598 675.8208,398.608 " fill="none" id="getFunctionContent-to-parseFile" style="stroke:#181818;stroke-width:1.0;"/><polygon fill="#181818" points="680.7,402.1,675.7092,393.6093,676.634,399.19,671.0533,400.1148,680.7,402.1" style="stroke:#181818;stroke-width:1.0;"/></g><!--link saveChunk to fs.mkdir--><g id="link_saveChunk_fs.mkdir"><path d="M154.49,336.35 C168.75,354.05 189.2436,379.4794 203.3236,396.9394 " fill="none" id="saveChunk-to-fs.mkdir" style="stroke:#181818;stroke-width:1.0;"/><polygon fill="#181818" points="207.09,401.61,204.5541,392.0932,203.9513,397.7179,198.3267,397.1151,207.09,401.61" style="stroke:#181818;stroke-width:1.0;"/></g><!--link saveChunk to fs.writeFile--><g id="link_saveChunk_fs.writeFile"><path d="M131.86,336.35 C117.95,353.84 98.1351,378.7644 84.1751,396.3144 " fill="none" id="saveChunk-to-fs.writeFile" style="stroke:#181818;stroke-width:1.0;"/><polygon fill="#181818" points="80.44,401.01,89.1731,396.4566,83.5526,397.097,82.9122,391.4765,80.44,401.01" style="stroke:#181818;stroke-width:1.0;"/></g><!--link loadChunk to fs.readFile--><g id="link_loadChunk_fs.readFile"><path d="M1003.94,522.71 C971.05,539.85 919.0913,566.9181 886.3213,583.9881 " fill="none" id="loadChunk-to-fs.readFile" style="stroke:#181818;stroke-width:1.0;"/><polygon fill="#181818" points="881,586.76,890.8299,586.1497,885.4344,584.4501,887.1341,579.0546,881,586.76" style="stroke:#181818;stroke-width:1.0;"/></g><!--SRC=[TP313i8W44JlV4MFzb3z0nDZqiIa6XEz6G_ORYjAmG2rwjTBKwIrm8qmRsTdzfHbsyMg0gREKP8iercEAJroJcE4XdSlOORf-mDxmM-GgzZHAr3hQyFkhaA9L6d3SaKuankM4WhUyHzZRD1qfGKFBIbLPoFZ0FJ0Ge9P57AnwpXJ-W8XKk8ds4Isf6d6SM4rNqqd3NABkea3Y2yp6Wts5BmWrmrg8ZkhgQezCi9WrzGN42REwAE7IZaNW0jVOhFNmuMnl_h3EQr7VI-8pkAJMa6K7HskxLd_1G00]--></g></svg>