<svg xmlns="http://www.w3.org/2000/svg" xmlns:xlink="http://www.w3.org/1999/xlink" contentStyleType="text/css" height="531px" preserveAspectRatio="none" style="width:893px;height:531px;background:#FFFFFF;" version="1.1" viewBox="0 0 893 531" width="893px" zoomAndPan="magnify"><defs/><g><!--entity LLM/Agent--><g id="elem_LLM/Agent"><rect fill="#F1F1F1" height="46.4883" rx="2.5" ry="2.5" style="stroke:#181818;stroke-width:0.5;" width="114" x="482.25" y="7"/><rect fill="#F1F1F1" height="10" style="stroke:#181818;stroke-width:0.5;" width="15" x="576.25" y="12"/><rect fill="#F1F1F1" height="2" style="stroke:#181818;stroke-width:0.5;" width="4" x="574.25" y="14"/><rect fill="#F1F1F1" height="2" style="stroke:#181818;stroke-width:0.5;" width="4" x="574.25" y="18"/><text fill="#000000" font-family="sans-serif" font-size="14" lengthAdjust="spacing" textLength="74" x="497.25" y="40.5352">LLM/Agent</text></g><g id="elem_callTool"><ellipse cx="539.2467" cy="128.1809" fill="#F1F1F1" rx="49.7967" ry="14.6909" style="stroke:#181818;stroke-width:0.5;"/><text fill="#000000" font-family="sans-serif" font-size="14" lengthAdjust="spacing" textLength="54" x="509.804" y="132.0822">callTool</text></g><g id="elem_analyzeProject"><ellipse cx="248.2529" cy="222.0286" fill="#F1F1F1" rx="72.1429" ry="16.8286" style="stroke:#181818;stroke-width:0.5;"/><text fill="#000000" font-family="sans-serif" font-size="14" lengthAdjust="spacing" textLength="99" x="198.0629" y="225.5054">analyzeProject</text></g><g id="elem_getChunk"><ellipse cx="819.2482" cy="222.0289" fill="#F1F1F1" rx="59.3882" ry="14.7689" style="stroke:#181818;stroke-width:0.5;"/><text fill="#000000" font-family="sans-serif" font-size="14" lengthAdjust="spacing" textLength="67" x="782.7482" y="226.0465">getChunk</text></g><g id="elem_listFunctionsInFile"><ellipse cx="439.2482" cy="222.0336" fill="#F1F1F1" rx="82.5182" ry="18.9036" style="stroke:#181818;stroke-width:0.5;"/><text fill="#000000" font-family="sans-serif" font-size="14" lengthAdjust="spacing" textLength="124" x="377.2482" y="225.3247">listFunctionsInFile</text></g><g id="elem_getFunctionChunk"><ellipse cx="640.2547" cy="222.0309" fill="#F1F1F1" rx="83.8047" ry="19.1609" style="stroke:#181818;stroke-width:0.5;"/><text fill="#000000" font-family="sans-serif" font-size="14" lengthAdjust="spacing" textLength="127" x="576.7547" y="225.322">getFunctionChunk</text></g><g id="elem_getSwiftFiles"><ellipse cx="73.2483" cy="321.2197" fill="#F1F1F1" rx="67.2483" ry="15.8497" style="stroke:#181818;stroke-width:0.5;"/><text fill="#000000" font-family="sans-serif" font-size="14" lengthAdjust="spacing" textLength="86" x="27.2483" y="325.2372">getSwiftFiles</text></g><g id="elem_parseFile"><ellipse cx="439.2466" cy="321.2216" fill="#F1F1F1" rx="55.6966" ry="14.7416" style="stroke:#181818;stroke-width:0.5;"/><text fill="#000000" font-family="sans-serif" font-size="14" lengthAdjust="spacing" textLength="62" x="405.2466" y="325.2392">parseFile</text></g><g id="elem_saveChunk"><ellipse cx="239.2525" cy="321.2165" fill="#F1F1F1" rx="63.4325" ry="15.0865" style="stroke:#181818;stroke-width:0.5;"/><text fill="#000000" font-family="sans-serif" font-size="14" lengthAdjust="spacing" textLength="75" x="198.7525" y="325.2341">saveChunk</text></g><g id="elem_loadChunk"><ellipse cx="824.2525" cy="418.5565" fill="#F1F1F1" rx="63.4325" ry="15.0865" style="stroke:#181818;stroke-width:0.5;"/><text fill="#000000" font-family="sans-serif" font-size="14" lengthAdjust="spacing" textLength="75" x="783.7525" y="422.5741">loadChunk</text></g><g id="elem_getFunctionContent"><ellipse cx="662.2534" cy="321.2187" fill="#F1F1F1" rx="88.1434" ry="20.0287" style="stroke:#181818;stroke-width:0.5;"/><text fill="#000000" font-family="sans-serif" font-size="14" lengthAdjust="spacing" textLength="137" x="593.7534" y="324.5097">getFunctionContent</text></g><g id="elem_execPromise"><ellipse cx="403.2472" cy="418.5614" fill="#F1F1F1" rx="67.6072" ry="15.9214" style="stroke:#181818;stroke-width:0.5;"/><text fill="#000000" font-family="sans-serif" font-size="14" lengthAdjust="spacing" textLength="87" x="356.7472" y="422.579">execPromise</text></g><g id="elem_getLineNumber"><ellipse cx="580.2539" cy="418.5628" fill="#F1F1F1" rx="74.5639" ry="17.3128" style="stroke:#181818;stroke-width:0.5;"/><text fill="#000000" font-family="sans-serif" font-size="14" lengthAdjust="spacing" textLength="105" x="527.7539" y="421.8538">getLineNumber</text></g><g id="elem_fs.readFile"><ellipse cx="708.2508" cy="510.7022" fill="#F1F1F1" rx="62.1108" ry="14.8222" style="stroke:#181818;stroke-width:0.5;"/><text fill="#000000" font-family="sans-serif" font-size="14" lengthAdjust="spacing" textLength="71" x="669.7508" y="514.7197">fs.readFile</text></g><g id="elem_fs.mkdir"><ellipse cx="88.2474" cy="418.5636" fill="#F1F1F1" rx="51.2674" ry="14.7036" style="stroke:#181818;stroke-width:0.5;"/><text fill="#000000" font-family="sans-serif" font-size="14" lengthAdjust="spacing" textLength="56" x="57.2693" y="422.5767">fs.mkdir</text></g><g id="elem_fs.writeFile"><ellipse cx="237.2486" cy="418.5597" fill="#F1F1F1" rx="63.0986" ry="15.0197" style="stroke:#181818;stroke-width:0.5;"/><text fill="#000000" font-family="sans-serif" font-size="14" lengthAdjust="spacing" textLength="74" x="197.2486" y="422.5773">fs.writeFile</text></g><!--link LLM/Agent to callTool--><g id="link_LLM/Agent_callTool"><path d="M539.25,53.98 C539.25,72.38 539.25,91.69 539.25,107.22 " fill="none" id="LLM/Agent-to-callTool" style="stroke:#181818;stroke-width:1.0;"/><polygon fill="#181818" points="539.25,113.22,543.25,104.22,539.25,108.22,535.25,104.22,539.25,113.22" style="stroke:#181818;stroke-width:1.0;"/></g><!--link callTool to analyzeProject--><g id="link_callTool_analyzeProject"><path d="M506.43,139.54 C453.22,156.33 353.9115,187.6732 295.5515,206.1032 " fill="none" id="callTool-to-analyzeProject" style="stroke:#181818;stroke-width:1.0;"/><polygon fill="#181818" points="289.83,207.91,299.6168,209.0141,294.5979,206.4043,297.2077,201.3854,289.83,207.91" style="stroke:#181818;stroke-width:1.0;"/></g><!--link callTool to getChunk--><g id="link_callTool_getChunk"><path d="M571.37,139.72 C624.37,157.1 724.0287,189.8005 778.7387,207.7405 " fill="none" id="callTool-to-getChunk" style="stroke:#181818;stroke-width:1.0;"/><polygon fill="#181818" points="784.44,209.61,777.1344,203.0048,779.6889,208.0521,774.6417,210.6066,784.44,209.61" style="stroke:#181818;stroke-width:1.0;"/></g><!--link callTool to listFunctionsInFile--><g id="link_callTool_listFunctionsInFile"><path d="M524.92,142.34 C507.42,158.41 482.1797,181.6021 462.7597,199.4321 " fill="none" id="callTool-to-listFunctionsInFile" style="stroke:#181818;stroke-width:1.0;"/><polygon fill="#181818" points="458.34,203.49,467.6748,200.3497,462.0231,200.1085,462.2643,194.4567,458.34,203.49" style="stroke:#181818;stroke-width:1.0;"/></g><!--link callTool to getFunctionChunk--><g id="link_callTool_getFunctionChunk"><path d="M553.72,142.34 C571.28,158.31 596.5408,181.2835 616.1608,199.1235 " fill="none" id="callTool-to-getFunctionChunk" style="stroke:#181818;stroke-width:1.0;"/><polygon fill="#181818" points="620.6,203.16,616.6321,194.1458,616.9006,199.7963,611.2502,200.0648,620.6,203.16" style="stroke:#181818;stroke-width:1.0;"/></g><!--link analyzeProject to getSwiftFiles--><g id="link_analyzeProject_getSwiftFiles"><path d="M221.29,238 C187.83,256.59 136.4456,285.1274 103.7756,303.2674 " fill="none" id="analyzeProject-to-getSwiftFiles" style="stroke:#181818;stroke-width:1.0;"/><polygon fill="#181818" points="98.53,306.18,108.3402,305.3081,102.9014,303.7528,104.4567,298.314,98.53,306.18" style="stroke:#181818;stroke-width:1.0;"/></g><!--link analyzeProject to parseFile--><g id="link_analyzeProject_parseFile"><path d="M277.26,237.79 C314.72,256.86 373.943,286.9879 409.183,304.9279 " fill="none" id="analyzeProject-to-parseFile" style="stroke:#181818;stroke-width:1.0;"/><polygon fill="#181818" points="414.53,307.65,408.3242,300.0023,410.0742,305.3816,404.6948,307.1316,414.53,307.65" style="stroke:#181818;stroke-width:1.0;"/></g><!--link analyzeProject to saveChunk--><g id="link_analyzeProject_saveChunk"><path d="M246.76,239.08 C245.04,257.63 242.792,281.9054 241.142,299.7654 " fill="none" id="analyzeProject-to-saveChunk" style="stroke:#181818;stroke-width:1.0;"/><polygon fill="#181818" points="240.59,305.74,245.401,297.1461,241.05,300.7612,237.4349,296.4102,240.59,305.74" style="stroke:#181818;stroke-width:1.0;"/></g><!--link getChunk to loadChunk--><g id="link_getChunk_loadChunk"><path d="M819.61,237.02 C820.53,272.74 822.7957,361.032 823.7257,397.172 " fill="none" id="getChunk-to-loadChunk" style="stroke:#181818;stroke-width:1.0;"/><polygon fill="#181818" points="823.88,403.17,827.6472,394.0701,823.7514,398.1717,819.6498,394.2759,823.88,403.17" style="stroke:#181818;stroke-width:1.0;"/></g><!--link listFunctionsInFile to parseFile--><g id="link_listFunctionsInFile_parseFile"><path d="M439.25,241.31 C439.25,260.12 439.25,283.01 439.25,300.12 " fill="none" id="listFunctionsInFile-to-parseFile" style="stroke:#181818;stroke-width:1.0;"/><polygon fill="#181818" points="439.25,306.12,443.25,297.12,439.25,301.12,435.25,297.12,439.25,306.12" style="stroke:#181818;stroke-width:1.0;"/></g><!--link getFunctionChunk to parseFile--><g id="link_getFunctionChunk_parseFile"><path d="M605.7,239.74 C565.74,259.06 506.2714,287.8075 470.4614,305.1275 " fill="none" id="getFunctionChunk-to-parseFile" style="stroke:#181818;stroke-width:1.0;"/><polygon fill="#181818" points="465.06,307.74,474.9037,307.4222,469.5612,305.563,471.4205,300.2204,465.06,307.74" style="stroke:#181818;stroke-width:1.0;"/></g><!--link getFunctionChunk to getFunctionContent--><g id="link_getFunctionChunk_getFunctionContent"><path d="M644.39,241.31 C648.24,258.36 652.657,277.8377 656.577,295.1777 " fill="none" id="getFunctionChunk-to-getFunctionContent" style="stroke:#181818;stroke-width:1.0;"/><polygon fill="#181818" points="657.9,301.03,659.817,291.3695,656.7975,296.1531,652.0139,293.1335,657.9,301.03" style="stroke:#181818;stroke-width:1.0;"/></g><!--link parseFile to execPromise--><g id="link_parseFile_execPromise"><path d="M433.94,336.29 C427.25,354 417.9193,378.7067 411.0593,396.8767 " fill="none" id="parseFile-to-execPromise" style="stroke:#181818;stroke-width:1.0;"/><polygon fill="#181818" points="408.94,402.49,415.8611,395.4829,410.7061,397.8123,408.3767,392.6573,408.94,402.49" style="stroke:#181818;stroke-width:1.0;"/></g><!--link parseFile to getLineNumber--><g id="link_parseFile_getLineNumber"><path d="M458.85,335.48 C484.58,352.87 524.7004,379.998 552.0904,398.528 " fill="none" id="parseFile-to-getLineNumber" style="stroke:#181818;stroke-width:1.0;"/><polygon fill="#181818" points="557.06,401.89,551.847,393.5339,552.9187,399.0883,547.3643,400.16,557.06,401.89" style="stroke:#181818;stroke-width:1.0;"/></g><!--link getLineNumber to fs.readFile--><g id="link_getLineNumber_fs.readFile"><path d="M602.84,435.47 C627.38,452.75 661.2641,476.6157 684.3141,492.8457 " fill="none" id="getLineNumber-to-fs.readFile" style="stroke:#181818;stroke-width:1.0;"/><polygon fill="#181818" points="689.22,496.3,684.1641,487.8479,685.1318,493.4214,679.5583,494.3891,689.22,496.3" style="stroke:#181818;stroke-width:1.0;"/></g><!--link getFunctionContent to fs.readFile--><g id="link_getFunctionContent_fs.readFile"><path d="M667,341.58 C676.27,379.37 695.1604,456.3728 703.3204,489.6328 " fill="none" id="getFunctionContent-to-fs.readFile" style="stroke:#181818;stroke-width:1.0;"/><polygon fill="#181818" points="704.75,495.46,706.4903,485.7661,703.5586,490.604,698.7207,487.6723,704.75,495.46" style="stroke:#181818;stroke-width:1.0;"/></g><!--link saveChunk to fs.mkdir--><g id="link_saveChunk_fs.mkdir"><path d="M217.61,335.88 C188.42,354.31 141.8727,383.6956 113.4727,401.6356 " fill="none" id="saveChunk-to-fs.mkdir" style="stroke:#181818;stroke-width:1.0;"/><polygon fill="#181818" points="108.4,404.84,118.1453,403.4152,112.6272,402.1697,113.8728,396.6517,108.4,404.84" style="stroke:#181818;stroke-width:1.0;"/></g><!--link saveChunk to fs.writeFile--><g id="link_saveChunk_fs.writeFile"><path d="M238.94,336.7 C238.57,354.73 238.0437,379.3213 237.6737,397.2613 " fill="none" id="saveChunk-to-fs.writeFile" style="stroke:#181818;stroke-width:1.0;"/><polygon fill="#181818" points="237.55,403.26,241.7347,394.3444,237.6531,398.2611,233.7364,394.1794,237.55,403.26" style="stroke:#181818;stroke-width:1.0;"/></g><!--link loadChunk to fs.readFile--><g id="link_loadChunk_fs.readFile"><path d="M806.38,433.45 C784.39,450.54 752.0481,475.6689 730.3081,492.5589 " fill="none" id="loadChunk-to-fs.readFile" style="stroke:#181818;stroke-width:1.0;"/><polygon fill="#181818" points="725.57,496.24,735.1312,493.8771,729.5184,493.1724,730.2231,487.5596,725.57,496.24" style="stroke:#181818;stroke-width:1.0;"/></g><!--SRC=[TP7H3e8W68NlUGelyy9wWxRMvjPchQtkMXU4lqOYDC2idZuTX4xmZd6-_vp3poNBzgjD2LnVeoHPHmk26JiBmMA4XhEHCCViyuMZ50yWElRq4lJstl3ALnXLEcquqLHmjUCfPH0S_pFM1aqZ7NXgQQ5x6nNFG4yi5PYW6KBX5xWWrzqM5ZXtMgXz8CJhxp5poFXQSDrzHkyt31eAta2w5zHKzLPJjVF8A8T3Kzz0sZgZ2mCLQYa1vw76DZV4eT6gd5vNEUroGb8hgNPR6JOPiFu1]--></g></svg>