<svg xmlns="http://www.w3.org/2000/svg" xmlns:xlink="http://www.w3.org/1999/xlink" contentStyleType="text/css" height="915px" preserveAspectRatio="none" style="width:697px;height:915px;background:#FFFFFF;" version="1.1" viewBox="0 0 697 915" width="697px" zoomAndPan="magnify"><defs/><g><!--class McpServer--><g id="elem_McpServer"><rect codeLine="2" fill="#F1F1F1" height="80.9766" id="McpServer" rx="2.5" ry="2.5" style="stroke:#181818;stroke-width:0.5;" width="149" x="274" y="7"/><ellipse cx="309.7" cy="23" fill="#ADD1B2" rx="11" ry="11" style="stroke:#181818;stroke-width:1.0;"/><path d="M312.1731,29.1431 Q311.5921,29.4419 310.9529,29.5913 Q310.3138,29.7407 309.6082,29.7407 Q307.1014,29.7407 305.7815,28.0889 Q304.4617,26.437 304.4617,23.3159 Q304.4617,20.1865 305.7815,18.5347 Q307.1014,16.8828 309.6082,16.8828 Q310.3138,16.8828 310.9612,17.0322 Q311.6087,17.1816 312.1731,17.4805 L312.1731,20.2031 Q311.5423,19.6221 310.9488,19.3523 Q310.3553,19.0825 309.7244,19.0825 Q308.3797,19.0825 307.6949,20.1492 Q307.0101,21.2158 307.0101,23.3159 Q307.0101,25.4077 307.6949,26.4744 Q308.3797,27.541 309.7244,27.541 Q310.3553,27.541 310.9488,27.2712 Q311.5423,27.0015 312.1731,26.4204 Z " fill="#000000"/><text fill="#000000" font-family="sans-serif" font-size="14" lengthAdjust="spacing" textLength="71" x="328.3" y="28.291">McpServer</text><line style="stroke:#181818;stroke-width:0.5;" x1="275" x2="422" y1="39" y2="39"/><line style="stroke:#181818;stroke-width:0.5;" x1="275" x2="422" y1="47" y2="47"/><ellipse cx="285" cy="60.7441" fill="#84BE84" rx="3" ry="3" style="stroke:#038048;stroke-width:1.0;"/><text fill="#000000" font-family="sans-serif" font-size="14" lengthAdjust="spacing" textLength="123" x="294" y="64.5352">createMcpServer()</text><ellipse cx="285" cy="77.2324" fill="#84BE84" rx="3" ry="3" style="stroke:#038048;stroke-width:1.0;"/><text fill="#000000" font-family="sans-serif" font-size="14" lengthAdjust="spacing" textLength="94" x="294" y="81.0234">registerTool()</text></g><!--class AnalysisService--><g id="elem_AnalysisService"><rect codeLine="7" fill="#F1F1F1" height="245.8594" id="AnalysisService" rx="2.5" ry="2.5" style="stroke:#181818;stroke-width:0.5;" width="683" x="7" y="164.98"/><ellipse cx="292.25" cy="180.98" fill="#ADD1B2" rx="11" ry="11" style="stroke:#181818;stroke-width:1.0;"/><path d="M294.7231,187.1231 Q294.1421,187.4219 293.5029,187.5713 Q292.8638,187.7207 292.1582,187.7207 Q289.6514,187.7207 288.3315,186.0689 Q287.0117,184.417 287.0117,181.2959 Q287.0117,178.1665 288.3315,176.5147 Q289.6514,174.8628 292.1582,174.8628 Q292.8638,174.8628 293.5112,175.0122 Q294.1587,175.1616 294.7231,175.4605 L294.7231,178.1831 Q294.0923,177.6021 293.4988,177.3323 Q292.9053,177.0625 292.2744,177.0625 Q290.9297,177.0625 290.2449,178.1292 Q289.5601,179.1958 289.5601,181.2959 Q289.5601,183.3877 290.2449,184.4544 Q290.9297,185.521 292.2744,185.521 Q292.9053,185.521 293.4988,185.2512 Q294.0923,184.9815 294.7231,184.4004 Z " fill="#000000"/><text fill="#000000" font-family="sans-serif" font-size="14" lengthAdjust="spacing" textLength="104" x="312.75" y="186.271">AnalysisService</text><line style="stroke:#181818;stroke-width:0.5;" x1="8" x2="689" y1="196.98" y2="196.98"/><rect fill="none" height="6" style="stroke:#C82930;stroke-width:1.0;" width="6" x="15" y="207.7241"/><text fill="#000000" font-family="sans-serif" font-size="14" lengthAdjust="spacing" textLength="159" x="27" y="214.5152">swiftParser: SwiftParser</text><rect fill="none" height="6" style="stroke:#C82930;stroke-width:1.0;" width="6" x="15" y="224.2124"/><text fill="#000000" font-family="sans-serif" font-size="14" lengthAdjust="spacing" textLength="299" x="27" y="231.0034">parsedProjects: Map&lt;string, CodeChunk[]&gt;</text><rect fill="none" height="6" style="stroke:#C82930;stroke-width:1.0;" width="6" x="15" y="240.7007"/><text fill="#000000" font-family="sans-serif" font-size="14" lengthAdjust="spacing" textLength="117" x="27" y="247.4917">chunksDir: string</text><line style="stroke:#181818;stroke-width:0.5;" x1="8" x2="689" y1="254.4448" y2="254.4448"/><ellipse cx="18" cy="268.189" fill="#84BE84" rx="3" ry="3" style="stroke:#038048;stroke-width:1.0;"/><text fill="#000000" font-family="sans-serif" font-size="14" lengthAdjust="spacing" textLength="206" x="27" y="271.98">constructor(chunksDir: string)</text><ellipse cx="18" cy="284.6773" fill="#84BE84" rx="3" ry="3" style="stroke:#038048;stroke-width:1.0;"/><text fill="#000000" font-family="sans-serif" font-size="14" lengthAdjust="spacing" textLength="349" x="27" y="288.4683">analyzeProject(projectPath: string): Promise&lt;void&gt;</text><ellipse cx="18" cy="301.1655" fill="#84BE84" rx="3" ry="3" style="stroke:#038048;stroke-width:1.0;"/><text fill="#000000" font-family="sans-serif" font-size="14" lengthAdjust="spacing" textLength="422" x="27" y="304.9566">getChunk(chunkId: string): Promise&lt;{ content: string } | null&gt;</text><ellipse cx="18" cy="317.6538" fill="#84BE84" rx="3" ry="3" style="stroke:#038048;stroke-width:1.0;"/><text fill="#000000" font-family="sans-serif" font-size="14" lengthAdjust="spacing" textLength="459" x="27" y="321.4448">listFunctionsInFile(filePath: string): Promise&lt;{ signature: string }[]&gt;</text><ellipse cx="18" cy="334.1421" fill="#84BE84" rx="3" ry="3" style="stroke:#038048;stroke-width:1.0;"/><text fill="#000000" font-family="sans-serif" font-size="14" lengthAdjust="spacing" textLength="657" x="27" y="337.9331">getFunctionChunk(filePath: string, functionSignature: string): Promise&lt;{ content: string } | null&gt;</text><rect fill="#F24D5C" height="6" style="stroke:#C82930;stroke-width:1.0;" width="6" x="15" y="347.6304"/><text fill="#000000" font-family="sans-serif" font-size="14" lengthAdjust="spacing" textLength="357" x="27" y="354.4214">getSwiftFiles(projectPath: string): Promise&lt;string[]&gt;</text><rect fill="#F24D5C" height="6" style="stroke:#C82930;stroke-width:1.0;" width="6" x="15" y="364.1187"/><text fill="#000000" font-family="sans-serif" font-size="14" lengthAdjust="spacing" textLength="330" x="27" y="370.9097">saveChunk(chunk: CodeChunk): Promise&lt;void&gt;</text><rect fill="#F24D5C" height="6" style="stroke:#C82930;stroke-width:1.0;" width="6" x="15" y="380.607"/><text fill="#000000" font-family="sans-serif" font-size="14" lengthAdjust="spacing" textLength="430" x="27" y="387.398">loadChunk(chunkId: string): Promise&lt;{ content: string } | null&gt;</text><rect fill="#F24D5C" height="6" style="stroke:#C82930;stroke-width:1.0;" width="6" x="15" y="397.0952"/><text fill="#000000" font-family="sans-serif" font-size="14" lengthAdjust="spacing" textLength="250" x="27" y="403.8863">toSafeFileName(name: string): string</text></g><!--class SwiftParser--><g id="elem_SwiftParser"><rect codeLine="22" fill="#F1F1F1" height="113.9531" id="SwiftParser" rx="2.5" ry="2.5" style="stroke:#181818;stroke-width:0.5;" width="615" x="41" y="487.84"/><ellipse cx="306.25" cy="503.84" fill="#ADD1B2" rx="11" ry="11" style="stroke:#181818;stroke-width:1.0;"/><path d="M308.7231,509.9831 Q308.1421,510.2819 307.5029,510.4313 Q306.8638,510.5807 306.1582,510.5807 Q303.6514,510.5807 302.3315,508.9289 Q301.0117,507.277 301.0117,504.1559 Q301.0117,501.0265 302.3315,499.3747 Q303.6514,497.7228 306.1582,497.7228 Q306.8638,497.7228 307.5112,497.8722 Q308.1587,498.0216 308.7231,498.3205 L308.7231,501.0431 Q308.0923,500.4621 307.4988,500.1923 Q306.9053,499.9225 306.2744,499.9225 Q304.9297,499.9225 304.2449,500.9892 Q303.5601,502.0558 303.5601,504.1559 Q303.5601,506.2477 304.2449,507.3144 Q304.9297,508.381 306.2744,508.381 Q306.9053,508.381 307.4988,508.1112 Q308.0923,507.8415 308.7231,507.2604 Z " fill="#000000"/><text fill="#000000" font-family="sans-serif" font-size="14" lengthAdjust="spacing" textLength="76" x="326.75" y="509.131">SwiftParser</text><line style="stroke:#181818;stroke-width:0.5;" x1="42" x2="655" y1="519.84" y2="519.84"/><line style="stroke:#181818;stroke-width:0.5;" x1="42" x2="655" y1="527.84" y2="527.84"/><ellipse cx="52" cy="541.5841" fill="#84BE84" rx="3" ry="3" style="stroke:#038048;stroke-width:1.0;"/><text fill="#000000" font-family="sans-serif" font-size="14" lengthAdjust="spacing" textLength="444" x="61" y="545.3752">constructor(execFn: ExecFunction, readFileFn: ReadFileFunction)</text><ellipse cx="52" cy="558.0724" fill="#84BE84" rx="3" ry="3" style="stroke:#038048;stroke-width:1.0;"/><text fill="#000000" font-family="sans-serif" font-size="14" lengthAdjust="spacing" textLength="347" x="61" y="561.8634">parseFile(filePath: string): Promise&lt;CodeChunk[]&gt;</text><ellipse cx="52" cy="574.5607" fill="#84BE84" rx="3" ry="3" style="stroke:#038048;stroke-width:1.0;"/><text fill="#000000" font-family="sans-serif" font-size="14" lengthAdjust="spacing" textLength="589" x="61" y="578.3517">getFunctionContent(filePath: string, functionSignature: string): Promise&lt;string | null&gt;</text><rect fill="#F24D5C" height="6" style="stroke:#C82930;stroke-width:1.0;" width="6" x="49" y="588.049"/><text fill="#000000" font-family="sans-serif" font-size="14" lengthAdjust="spacing" textLength="462" x="61" y="594.84">getLineNumber(filePath: string, offset: number): Promise&lt;number&gt;</text></g><!--class CodeChunk--><g id="elem_CodeChunk"><rect codeLine="29" fill="#F1F1F1" height="229.3711" id="CodeChunk" rx="2.5" ry="2.5" style="stroke:#181818;stroke-width:0.5;" width="155" x="271" y="678.79"/><ellipse cx="304.9" cy="694.79" fill="#B4A7E5" rx="11" ry="11" style="stroke:#181818;stroke-width:1.0;"/><path d="M301.3277,691.0551 L301.3277,688.8969 L308.7071,688.8969 L308.7071,691.0551 L306.2418,691.0551 L306.2418,699.1318 L308.7071,699.1318 L308.7071,701.29 L301.3277,701.29 L301.3277,699.1318 L303.7931,699.1318 L303.7931,691.0551 Z " fill="#000000"/><text fill="#000000" font-family="sans-serif" font-size="14" font-style="italic" lengthAdjust="spacing" textLength="81" x="323.1" y="700.081">CodeChunk</text><line style="stroke:#181818;stroke-width:0.5;" x1="272" x2="425" y1="710.79" y2="710.79"/><text fill="#000000" font-family="sans-serif" font-size="14" lengthAdjust="spacing" textLength="86" x="277" y="728.3252">name: string</text><text fill="#000000" font-family="sans-serif" font-size="14" lengthAdjust="spacing" textLength="77" x="277" y="744.8134">type: string</text><text fill="#000000" font-family="sans-serif" font-size="14" lengthAdjust="spacing" textLength="113" x="277" y="761.3017">signature: string</text><text fill="#000000" font-family="sans-serif" font-size="14" lengthAdjust="spacing" textLength="61" x="277" y="777.79">id: string</text><text fill="#000000" font-family="sans-serif" font-size="14" lengthAdjust="spacing" textLength="100" x="277" y="794.2783">content: string</text><text fill="#000000" font-family="sans-serif" font-size="14" lengthAdjust="spacing" textLength="121" x="277" y="810.7666">startLine: number</text><text fill="#000000" font-family="sans-serif" font-size="14" lengthAdjust="spacing" textLength="116" x="277" y="827.2548">endLine: number</text><text fill="#000000" font-family="sans-serif" font-size="14" lengthAdjust="spacing" textLength="101" x="277" y="843.7431">offset: number</text><text fill="#000000" font-family="sans-serif" font-size="14" lengthAdjust="spacing" textLength="106" x="277" y="860.2314">length: number</text><text fill="#000000" font-family="sans-serif" font-size="14" lengthAdjust="spacing" textLength="137" x="277" y="876.7197">bodyOffset: number</text><text fill="#000000" font-family="sans-serif" font-size="14" lengthAdjust="spacing" textLength="143" x="277" y="893.208">bodyLength: number</text><line style="stroke:#181818;stroke-width:0.5;" x1="272" x2="425" y1="900.1611" y2="900.1611"/></g><!--link McpServer to AnalysisService--><g id="link_McpServer_AnalysisService"><path codeLine="43" d="M348.5,88.39 C348.5,109.6 348.5,130.94 348.5,158.51 " fill="none" id="McpServer-to-AnalysisService" style="stroke:#181818;stroke-width:1.0;stroke-dasharray:7.0,7.0;"/><polygon fill="#181818" points="348.5,164.51,352.5,155.51,348.5,159.51,344.5,155.51,348.5,164.51" style="stroke:#181818;stroke-width:1.0;"/><text fill="#000000" font-family="sans-serif" font-size="13" lengthAdjust="spacing" textLength="29" x="349.5" y="131.5484">uses</text></g><!--link AnalysisService to SwiftParser--><g id="link_AnalysisService_SwiftParser"><path codeLine="44" d="M348.5,411.13 C348.5,437.84 348.5,458.85 348.5,481.47 " fill="none" id="AnalysisService-to-SwiftParser" style="stroke:#181818;stroke-width:1.0;stroke-dasharray:7.0,7.0;"/><polygon fill="#181818" points="348.5,487.47,352.5,478.47,348.5,482.47,344.5,478.47,348.5,487.47" style="stroke:#181818;stroke-width:1.0;"/><text fill="#000000" font-family="sans-serif" font-size="13" lengthAdjust="spacing" textLength="29" x="349.5" y="454.4084">uses</text></g><!--link SwiftParser to CodeChunk--><g id="link_SwiftParser_CodeChunk"><path codeLine="45" d="M348.5,602.09 C348.5,624.84 348.5,645.97 348.5,672.51 " fill="none" id="SwiftParser-to-CodeChunk" style="stroke:#181818;stroke-width:1.0;stroke-dasharray:7.0,7.0;"/><polygon fill="#181818" points="348.5,678.51,352.5,669.51,348.5,673.51,344.5,669.51,348.5,678.51" style="stroke:#181818;stroke-width:1.0;"/><text fill="#000000" font-family="sans-serif" font-size="13" lengthAdjust="spacing" textLength="45" x="349.5" y="645.3584">creates</text></g><!--SRC=[fLJBRjim4BphA_QeedO-G0WC56aD14XIe-wjw84XLmeJcXIub5lNpR-N3preEK6AzY9fPuV3uUwAN34YkENj5kqUBHmBWFV0BJA78rg-YwZ5Hf93-zKOvQ7dek1nzGVDr84a1RBa63MMG3zaxJRC4jeAjbCGastu51jh7f4xgk2MjPVahDJD0gwCmAk7JZzz-xwAP1u2-YYzJk8aZqRxgEFEsFACaGopOEmNzjkKRNflc7iOUHNux4uINkwD5Akuh44Nzq-or-85yZ5ixr2x8GVFy1jqfrIIKBvGwqvp9xtBQxsM2ilQFrxP-mWa6yrSPt4IJCUFTWQfP6ikj82wps_dAdzjUHcsYLqANkcDMYLWw0-nFMO5gwOElb3U9IZ3nF_LTmdER5cDmUeTss6f_IDJwQTa7D1i-eO1puO7Vo9Vwme-XNTVo8KVTYQ2ViXy6RxxR9gkECDlTNOspAVTJ4VyntxsTPcry4PglEjsz_wdFPSrTKteIweZ8TDAm2fKJ7fFjcR-Dnwjnvhb9VQXExHvU3Q-7fCY2sRj34iSiz7kuCTZgCKCERNi0OMw2MSQWNiZ3f_dh03Ud3BzsQPhxk9YTNPjLT0HKZ670pKVe9wMGu4oLQlghqyg_W00]--></g></svg>