<svg xmlns="http://www.w3.org/2000/svg" xmlns:xlink="http://www.w3.org/1999/xlink" contentStyleType="text/css" height="563px" preserveAspectRatio="none" style="width:999px;height:563px;background:#FFFFFF;" version="1.1" viewBox="0 0 999 563" width="999px" zoomAndPan="magnify"><defs/><g><!--entity LLM--><g id="elem_LLM"><polygon fill="#F1F1F1" points="400.5,16,410.5,6,514.5,6,514.5,42.4883,504.5,52.4883,400.5,52.4883,400.5,16" style="stroke:#181818;stroke-width:0.5;"/><line style="stroke:#181818;stroke-width:0.5;" x1="504.5" x2="514.5" y1="16" y2="6"/><line style="stroke:#181818;stroke-width:0.5;" x1="400.5" x2="504.5" y1="16" y2="16"/><line style="stroke:#181818;stroke-width:0.5;" x1="504.5" x2="504.5" y1="16" y2="52.4883"/><text fill="#000000" font-family="sans-serif" font-size="14" lengthAdjust="spacing" textLength="74" x="415.5" y="39.5352">LLM/Agent</text></g><!--entity Server--><g id="elem_Server"><polygon fill="#F1F1F1" points="399,139.49,409,129.49,516,129.49,516,165.9783,506,175.9783,399,175.9783,399,139.49" style="stroke:#181818;stroke-width:0.5;"/><line style="stroke:#181818;stroke-width:0.5;" x1="506" x2="516" y1="139.49" y2="129.49"/><line style="stroke:#181818;stroke-width:0.5;" x1="399" x2="506" y1="139.49" y2="139.49"/><line style="stroke:#181818;stroke-width:0.5;" x1="506" x2="506" y1="139.49" y2="175.9783"/><text fill="#000000" font-family="sans-serif" font-size="14" lengthAdjust="spacing" textLength="77" x="414" y="163.0252">MCP Server</text></g><!--entity AS--><g id="elem_AS"><polygon fill="#F1F1F1" points="383.5,262.98,393.5,252.98,531.5,252.98,531.5,289.4683,521.5,299.4683,383.5,299.4683,383.5,262.98" style="stroke:#181818;stroke-width:0.5;"/><line style="stroke:#181818;stroke-width:0.5;" x1="521.5" x2="531.5" y1="262.98" y2="252.98"/><line style="stroke:#181818;stroke-width:0.5;" x1="383.5" x2="521.5" y1="262.98" y2="262.98"/><line style="stroke:#181818;stroke-width:0.5;" x1="521.5" x2="521.5" y1="262.98" y2="299.4683"/><text fill="#000000" font-family="sans-serif" font-size="14" lengthAdjust="spacing" textLength="108" x="398.5" y="286.5152">Analysis Service</text></g><!--entity SP--><g id="elem_SP"><polygon fill="#F1F1F1" points="19.5,386.46,29.5,376.46,139.5,376.46,139.5,412.9483,129.5,422.9483,19.5,422.9483,19.5,386.46" style="stroke:#181818;stroke-width:0.5;"/><line style="stroke:#181818;stroke-width:0.5;" x1="129.5" x2="139.5" y1="386.46" y2="376.46"/><line style="stroke:#181818;stroke-width:0.5;" x1="19.5" x2="129.5" y1="386.46" y2="386.46"/><line style="stroke:#181818;stroke-width:0.5;" x1="129.5" x2="129.5" y1="386.46" y2="422.9483"/><text fill="#000000" font-family="sans-serif" font-size="14" lengthAdjust="spacing" textLength="80" x="34.5" y="409.9952">Swift Parser</text></g><!--entity SK--><g id="elem_SK"><polygon fill="#F1F1F1" points="16,509.95,26,499.95,143,499.95,143,536.4383,133,546.4383,16,546.4383,16,509.95" style="stroke:#181818;stroke-width:0.5;"/><line style="stroke:#181818;stroke-width:0.5;" x1="133" x2="143" y1="509.95" y2="499.95"/><line style="stroke:#181818;stroke-width:0.5;" x1="16" x2="133" y1="509.95" y2="509.95"/><line style="stroke:#181818;stroke-width:0.5;" x1="133" x2="133" y1="509.95" y2="546.4383"/><text fill="#000000" font-family="sans-serif" font-size="14" lengthAdjust="spacing" textLength="87" x="31" y="533.4852">SourceKitten</text></g><!--entity FS--><g id="elem_FS"><polygon fill="#F1F1F1" points="399.5,386.46,409.5,376.46,515.5,376.46,515.5,412.9483,505.5,422.9483,399.5,422.9483,399.5,386.46" style="stroke:#181818;stroke-width:0.5;"/><line style="stroke:#181818;stroke-width:0.5;" x1="505.5" x2="515.5" y1="386.46" y2="376.46"/><line style="stroke:#181818;stroke-width:0.5;" x1="399.5" x2="505.5" y1="386.46" y2="386.46"/><line style="stroke:#181818;stroke-width:0.5;" x1="505.5" x2="505.5" y1="386.46" y2="422.9483"/><text fill="#000000" font-family="sans-serif" font-size="14" lengthAdjust="spacing" textLength="76" x="414.5" y="409.9952">File System</text></g><!--entity Cache--><g id="elem_Cache"><polygon fill="#F1F1F1" points="819,386.46,829,376.46,982,376.46,982,412.9483,972,422.9483,819,422.9483,819,386.46" style="stroke:#181818;stroke-width:0.5;"/><line style="stroke:#181818;stroke-width:0.5;" x1="972" x2="982" y1="386.46" y2="376.46"/><line style="stroke:#181818;stroke-width:0.5;" x1="819" x2="972" y1="386.46" y2="386.46"/><line style="stroke:#181818;stroke-width:0.5;" x1="972" x2="972" y1="386.46" y2="422.9483"/><text fill="#000000" font-family="sans-serif" font-size="14" lengthAdjust="spacing" textLength="123" x="834" y="409.9952">In-memory Cache</text></g><!--link LLM to Server--><g id="link_LLM_Server"><path d="M408.94,52.79 C397.58,60.52 386.93,70.35 380.5,82.49 C370.65,101.07 380.7801,113.9853 400.2301,125.9553 " fill="none" id="LLM-to-Server" style="stroke:#181818;stroke-width:1.0;"/><polygon fill="#181818" points="405.34,129.1,399.7717,120.9763,401.0818,126.4794,395.5787,127.7895,405.34,129.1" style="stroke:#181818;stroke-width:1.0;"/><text fill="#000000" font-family="sans-serif" font-size="13" lengthAdjust="spacing" textLength="106" x="381.5" y="96.0584">Tool Calls (JSON)</text></g><!--link Server to LLM--><g id="link_Server_LLM"><path d="M479,129.17 C488.9,116.02 497.48,98.85 492.5,82.49 C489.29,71.94 486.6723,66.4518 480.4323,57.7718 " fill="none" id="Server-to-LLM" style="stroke:#181818;stroke-width:1.0;"/><polygon fill="#181818" points="476.93,52.9,478.9356,62.5425,479.8486,56.9598,485.4313,57.8728,476.93,52.9" style="stroke:#181818;stroke-width:1.0;"/><text fill="#000000" font-family="sans-serif" font-size="13" lengthAdjust="spacing" textLength="121" x="494.96" y="96.0584">Tool Results (JSON)</text></g><!--link Server to AS--><g id="link_Server_AS"><path d="M405.63,176.35 C394,184 383.15,193.78 376.5,205.98 C366.27,224.74 376.5898,237.6255 396.6798,249.4555 " fill="none" id="Server-to-AS" style="stroke:#181818;stroke-width:1.0;"/><polygon fill="#181818" points="401.85,252.5,396.1243,244.4865,397.5415,249.9629,392.065,251.3801,401.85,252.5" style="stroke:#181818;stroke-width:1.0;"/><text fill="#000000" font-family="sans-serif" font-size="13" lengthAdjust="spacing" textLength="115" x="377.5" y="219.5484">Tool Inputs (JSON)</text></g><!--link AS to Server--><g id="link_AS_Server"><path d="M482.31,252.6 C493.51,239.58 503.11,222.54 497.5,205.98 C493.83,195.16 490.7397,189.4553 483.6797,180.8653 " fill="none" id="AS-to-Server" style="stroke:#181818;stroke-width:1.0;"/><polygon fill="#181818" points="479.87,176.23,482.4943,185.7228,483.0448,180.0928,488.6748,180.6432,479.87,176.23" style="stroke:#181818;stroke-width:1.0;"/><text fill="#000000" font-family="sans-serif" font-size="13" lengthAdjust="spacing" textLength="121" x="500.15" y="219.5484">Tool Results (JSON)</text></g><!--link AS to FS--><g id="link_AS_FS"><path d="M383.24,285.89 C329.49,293.87 263.45,307.81 246.5,329.46 C204.15,383.58 317.0732,395.7139 393.2132,398.2039 " fill="none" id="AS-to-FS" style="stroke:#181818;stroke-width:1.0;"/><polygon fill="#181818" points="399.21,398.4,390.3456,394.108,394.2127,398.2366,390.0841,402.1037,399.21,398.4" style="stroke:#181818;stroke-width:1.0;"/><text fill="#000000" font-family="sans-serif" font-size="13" lengthAdjust="spacing" textLength="74" x="247.5" y="343.0284">Project Path</text></g><!--link FS to AS--><g id="link_FS_AS"><path d="M488.4,376.14 C497.24,367.9 505.76,357.79 510.5,346.46 C517.69,329.29 510.2291,316.5996 495.8691,303.9296 " fill="none" id="FS-to-AS" style="stroke:#181818;stroke-width:1.0;"/><polygon fill="#181818" points="491.37,299.96,495.4723,308.9139,495.1193,303.268,500.7651,302.915,491.37,299.96" style="stroke:#181818;stroke-width:1.0;"/><text fill="#000000" font-family="sans-serif" font-size="13" lengthAdjust="spacing" textLength="64" x="513.65" y="343.0284">Swift Files</text></g><!--link AS to FS--><g id="link_AS_FS"><path d="M390.3,299.92 C377.64,307.33 366.03,316.98 358.5,329.46 C344.37,352.9 364.7994,368.211 393.6894,379.771 " fill="none" id="AS-to-FS-1" style="stroke:#181818;stroke-width:1.0;"/><polygon fill="#181818" points="399.26,382,392.3901,374.9428,394.6178,380.1425,389.4181,382.3702,399.26,382" style="stroke:#181818;stroke-width:1.0;"/><text fill="#000000" font-family="sans-serif" font-size="13" lengthAdjust="spacing" textLength="142" x="359.5" y="343.0284">CodeChunk (JSON File)</text></g><!--link FS to AS--><g id="link_FS_AS"><path d="M515.63,389.38 C559.21,379.66 607.95,361.29 586.5,329.46 C573.81,310.63 558.6792,300.6292 537.4892,292.9292 " fill="none" id="FS-to-AS-1" style="stroke:#181818;stroke-width:1.0;"/><polygon fill="#181818" points="531.85,290.88,538.9427,297.7132,536.5494,292.5876,541.675,290.1943,531.85,290.88" style="stroke:#181818;stroke-width:1.0;"/><text fill="#000000" font-family="sans-serif" font-size="13" lengthAdjust="spacing" textLength="142" x="592.72" y="343.0284">CodeChunk (JSON File)</text></g><!--link AS to SP--><g id="link_AS_SP"><path d="M383.06,281 C266.46,287.69 51.57,303.41 28.5,329.46 C15.43,344.22 24.8025,358.3147 41.4025,372.2347 " fill="none" id="AS-to-SP" style="stroke:#181818;stroke-width:1.0;"/><polygon fill="#181818" points="46,376.09,41.6739,367.2421,42.1687,372.8773,36.5336,373.3721,46,376.09" style="stroke:#181818;stroke-width:1.0;"/><text fill="#000000" font-family="sans-serif" font-size="13" lengthAdjust="spacing" textLength="53" x="29.5" y="343.0284">File Path</text></g><!--link SP to AS--><g id="link_SP_AS"><path d="M95.89,376 C108.47,360.35 127.25,340.46 148.5,329.46 C222.32,291.28 312.0657,280.331 377.2857,277.491 " fill="none" id="SP-to-AS" style="stroke:#181818;stroke-width:1.0;"/><polygon fill="#181818" points="383.28,277.23,374.1145,273.6253,378.2847,277.4475,374.4625,281.6177,383.28,277.23" style="stroke:#181818;stroke-width:1.0;"/><text fill="#000000" font-family="sans-serif" font-size="13" lengthAdjust="spacing" textLength="81" x="149.5" y="343.0284">CodeChunk[]</text></g><!--link SP to SK--><g id="link_SP_SK"><path d="M50.58,423.31 C42.14,431.62 33.99,441.77 29.5,452.95 C22.65,470.01 29.781,482.6989 43.481,495.4689 " fill="none" id="SP-to-SK" style="stroke:#181818;stroke-width:1.0;"/><polygon fill="#181818" points="47.87,499.56,44.0139,490.4974,44.2125,496.1508,38.5591,496.3494,47.87,499.56" style="stroke:#181818;stroke-width:1.0;"/><text fill="#000000" font-family="sans-serif" font-size="13" lengthAdjust="spacing" textLength="53" x="30.5" y="466.5184">File Path</text></g><!--link SK to SP--><g id="link_SK_SP"><path d="M84.24,499.67 C85.95,490.5 87.66,479.76 88.5,469.95 C89.83,454.37 88.6797,442.8008 86.0697,429.3108 " fill="none" id="SK-to-SP" style="stroke:#181818;stroke-width:1.0;"/><polygon fill="#181818" points="84.93,423.42,82.7124,433.016,85.8798,428.329,90.5668,431.4963,84.93,423.42" style="stroke:#181818;stroke-width:1.0;"/><text fill="#000000" font-family="sans-serif" font-size="13" lengthAdjust="spacing" textLength="170" x="89.89" y="466.5184">SourceKitten Output (JSON)</text></g><!--link AS to Cache--><g id="link_AS_Cache"><path d="M531.82,285.92 C590.22,293.92 673.18,307.86 743.5,329.46 C782.94,341.58 820.272,358.21 851.172,373.35 " fill="none" id="AS-to-Cache" style="stroke:#181818;stroke-width:1.0;"/><polygon fill="#181818" points="856.56,375.99,850.238,368.4381,852.07,373.79,846.718,375.6221,856.56,375.99" style="stroke:#181818;stroke-width:1.0;"/><text fill="#000000" font-family="sans-serif" font-size="13" lengthAdjust="spacing" textLength="81" x="788.82" y="343.0284">CodeChunk[]</text></g><!--link Cache to AS--><g id="link_Cache_AS"><path d="M899.45,376.22 C897.46,360.68 892.18,340.83 878.5,329.46 C827.31,286.92 644.5295,278.4849 537.9695,277.1549 " fill="none" id="Cache-to-AS" style="stroke:#181818;stroke-width:1.0;"/><polygon fill="#181818" points="531.97,277.08,540.9194,281.192,536.9696,277.1424,541.0192,273.1926,531.97,277.08" style="stroke:#181818;stroke-width:1.0;"/><text fill="#000000" font-family="sans-serif" font-size="13" lengthAdjust="spacing" textLength="73" x="892.2" y="343.0284">CodeChunk</text></g><!--SRC=[RP6xJiGm44LxVyLegwM8w2bMYY95MhBBMfWEKKHX80R7Hdw0ylVubST2EdlEdPbxRQbU4NQdq_csV4TfTz0Qy3SYO_rSKM2elr57a8wPbR8Le-6foZkCYf9bodxucmNQQZFrqeaefpjikBKe4saogRb0OAEnE4HGJyEEiXXmK7g4gktwj2cU2F5UeIWEsHhSmPDImaCX3EplsUNXXcGKL2MR54VvvUmi8Hu4NWTEjVh0BfYtFQdPqfWo1PTcxc3KWsWyolqrLflhQhDer_7XugotCHkbowxA1wzw9p-VN-PTCV8VjZO-rzF0QC1dMqVObgJ1_qLBoglNVKJZXDrwt_0Rsw9V]--></g></svg>