<svg xmlns="http://www.w3.org/2000/svg" xmlns:xlink="http://www.w3.org/1999/xlink" contentStyleType="text/css" height="686px" preserveAspectRatio="none" style="width:1081px;height:686px;background:#FFFFFF;" version="1.1" viewBox="0 0 1081 686" width="1081px" zoomAndPan="magnify"><defs/><g><!--entity LLM--><g id="elem_LLM"><polygon fill="#F1F1F1" points="537.21,16,547.21,6,651.21,6,651.21,42.4883,641.21,52.4883,537.21,52.4883,537.21,16" style="stroke:#181818;stroke-width:0.5;"/><line style="stroke:#181818;stroke-width:0.5;" x1="641.21" x2="651.21" y1="16" y2="6"/><line style="stroke:#181818;stroke-width:0.5;" x1="537.21" x2="641.21" y1="16" y2="16"/><line style="stroke:#181818;stroke-width:0.5;" x1="641.21" x2="641.21" y1="16" y2="52.4883"/><text fill="#000000" font-family="sans-serif" font-size="14" lengthAdjust="spacing" textLength="74" x="552.21" y="39.5352">LLM/Agent</text></g><!--entity Server--><g id="elem_Server"><polygon fill="#F1F1F1" points="535.71,139.49,545.71,129.49,652.71,129.49,652.71,165.9783,642.71,175.9783,535.71,175.9783,535.71,139.49" style="stroke:#181818;stroke-width:0.5;"/><line style="stroke:#181818;stroke-width:0.5;" x1="642.71" x2="652.71" y1="139.49" y2="129.49"/><line style="stroke:#181818;stroke-width:0.5;" x1="535.71" x2="642.71" y1="139.49" y2="139.49"/><line style="stroke:#181818;stroke-width:0.5;" x1="642.71" x2="642.71" y1="139.49" y2="175.9783"/><text fill="#000000" font-family="sans-serif" font-size="14" lengthAdjust="spacing" textLength="77" x="550.71" y="163.0252">MCP Server</text></g><!--entity AS--><g id="elem_AS"><polygon fill="#F1F1F1" points="520.21,262.98,530.21,252.98,668.21,252.98,668.21,289.4683,658.21,299.4683,520.21,299.4683,520.21,262.98" style="stroke:#181818;stroke-width:0.5;"/><line style="stroke:#181818;stroke-width:0.5;" x1="658.21" x2="668.21" y1="262.98" y2="252.98"/><line style="stroke:#181818;stroke-width:0.5;" x1="520.21" x2="658.21" y1="262.98" y2="262.98"/><line style="stroke:#181818;stroke-width:0.5;" x1="658.21" x2="658.21" y1="262.98" y2="299.4683"/><text fill="#000000" font-family="sans-serif" font-size="14" lengthAdjust="spacing" textLength="108" x="535.21" y="286.5152">Analysis Service</text></g><!--entity PF--><g id="elem_PF"><polygon fill="#F1F1F1" points="29.71,386.47,39.71,376.47,166.71,376.47,166.71,412.9583,156.71,422.9583,29.71,422.9583,29.71,386.47" style="stroke:#181818;stroke-width:0.5;"/><line style="stroke:#181818;stroke-width:0.5;" x1="156.71" x2="166.71" y1="386.47" y2="376.47"/><line style="stroke:#181818;stroke-width:0.5;" x1="29.71" x2="156.71" y1="386.47" y2="386.47"/><line style="stroke:#181818;stroke-width:0.5;" x1="156.71" x2="156.71" y1="386.47" y2="422.9583"/><text fill="#000000" font-family="sans-serif" font-size="14" lengthAdjust="spacing" textLength="97" x="44.71" y="410.0052">Parser Factory</text></g><!--entity Parser--><g id="elem_Parser"><polygon fill="#F1F1F1" points="611.21,509.95,621.21,499.95,821.21,499.95,821.21,536.4383,811.21,546.4383,611.21,546.4383,611.21,509.95" style="stroke:#181818;stroke-width:0.5;"/><line style="stroke:#181818;stroke-width:0.5;" x1="811.21" x2="821.21" y1="509.95" y2="499.95"/><line style="stroke:#181818;stroke-width:0.5;" x1="611.21" x2="811.21" y1="509.95" y2="509.95"/><line style="stroke:#181818;stroke-width:0.5;" x1="811.21" x2="811.21" y1="509.95" y2="546.4383"/><text fill="#000000" font-family="sans-serif" font-size="14" lengthAdjust="spacing" textLength="170" x="626.21" y="533.4852">IParser (e.g., SwiftParser)</text></g><!--entity ELP--><g id="elem_ELP"><polygon fill="#F1F1F1" points="541.71,633.44,551.71,623.44,890.71,623.44,890.71,659.9283,880.71,669.9283,541.71,669.9283,541.71,633.44" style="stroke:#181818;stroke-width:0.5;"/><line style="stroke:#181818;stroke-width:0.5;" x1="880.71" x2="890.71" y1="633.44" y2="623.44"/><line style="stroke:#181818;stroke-width:0.5;" x1="541.71" x2="880.71" y1="633.44" y2="633.44"/><line style="stroke:#181818;stroke-width:0.5;" x1="880.71" x2="880.71" y1="633.44" y2="669.9283"/><text fill="#000000" font-family="sans-serif" font-size="14" lengthAdjust="spacing" textLength="309" x="556.71" y="656.9752">External Language Parser (e.g., SourceKitten)</text></g><!--entity FS--><g id="elem_FS"><polygon fill="#F1F1F1" points="391.21,386.47,401.21,376.47,507.21,376.47,507.21,412.9583,497.21,422.9583,391.21,422.9583,391.21,386.47" style="stroke:#181818;stroke-width:0.5;"/><line style="stroke:#181818;stroke-width:0.5;" x1="497.21" x2="507.21" y1="386.47" y2="376.47"/><line style="stroke:#181818;stroke-width:0.5;" x1="391.21" x2="497.21" y1="386.47" y2="386.47"/><line style="stroke:#181818;stroke-width:0.5;" x1="497.21" x2="497.21" y1="386.47" y2="422.9583"/><text fill="#000000" font-family="sans-serif" font-size="14" lengthAdjust="spacing" textLength="76" x="406.21" y="410.0052">File System</text></g><!--entity Cache--><g id="elem_Cache"><polygon fill="#F1F1F1" points="783.71,386.47,793.71,376.47,946.71,376.47,946.71,412.9583,936.71,422.9583,783.71,422.9583,783.71,386.47" style="stroke:#181818;stroke-width:0.5;"/><line style="stroke:#181818;stroke-width:0.5;" x1="936.71" x2="946.71" y1="386.47" y2="376.47"/><line style="stroke:#181818;stroke-width:0.5;" x1="783.71" x2="936.71" y1="386.47" y2="386.47"/><line style="stroke:#181818;stroke-width:0.5;" x1="936.71" x2="936.71" y1="386.47" y2="422.9583"/><text fill="#000000" font-family="sans-serif" font-size="14" lengthAdjust="spacing" textLength="123" x="798.71" y="410.0052">In-memory Cache</text></g><!--link LLM to Server--><g id="link_LLM_Server"><path d="M545.64,52.79 C534.29,60.52 523.64,70.36 517.21,82.49 C507.36,101.07 517.489,113.9972 536.939,125.9572 " fill="none" id="LLM-to-Server" style="stroke:#181818;stroke-width:1.0;"/><polygon fill="#181818" points="542.05,129.1,536.4787,120.9784,537.7908,126.481,532.2882,127.7931,542.05,129.1" style="stroke:#181818;stroke-width:1.0;"/><text fill="#000000" font-family="sans-serif" font-size="13" lengthAdjust="spacing" textLength="106" x="518.21" y="96.0584">Tool Calls (JSON)</text></g><!--link Server to LLM--><g id="link_Server_LLM"><path d="M615.7,129.17 C625.61,116.03 634.18,98.86 629.21,82.49 C626,71.94 623.3849,66.4498 617.1449,57.7798 " fill="none" id="Server-to-LLM" style="stroke:#181818;stroke-width:1.0;"/><polygon fill="#181818" points="613.64,52.91,615.6508,62.5514,616.5608,56.9682,622.144,57.8781,613.64,52.91" style="stroke:#181818;stroke-width:1.0;"/><text fill="#000000" font-family="sans-serif" font-size="13" lengthAdjust="spacing" textLength="121" x="631.67" y="96.0584">Tool Results (JSON)</text></g><!--link Server to AS--><g id="link_Server_AS"><path d="M542.34,176.35 C530.71,184 519.85,193.78 513.21,205.98 C502.98,224.74 513.3004,237.6244 533.3804,249.4544 " fill="none" id="Server-to-AS" style="stroke:#181818;stroke-width:1.0;"/><polygon fill="#181818" points="538.55,252.5,532.8261,244.4852,534.242,249.962,528.7653,251.378,538.55,252.5" style="stroke:#181818;stroke-width:1.0;"/><text fill="#000000" font-family="sans-serif" font-size="13" lengthAdjust="spacing" textLength="115" x="514.21" y="219.5484">Tool Inputs (JSON)</text></g><!--link AS to Server--><g id="link_AS_Server"><path d="M619.02,252.6 C630.22,239.58 639.82,222.54 634.21,205.98 C630.54,195.16 627.4524,189.4531 620.3924,180.8731 " fill="none" id="AS-to-Server" style="stroke:#181818;stroke-width:1.0;"/><polygon fill="#181818" points="616.58,176.24,619.2098,185.7313,619.757,180.1009,625.3873,180.6481,616.58,176.24" style="stroke:#181818;stroke-width:1.0;"/><text fill="#000000" font-family="sans-serif" font-size="13" lengthAdjust="spacing" textLength="121" x="636.86" y="219.5484">Tool Results (JSON)</text></g><!--link AS to FS--><g id="link_AS_FS"><path d="M519.77,277.19 C426.31,278.93 273.84,288.22 238.21,329.47 C193.15,381.61 307.895,394.4554 384.865,397.5954 " fill="none" id="AS-to-FS" style="stroke:#181818;stroke-width:1.0;"/><polygon fill="#181818" points="390.86,397.84,382.0305,393.4765,385.8642,397.6362,381.7044,401.4698,390.86,397.84" style="stroke:#181818;stroke-width:1.0;"/><text fill="#000000" font-family="sans-serif" font-size="13" lengthAdjust="spacing" textLength="74" x="239.21" y="343.0384">Project Path</text></g><!--link FS to AS--><g id="link_FS_AS"><path d="M476,376.26 C501.99,354.48 536.6311,325.4636 562.6711,303.6436 " fill="none" id="FS-to-AS" style="stroke:#181818;stroke-width:1.0;"/><polygon fill="#181818" points="567.27,299.79,557.8026,302.5045,563.4376,303.0013,562.9407,308.6363,567.27,299.79" style="stroke:#181818;stroke-width:1.0;"/><text fill="#000000" font-family="sans-serif" font-size="13" lengthAdjust="spacing" textLength="64" x="531.39" y="343.0384">Swift Files</text></g><!--link AS to FS--><g id="link_AS_FS"><path d="M519.84,283.9 C459.35,291.06 380.9,304.87 361.21,329.47 C346.2,348.21 360.7939,362.2958 385.4639,374.6358 " fill="none" id="AS-to-FS-1" style="stroke:#181818;stroke-width:1.0;"/><polygon fill="#181818" points="390.83,377.32,384.5702,369.7164,386.3582,375.0832,380.9914,376.8712,390.83,377.32" style="stroke:#181818;stroke-width:1.0;"/><text fill="#000000" font-family="sans-serif" font-size="13" lengthAdjust="spacing" textLength="142" x="362.21" y="343.0384">CodeChunk (JSON File)</text></g><!--link FS to AS--><g id="link_FS_AS"><path d="M507.69,395.24 C541.82,389.85 582.34,376.91 604.21,346.47 C613.84,333.05 612.4801,319.9753 607.1501,305.3953 " fill="none" id="FS-to-AS-1" style="stroke:#181818;stroke-width:1.0;"/><polygon fill="#181818" points="605.09,299.76,604.4233,309.5863,606.8067,304.456,611.9369,306.8395,605.09,299.76" style="stroke:#181818;stroke-width:1.0;"/><text fill="#000000" font-family="sans-serif" font-size="13" lengthAdjust="spacing" textLength="142" x="611.13" y="343.0384">CodeChunk (JSON File)</text></g><!--link AS to PF--><g id="link_AS_PF"><path d="M519.97,278.53 C372.56,281.9 54.21,293.32 21.21,329.47 C6,346.13 19.0007,360.0955 41.5207,373.0655 " fill="none" id="AS-to-PF" style="stroke:#181818;stroke-width:1.0;"/><polygon fill="#181818" points="46.72,376.06,40.9173,368.1021,42.3872,373.5646,36.9247,375.0345,46.72,376.06" style="stroke:#181818;stroke-width:1.0;"/><text fill="#000000" font-family="sans-serif" font-size="13" lengthAdjust="spacing" textLength="198" x="22.21" y="343.0384">Request Parser (Language Type)</text></g><!--link PF to Parser--><g id="link_PF_Parser"><path d="M167,414.23 C274.76,435.42 478.2227,475.4126 605.0327,500.3426 " fill="none" id="PF-to-Parser" style="stroke:#181818;stroke-width:1.0;"/><polygon fill="#181818" points="610.92,501.5,602.8606,495.839,606.0139,500.5355,601.3174,503.6888,610.92,501.5" style="stroke:#181818;stroke-width:1.0;"/><text fill="#000000" font-family="sans-serif" font-size="13" lengthAdjust="spacing" textLength="147" x="445.21" y="466.5184">Returns Parser Instance</text></g><!--link Parser to ELP--><g id="link_Parser_ELP"><path d="M687.29,546.8 C678.85,555.11 670.7,565.26 666.21,576.44 C659.36,593.5 666.4925,606.1873 680.1825,618.9573 " fill="none" id="Parser-to-ELP" style="stroke:#181818;stroke-width:1.0;"/><polygon fill="#181818" points="684.57,623.05,680.7172,613.986,680.9137,619.6395,675.2603,619.836,684.57,623.05" style="stroke:#181818;stroke-width:1.0;"/><text fill="#000000" font-family="sans-serif" font-size="13" lengthAdjust="spacing" textLength="53" x="667.21" y="590.0084">File Path</text></g><!--link ELP to Parser--><g id="link_ELP_Parser"><path d="M720.95,623.16 C722.66,613.99 724.37,603.25 725.21,593.44 C726.54,577.86 725.3897,566.2908 722.7797,552.8008 " fill="none" id="ELP-to-Parser" style="stroke:#181818;stroke-width:1.0;"/><polygon fill="#181818" points="721.64,546.91,719.4224,556.506,722.5898,551.819,727.2768,554.9863,721.64,546.91" style="stroke:#181818;stroke-width:1.0;"/><text fill="#000000" font-family="sans-serif" font-size="13" lengthAdjust="spacing" textLength="158" x="726.6" y="590.0084">Raw Parser Output (JSON)</text></g><!--link Parser to AS--><g id="link_Parser_AS"><path d="M821.51,506.02 C872.65,492.54 930.24,467.91 964.21,422.95 C1018.65,350.92 986.77,346.18 972.21,329.47 C933.64,285.2 773.2698,277.225 674.5598,276.485 " fill="none" id="Parser-to-AS" style="stroke:#181818;stroke-width:1.0;"/><polygon fill="#181818" points="668.56,276.44,677.5298,280.5074,673.5599,276.4775,677.5897,272.5076,668.56,276.44" style="stroke:#181818;stroke-width:1.0;"/><text fill="#000000" font-family="sans-serif" font-size="13" lengthAdjust="spacing" textLength="81" x="992.82" y="404.7784">CodeChunk[]</text></g><!--link AS to Cache--><g id="link_AS_Cache"><path d="M668.32,295.25 C698.23,303.8 732.59,315.28 762.21,329.47 C788.83,342.22 811.6487,357.5651 831.5787,372.4151 " fill="none" id="AS-to-Cache" style="stroke:#181818;stroke-width:1.0;"/><polygon fill="#181818" points="836.39,376,831.563,367.4151,832.3806,373.0126,826.7831,373.8301,836.39,376" style="stroke:#181818;stroke-width:1.0;"/><text fill="#000000" font-family="sans-serif" font-size="13" lengthAdjust="spacing" textLength="81" x="793.02" y="343.0384">CodeChunk[]</text></g><!--link Cache to AS--><g id="link_Cache_AS"><path d="M880.33,376.2 C888.2,361.44 894.12,342.52 883.21,329.47 C856.36,297.33 750.9884,285.2932 674.6084,280.5332 " fill="none" id="Cache-to-AS" style="stroke:#181818;stroke-width:1.0;"/><polygon fill="#181818" points="668.62,280.16,677.3538,284.712,673.6103,280.471,677.8514,276.7275,668.62,280.16" style="stroke:#181818;stroke-width:1.0;"/><text fill="#000000" font-family="sans-serif" font-size="13" lengthAdjust="spacing" textLength="73" x="890.17" y="343.0384">CodeChunk</text></g><!--SRC=[RP5FJyCm3CNl-HGMfqrYuyu1gQfMQT2nQjqDSOYAwGfTEXA7qM-FywTb6xl5_Zqdpo-gUqEuoVFLNLAZeXkG1hWIolTNQG4bwc_K7eHZP8cIRM-Qq6qgz8gaZBIGsg26J5RKwTwp8eji6U44v_Ny5ifZyqwXDGr2VuxYnG-XvgSWbwgsiaQucEwihl2f8K8LnXTv4MUpfaKeUqEuzoGRt2tLR8zxDWQfh7R1kZy9mSl3RFOGTuLxs7PTox1j3KmUo_NpL4JaL4avA9RgO6cK20QEPuuNkll0YjWuxKHM_WtwpS6vDED4aJ7Ou9T5G-Egu-xR_e1JmHel3TJ9oMer1CTM34bLeOYrqt8eBFI1U1kkFhz37eTYRObt6LOvkSIRJZd1T6VLvylhQDfdTy5E4nZxuLBlWqCwpUAw95pyNpI-VFvD6pIsfMiVvRxrkkWN]--></g></svg>