<svg xmlns="http://www.w3.org/2000/svg" xmlns:xlink="http://www.w3.org/1999/xlink" contentStyleType="text/css" height="682px" preserveAspectRatio="none" style="width:1622px;height:682px;background:#FFFFFF;" version="1.1" viewBox="0 0 1622 682" width="1622px" zoomAndPan="magnify"><defs/><g><rect fill="#FFFFFF" height="427.3027" style="stroke:#181818;stroke-width:1.0;" width="10" x="455" y="156.1094"/><rect fill="#FFFFFF" height="368.6816" style="stroke:#181818;stroke-width:1.0;" width="10" x="724" y="185.4199"/><rect fill="#FFFFFF" height="29.3105" style="stroke:#181818;stroke-width:1.0;" width="10" x="876" y="214.7305"/><rect fill="#FFFFFF" height="29.3105" style="stroke:#181818;stroke-width:1.0;" width="10" x="1197" y="385.5938"/><rect fill="#FFFFFF" height="29.3105" style="stroke:#181818;stroke-width:1.0;" width="10" x="1297" y="459.1699"/><rect fill="#FFFFFF" height="29.3105" style="stroke:#181818;stroke-width:1.0;" width="10" x="1391.5" y="302.6621"/><rect fill="#FFFFFF" height="251.4395" style="stroke:#181818;stroke-width:1.0;" width="10" x="1561" y="273.3516"/><rect fill="none" height="149.5078" style="stroke:#000000;stroke-width:1.5;" width="463.5" x="1141.5" y="346.9727"/><line style="stroke:#181818;stroke-width:0.5;stroke-dasharray:5.0,5.0;" x1="45" x2="45" y1="81.4883" y2="601.4121"/><line style="stroke:#181818;stroke-width:0.5;stroke-dasharray:5.0,5.0;" x1="459.5" x2="459.5" y1="81.4883" y2="601.4121"/><line style="stroke:#181818;stroke-width:0.5;stroke-dasharray:5.0,5.0;" x1="729" x2="729" y1="81.4883" y2="601.4121"/><line style="stroke:#181818;stroke-width:0.5;stroke-dasharray:5.0,5.0;" x1="880.5" x2="880.5" y1="81.4883" y2="601.4121"/><line style="stroke:#181818;stroke-width:0.5;stroke-dasharray:5.0,5.0;" x1="989.5" x2="989.5" y1="81.4883" y2="601.4121"/><line style="stroke:#181818;stroke-width:0.5;stroke-dasharray:5.0,5.0;" x1="1092.5" x2="1092.5" y1="81.4883" y2="601.4121"/><line style="stroke:#181818;stroke-width:0.5;stroke-dasharray:5.0,5.0;" x1="1201.5" x2="1201.5" y1="81.4883" y2="601.4121"/><line style="stroke:#181818;stroke-width:0.5;stroke-dasharray:5.0,5.0;" x1="1301.5" x2="1301.5" y1="81.4883" y2="601.4121"/><line style="stroke:#181818;stroke-width:0.5;stroke-dasharray:5.0,5.0;" x1="1396.5" x2="1396.5" y1="81.4883" y2="601.4121"/><line style="stroke:#181818;stroke-width:0.5;stroke-dasharray:5.0,5.0;" x1="1566" x2="1566" y1="81.4883" y2="601.4121"/><text fill="#000000" font-family="sans-serif" font-size="14" lengthAdjust="spacing" textLength="74" x="5" y="78.5352">LLM/Agent</text><ellipse cx="45" cy="13.5" fill="#E2E2F0" rx="8" ry="8" style="stroke:#181818;stroke-width:0.5;"/><path d="M45,21.5 L45,48.5 M32,29.5 L58,29.5 M45,48.5 L32,63.5 M45,48.5 L58,63.5 " fill="none" style="stroke:#181818;stroke-width:0.5;"/><text fill="#000000" font-family="sans-serif" font-size="14" lengthAdjust="spacing" textLength="74" x="5" y="613.9473">LLM/Agent</text><ellipse cx="45" cy="625.4004" fill="#E2E2F0" rx="8" ry="8" style="stroke:#181818;stroke-width:0.5;"/><path d="M45,633.4004 L45,660.4004 M32,641.4004 L58,641.4004 M45,660.4004 L32,675.4004 M45,660.4004 L58,675.4004 " fill="none" style="stroke:#181818;stroke-width:0.5;"/><rect fill="#E2E2F0" height="30.4883" rx="2.5" ry="2.5" style="stroke:#181818;stroke-width:0.5;" width="91" x="414.5" y="50"/><text fill="#000000" font-family="sans-serif" font-size="14" lengthAdjust="spacing" textLength="77" x="421.5" y="70.5352">MCP Server</text><rect fill="#E2E2F0" height="30.4883" rx="2.5" ry="2.5" style="stroke:#181818;stroke-width:0.5;" width="91" x="414.5" y="600.4121"/><text fill="#000000" font-family="sans-serif" font-size="14" lengthAdjust="spacing" textLength="77" x="421.5" y="620.9473">MCP Server</text><rect fill="#E2E2F0" height="30.4883" rx="2.5" ry="2.5" style="stroke:#181818;stroke-width:0.5;" width="118" x="670" y="50"/><text fill="#000000" font-family="sans-serif" font-size="14" lengthAdjust="spacing" textLength="104" x="677" y="70.5352">AnalysisService</text><rect fill="#E2E2F0" height="30.4883" rx="2.5" ry="2.5" style="stroke:#181818;stroke-width:0.5;" width="118" x="670" y="600.4121"/><text fill="#000000" font-family="sans-serif" font-size="14" lengthAdjust="spacing" textLength="104" x="677" y="620.9473">AnalysisService</text><rect fill="#E2E2F0" height="30.4883" rx="2.5" ry="2.5" style="stroke:#181818;stroke-width:0.5;" width="107" x="827.5" y="50"/><text fill="#000000" font-family="sans-serif" font-size="14" lengthAdjust="spacing" textLength="93" x="834.5" y="70.5352">ParserFactory</text><rect fill="#E2E2F0" height="30.4883" rx="2.5" ry="2.5" style="stroke:#181818;stroke-width:0.5;" width="107" x="827.5" y="600.4121"/><text fill="#000000" font-family="sans-serif" font-size="14" lengthAdjust="spacing" textLength="93" x="834.5" y="620.9473">ParserFactory</text><rect fill="#E2E2F0" height="30.4883" rx="2.5" ry="2.5" style="stroke:#181818;stroke-width:0.5;" width="90" x="944.5" y="50"/><text fill="#000000" font-family="sans-serif" font-size="14" lengthAdjust="spacing" textLength="76" x="951.5" y="70.5352">SwiftParser</text><rect fill="#E2E2F0" height="30.4883" rx="2.5" ry="2.5" style="stroke:#181818;stroke-width:0.5;" width="90" x="944.5" y="600.4121"/><text fill="#000000" font-family="sans-serif" font-size="14" lengthAdjust="spacing" textLength="76" x="951.5" y="620.9473">SwiftParser</text><rect fill="#E2E2F0" height="30.4883" rx="2.5" ry="2.5" style="stroke:#181818;stroke-width:0.5;" width="97" x="1044.5" y="50"/><text fill="#000000" font-family="sans-serif" font-size="14" lengthAdjust="spacing" textLength="83" x="1051.5" y="70.5352">KotlinParser</text><rect fill="#E2E2F0" height="30.4883" rx="2.5" ry="2.5" style="stroke:#181818;stroke-width:0.5;" width="97" x="1044.5" y="600.4121"/><text fill="#000000" font-family="sans-serif" font-size="14" lengthAdjust="spacing" textLength="83" x="1051.5" y="620.9473">KotlinParser</text><rect fill="#E2E2F0" height="30.4883" rx="2.5" ry="2.5" style="stroke:#181818;stroke-width:0.5;" width="101" x="1151.5" y="50"/><text fill="#000000" font-family="sans-serif" font-size="14" lengthAdjust="spacing" textLength="87" x="1158.5" y="70.5352">SourceKitten</text><rect fill="#E2E2F0" height="30.4883" rx="2.5" ry="2.5" style="stroke:#181818;stroke-width:0.5;" width="101" x="1151.5" y="600.4121"/><text fill="#000000" font-family="sans-serif" font-size="14" lengthAdjust="spacing" textLength="87" x="1158.5" y="620.9473">SourceKitten</text><rect fill="#E2E2F0" height="30.4883" rx="2.5" ry="2.5" style="stroke:#181818;stroke-width:0.5;" width="79" x="1262.5" y="50"/><text fill="#000000" font-family="sans-serif" font-size="14" lengthAdjust="spacing" textLength="65" x="1269.5" y="70.5352">Kotlin CLI</text><rect fill="#E2E2F0" height="30.4883" rx="2.5" ry="2.5" style="stroke:#181818;stroke-width:0.5;" width="79" x="1262.5" y="600.4121"/><text fill="#000000" font-family="sans-serif" font-size="14" lengthAdjust="spacing" textLength="65" x="1269.5" y="620.9473">Kotlin CLI</text><rect fill="#E2E2F0" height="30.4883" rx="2.5" ry="2.5" style="stroke:#181818;stroke-width:0.5;" width="90" x="1351.5" y="50"/><text fill="#000000" font-family="sans-serif" font-size="14" lengthAdjust="spacing" textLength="76" x="1358.5" y="70.5352">File System</text><rect fill="#E2E2F0" height="30.4883" rx="2.5" ry="2.5" style="stroke:#181818;stroke-width:0.5;" width="90" x="1351.5" y="600.4121"/><text fill="#000000" font-family="sans-serif" font-size="14" lengthAdjust="spacing" textLength="76" x="1358.5" y="620.9473">File System</text><rect fill="#E2E2F0" height="30.4883" rx="2.5" ry="2.5" style="stroke:#181818;stroke-width:0.5;" width="58" x="1537" y="50"/><text fill="#000000" font-family="sans-serif" font-size="14" lengthAdjust="spacing" textLength="44" x="1544" y="70.5352">parser</text><rect fill="#E2E2F0" height="30.4883" rx="2.5" ry="2.5" style="stroke:#181818;stroke-width:0.5;" width="58" x="1537" y="600.4121"/><text fill="#000000" font-family="sans-serif" font-size="14" lengthAdjust="spacing" textLength="44" x="1544" y="620.9473">parser</text><rect fill="#FFFFFF" height="427.3027" style="stroke:#181818;stroke-width:1.0;" width="10" x="455" y="156.1094"/><rect fill="#FFFFFF" height="368.6816" style="stroke:#181818;stroke-width:1.0;" width="10" x="724" y="185.4199"/><rect fill="#FFFFFF" height="29.3105" style="stroke:#181818;stroke-width:1.0;" width="10" x="876" y="214.7305"/><rect fill="#FFFFFF" height="29.3105" style="stroke:#181818;stroke-width:1.0;" width="10" x="1197" y="385.5938"/><rect fill="#FFFFFF" height="29.3105" style="stroke:#181818;stroke-width:1.0;" width="10" x="1297" y="459.1699"/><rect fill="#FFFFFF" height="29.3105" style="stroke:#181818;stroke-width:1.0;" width="10" x="1391.5" y="302.6621"/><rect fill="#FFFFFF" height="251.4395" style="stroke:#181818;stroke-width:1.0;" width="10" x="1561" y="273.3516"/><rect fill="#EEEEEE" height="3" style="stroke:#EEEEEE;stroke-width:1.0;" width="1615" x="0" y="112.1436"/><line style="stroke:#000000;stroke-width:1.0;" x1="0" x2="1615" y1="112.1436" y2="112.1436"/><line style="stroke:#000000;stroke-width:1.0;" x1="0" x2="1615" y1="115.1436" y2="115.1436"/><rect fill="#EEEEEE" height="23.3105" style="stroke:#000000;stroke-width:2.0;" width="108" x="753.5" y="101.4883"/><text fill="#000000" font-family="sans-serif" font-size="13" font-weight="bold" lengthAdjust="spacing" textLength="90" x="759.5" y="118.0566">find_function</text><polygon fill="#181818" points="443,152.1094,453,156.1094,443,160.1094,447,156.1094" style="stroke:#181818;stroke-width:1.0;"/><line style="stroke:#181818;stroke-width:1.0;" x1="45" x2="449" y1="156.1094" y2="156.1094"/><text fill="#000000" font-family="sans-serif" font-size="13" lengthAdjust="spacing" textLength="382" x="52" y="151.3672">callTool("find_function", { filePath: "...", functionQuery: "..." })</text><polygon fill="#181818" points="712,181.4199,722,185.4199,712,189.4199,716,185.4199" style="stroke:#181818;stroke-width:1.0;"/><line style="stroke:#181818;stroke-width:1.0;" x1="465" x2="718" y1="185.4199" y2="185.4199"/><text fill="#000000" font-family="sans-serif" font-size="13" lengthAdjust="spacing" textLength="240" x="472" y="180.6777">findFunctions(filePath, functionQuery)</text><polygon fill="#181818" points="864,210.7305,874,214.7305,864,218.7305,868,214.7305" style="stroke:#181818;stroke-width:1.0;"/><line style="stroke:#181818;stroke-width:1.0;" x1="734" x2="870" y1="214.7305" y2="214.7305"/><text fill="#000000" font-family="sans-serif" font-size="13" lengthAdjust="spacing" textLength="123" x="741" y="209.9883">getParser(language)</text><polygon fill="#181818" points="745,240.041,735,244.041,745,248.041,741,244.041" style="stroke:#181818;stroke-width:1.0;"/><line style="stroke:#181818;stroke-width:1.0;stroke-dasharray:2.0,2.0;" x1="739" x2="880" y1="244.041" y2="244.041"/><text fill="#000000" font-family="sans-serif" font-size="13" lengthAdjust="spacing" textLength="39" x="751" y="239.2988">parser</text><polygon fill="#181818" points="1549,269.3516,1559,273.3516,1549,277.3516,1553,273.3516" style="stroke:#181818;stroke-width:1.0;"/><line style="stroke:#181818;stroke-width:1.0;" x1="734" x2="1555" y1="273.3516" y2="273.3516"/><text fill="#000000" font-family="sans-serif" font-size="13" lengthAdjust="spacing" textLength="111" x="741" y="268.6094">parseFile(filePath)</text><polygon fill="#181818" points="1412.5,298.6621,1402.5,302.6621,1412.5,306.6621,1408.5,302.6621" style="stroke:#181818;stroke-width:1.0;"/><line style="stroke:#181818;stroke-width:1.0;" x1="1406.5" x2="1560" y1="302.6621" y2="302.6621"/><text fill="#000000" font-family="sans-serif" font-size="13" lengthAdjust="spacing" textLength="104" x="1418.5" y="297.9199">readFile(filePath)</text><polygon fill="#181818" points="1549,327.9727,1559,331.9727,1549,335.9727,1553,331.9727" style="stroke:#181818;stroke-width:1.0;"/><line style="stroke:#181818;stroke-width:1.0;stroke-dasharray:2.0,2.0;" x1="1396.5" x2="1555" y1="331.9727" y2="331.9727"/><text fill="#000000" font-family="sans-serif" font-size="13" lengthAdjust="spacing" textLength="70" x="1403.5" y="327.2305">fileContent</text><path d="M1141.5,346.9727 L1203.5,346.9727 L1203.5,354.2832 L1193.5,364.2832 L1141.5,364.2832 L1141.5,346.9727 " fill="#EEEEEE" style="stroke:#000000;stroke-width:1.5;"/><rect fill="none" height="149.5078" style="stroke:#000000;stroke-width:1.5;" width="463.5" x="1141.5" y="346.9727"/><text fill="#000000" font-family="sans-serif" font-size="13" font-weight="bold" lengthAdjust="spacing" textLength="17" x="1156.5" y="360.541">alt</text><text fill="#000000" font-family="sans-serif" font-size="11" font-weight="bold" lengthAdjust="spacing" textLength="72" x="1218.5" y="359.6074">[if Swift file]</text><polygon fill="#181818" points="1218,381.5938,1208,385.5938,1218,389.5938,1214,385.5938" style="stroke:#181818;stroke-width:1.0;"/><line style="stroke:#181818;stroke-width:1.0;" x1="1212" x2="1560" y1="385.5938" y2="385.5938"/><text fill="#000000" font-family="sans-serif" font-size="13" lengthAdjust="spacing" textLength="148" x="1224" y="380.8516">structure --file filePath</text><polygon fill="#181818" points="1549,410.9043,1559,414.9043,1549,418.9043,1553,414.9043" style="stroke:#181818;stroke-width:1.0;"/><line style="stroke:#181818;stroke-width:1.0;stroke-dasharray:2.0,2.0;" x1="1202" x2="1555" y1="414.9043" y2="414.9043"/><text fill="#000000" font-family="sans-serif" font-size="13" lengthAdjust="spacing" textLength="77" x="1209" y="410.1621">JSON output</text><line style="stroke:#000000;stroke-width:1.0;stroke-dasharray:2.0,2.0;" x1="1141.5" x2="1605" y1="423.9043" y2="423.9043"/><text fill="#000000" font-family="sans-serif" font-size="11" font-weight="bold" lengthAdjust="spacing" textLength="78" x="1146.5" y="434.5391">[if Kotlin file]</text><polygon fill="#181818" points="1318,455.1699,1308,459.1699,1318,463.1699,1314,459.1699" style="stroke:#181818;stroke-width:1.0;"/><line style="stroke:#181818;stroke-width:1.0;" x1="1312" x2="1560" y1="459.1699" y2="459.1699"/><text fill="#000000" font-family="sans-serif" font-size="13" lengthAdjust="spacing" textLength="235" x="1324" y="454.4277">java -jar kotlin-parser-cli.jar filePath</text><polygon fill="#181818" points="1549,484.4805,1559,488.4805,1549,492.4805,1553,488.4805" style="stroke:#181818;stroke-width:1.0;"/><line style="stroke:#181818;stroke-width:1.0;stroke-dasharray:2.0,2.0;" x1="1302" x2="1555" y1="488.4805" y2="488.4805"/><text fill="#000000" font-family="sans-serif" font-size="13" lengthAdjust="spacing" textLength="77" x="1309" y="483.7383">JSON output</text><polygon fill="#181818" points="745,520.791,735,524.791,745,528.791,741,524.791" style="stroke:#181818;stroke-width:1.0;"/><line style="stroke:#181818;stroke-width:1.0;stroke-dasharray:2.0,2.0;" x1="739" x2="1565" y1="524.791" y2="524.791"/><text fill="#000000" font-family="sans-serif" font-size="13" lengthAdjust="spacing" textLength="81" x="751" y="520.0488">CodeChunk[]</text><polygon fill="#181818" points="476,550.1016,466,554.1016,476,558.1016,472,554.1016" style="stroke:#181818;stroke-width:1.0;"/><line style="stroke:#181818;stroke-width:1.0;stroke-dasharray:2.0,2.0;" x1="470" x2="728" y1="554.1016" y2="554.1016"/><text fill="#000000" font-family="sans-serif" font-size="13" lengthAdjust="spacing" textLength="83" x="482" y="549.3594">functionsList</text><polygon fill="#181818" points="56,579.4121,46,583.4121,56,587.4121,52,583.4121" style="stroke:#181818;stroke-width:1.0;"/><line style="stroke:#181818;stroke-width:1.0;stroke-dasharray:2.0,2.0;" x1="50" x2="459" y1="583.4121" y2="583.4121"/><text fill="#000000" font-family="sans-serif" font-size="13" lengthAdjust="spacing" textLength="386" x="62" y="578.6699">{ content: [{ type: "text", text: JSON.stringify(functionsList) }] }</text><!--SRC=[ZP9FQzmm4CNl_XI3JnleRk-6BPW5G-jDwwBUGYZ27c-KgBAHnzkQiD-zep_Us4aAFSdM_ERDyFHaJPs5z7Yy_PYVq50ASW3-ItffITMgbuOWlJrK8D2UqVfw-5mZkP5w6jJWQgf6p-LYpLJI3cWBwMPEdgYADI5-gvO25YPLwthPaLPc0PIl0D6DjiPI4Q492kLx2d0uVWxz_B462gKHn3GG_l948P9aluTMcUPdEvgQL6TWlq_O9DX-YbvaK4kjVtITtgGhClq0pzohiPBqa46ws-tuQgv-7z5EyHOkDmaxeywIS7Ou76vCBZA_GX4xXyqi-afj8SBsvy8rLqK69uo-RhGqfr6US47oCrG5REEStdD9WyjwK0gbY3Ydhciir69_E5nNmQ8MPVEl1hQu47xyhE-WGsVu4Mcv1uDI4wWMV50ybW2yJ19b1WFPiQRH8Yiwu6e_aoy6b_mdojNGB-BRL-X6waVYuc8imwW7T7DZVDuCTZdAu56U9MmVfOKdpsq3iAsrshdRzpRn2GH__DyslW5DSpKuFjkXQ_3mC9gdk_kbP_4ryc3m7DSvCyDH3IkBEJHpwXZda6SSu3eyHGPtpq1JZnnPmZ_4INP7s7N7lYjpKksqMOdVmEKUBiiHCTn_0G00]--></g></svg>