<svg xmlns="http://www.w3.org/2000/svg" xmlns:xlink="http://www.w3.org/1999/xlink" contentStyleType="text/css" height="650px" preserveAspectRatio="none" style="width:1041px;height:650px;background:#FFFFFF;" version="1.1" viewBox="0 0 1041 650" width="1041px" zoomAndPan="magnify"><defs/><g><rect fill="#FFFFFF" height="403.3262" style="stroke:#181818;stroke-width:1.0;" width="10" x="494" y="156.1094"/><rect fill="#FFFFFF" height="374.0156" style="stroke:#181818;stroke-width:1.0;" width="10" x="757" y="185.4199"/><rect fill="#FFFFFF" height="29.3105" style="stroke:#181818;stroke-width:1.0;" width="10" x="964" y="338.6172"/><rect fill="none" height="175.5078" style="stroke:#000000;stroke-width:1.5;" width="331" x="693" y="242.7305"/><rect fill="none" height="90.8867" style="stroke:#000000;stroke-width:1.5;" width="544.5" x="10" y="461.5488"/><line style="stroke:#181818;stroke-width:0.5;stroke-dasharray:5.0,5.0;" x1="60" x2="60" y1="81.4883" y2="569.4355"/><line style="stroke:#181818;stroke-width:0.5;stroke-dasharray:5.0,5.0;" x1="498.5" x2="498.5" y1="81.4883" y2="569.4355"/><line style="stroke:#181818;stroke-width:0.5;stroke-dasharray:5.0,5.0;" x1="762" x2="762" y1="81.4883" y2="569.4355"/><line style="stroke:#181818;stroke-width:0.5;stroke-dasharray:5.0,5.0;" x1="969" x2="969" y1="81.4883" y2="569.4355"/><text fill="#000000" font-family="sans-serif" font-size="14" lengthAdjust="spacing" textLength="74" x="20" y="78.5352">LLM/Agent</text><ellipse cx="60" cy="13.5" fill="#E2E2F0" rx="8" ry="8" style="stroke:#181818;stroke-width:0.5;"/><path d="M60,21.5 L60,48.5 M47,29.5 L73,29.5 M60,48.5 L47,63.5 M60,48.5 L73,63.5 " fill="none" style="stroke:#181818;stroke-width:0.5;"/><text fill="#000000" font-family="sans-serif" font-size="14" lengthAdjust="spacing" textLength="74" x="20" y="581.9707">LLM/Agent</text><ellipse cx="60" cy="593.4238" fill="#E2E2F0" rx="8" ry="8" style="stroke:#181818;stroke-width:0.5;"/><path d="M60,601.4238 L60,628.4238 M47,609.4238 L73,609.4238 M60,628.4238 L47,643.4238 M60,628.4238 L73,643.4238 " fill="none" style="stroke:#181818;stroke-width:0.5;"/><rect fill="#E2E2F0" height="30.4883" rx="2.5" ry="2.5" style="stroke:#181818;stroke-width:0.5;" width="91" x="453.5" y="50"/><text fill="#000000" font-family="sans-serif" font-size="14" lengthAdjust="spacing" textLength="77" x="460.5" y="70.5352">MCP Server</text><rect fill="#E2E2F0" height="30.4883" rx="2.5" ry="2.5" style="stroke:#181818;stroke-width:0.5;" width="91" x="453.5" y="568.4355"/><text fill="#000000" font-family="sans-serif" font-size="14" lengthAdjust="spacing" textLength="77" x="460.5" y="588.9707">MCP Server</text><rect fill="#E2E2F0" height="30.4883" rx="2.5" ry="2.5" style="stroke:#181818;stroke-width:0.5;" width="118" x="703" y="50"/><text fill="#000000" font-family="sans-serif" font-size="14" lengthAdjust="spacing" textLength="104" x="710" y="70.5352">AnalysisService</text><rect fill="#E2E2F0" height="30.4883" rx="2.5" ry="2.5" style="stroke:#181818;stroke-width:0.5;" width="118" x="703" y="568.4355"/><text fill="#000000" font-family="sans-serif" font-size="14" lengthAdjust="spacing" textLength="104" x="710" y="588.9707">AnalysisService</text><rect fill="#E2E2F0" height="30.4883" rx="2.5" ry="2.5" style="stroke:#181818;stroke-width:0.5;" width="90" x="924" y="50"/><text fill="#000000" font-family="sans-serif" font-size="14" lengthAdjust="spacing" textLength="76" x="931" y="70.5352">File System</text><rect fill="#E2E2F0" height="30.4883" rx="2.5" ry="2.5" style="stroke:#181818;stroke-width:0.5;" width="90" x="924" y="568.4355"/><text fill="#000000" font-family="sans-serif" font-size="14" lengthAdjust="spacing" textLength="76" x="931" y="588.9707">File System</text><rect fill="#FFFFFF" height="403.3262" style="stroke:#181818;stroke-width:1.0;" width="10" x="494" y="156.1094"/><rect fill="#FFFFFF" height="374.0156" style="stroke:#181818;stroke-width:1.0;" width="10" x="757" y="185.4199"/><rect fill="#FFFFFF" height="29.3105" style="stroke:#181818;stroke-width:1.0;" width="10" x="964" y="338.6172"/><rect fill="#EEEEEE" height="3" style="stroke:#EEEEEE;stroke-width:1.0;" width="1034" x="0" y="112.1436"/><line style="stroke:#000000;stroke-width:1.0;" x1="0" x2="1034" y1="112.1436" y2="112.1436"/><line style="stroke:#000000;stroke-width:1.0;" x1="0" x2="1034" y1="115.1436" y2="115.1436"/><rect fill="#EEEEEE" height="23.3105" style="stroke:#000000;stroke-width:2.0;" width="89" x="472.5" y="101.4883"/><text fill="#000000" font-family="sans-serif" font-size="13" font-weight="bold" lengthAdjust="spacing" textLength="71" x="478.5" y="118.0566">get_chunk</text><polygon fill="#181818" points="482,152.1094,492,156.1094,482,160.1094,486,156.1094" style="stroke:#181818;stroke-width:1.0;"/><line style="stroke:#181818;stroke-width:1.0;" x1="60" x2="488" y1="156.1094" y2="156.1094"/><text fill="#000000" font-family="sans-serif" font-size="13" lengthAdjust="spacing" textLength="239" x="67" y="151.3672">callTool("get_chunk", { chunkId: "..." })</text><polygon fill="#181818" points="745,181.4199,755,185.4199,745,189.4199,749,185.4199" style="stroke:#181818;stroke-width:1.0;"/><line style="stroke:#181818;stroke-width:1.0;" x1="504" x2="751" y1="185.4199" y2="185.4199"/><text fill="#000000" font-family="sans-serif" font-size="13" lengthAdjust="spacing" textLength="120" x="511" y="180.6777">getChunk(chunkId)</text><line style="stroke:#181818;stroke-width:1.0;" x1="767" x2="809" y1="214.7305" y2="214.7305"/><line style="stroke:#181818;stroke-width:1.0;" x1="809" x2="809" y1="214.7305" y2="227.7305"/><line style="stroke:#181818;stroke-width:1.0;" x1="768" x2="809" y1="227.7305" y2="227.7305"/><polygon fill="#181818" points="778,223.7305,768,227.7305,778,231.7305,774,227.7305" style="stroke:#181818;stroke-width:1.0;"/><text fill="#000000" font-family="sans-serif" font-size="13" lengthAdjust="spacing" textLength="173" x="774" y="209.9883">check parsedProjects cache</text><path d="M693,242.7305 L755,242.7305 L755,250.041 L745,260.041 L693,260.041 L693,242.7305 " fill="#EEEEEE" style="stroke:#000000;stroke-width:1.5;"/><rect fill="none" height="175.5078" style="stroke:#000000;stroke-width:1.5;" width="331" x="693" y="242.7305"/><text fill="#000000" font-family="sans-serif" font-size="13" font-weight="bold" lengthAdjust="spacing" textLength="17" x="708" y="256.2988">alt</text><text fill="#000000" font-family="sans-serif" font-size="11" font-weight="bold" lengthAdjust="spacing" textLength="129" x="770" y="255.3652">[chunk found in cache]</text><line style="stroke:#181818;stroke-width:1.0;stroke-dasharray:2.0,2.0;" x1="767" x2="809" y1="281.3516" y2="281.3516"/><line style="stroke:#181818;stroke-width:1.0;stroke-dasharray:2.0,2.0;" x1="809" x2="809" y1="281.3516" y2="294.3516"/><line style="stroke:#181818;stroke-width:1.0;stroke-dasharray:2.0,2.0;" x1="768" x2="809" y1="294.3516" y2="294.3516"/><polygon fill="#181818" points="778,290.3516,768,294.3516,778,298.3516,774,294.3516" style="stroke:#181818;stroke-width:1.0;"/><text fill="#000000" font-family="sans-serif" font-size="13" lengthAdjust="spacing" textLength="129" x="774" y="276.6094">return cached chunk</text><line style="stroke:#000000;stroke-width:1.0;stroke-dasharray:2.0,2.0;" x1="693" x2="1024" y1="303.3516" y2="303.3516"/><text fill="#000000" font-family="sans-serif" font-size="11" font-weight="bold" lengthAdjust="spacing" textLength="114" x="698" y="313.9863">[chunk not in cache]</text><polygon fill="#181818" points="952,334.6172,962,338.6172,952,342.6172,956,338.6172" style="stroke:#181818;stroke-width:1.0;"/><line style="stroke:#181818;stroke-width:1.0;" x1="767" x2="958" y1="338.6172" y2="338.6172"/><text fill="#000000" font-family="sans-serif" font-size="13" lengthAdjust="spacing" textLength="127" x="774" y="333.875">loadChunk(chunkId)</text><polygon fill="#181818" points="778,363.9277,768,367.9277,778,371.9277,774,367.9277" style="stroke:#181818;stroke-width:1.0;"/><line style="stroke:#181818;stroke-width:1.0;stroke-dasharray:2.0,2.0;" x1="772" x2="968" y1="367.9277" y2="367.9277"/><text fill="#000000" font-family="sans-serif" font-size="13" lengthAdjust="spacing" textLength="68" x="784" y="363.1855">chunkData</text><line style="stroke:#181818;stroke-width:1.0;stroke-dasharray:2.0,2.0;" x1="767" x2="809" y1="397.2383" y2="397.2383"/><line style="stroke:#181818;stroke-width:1.0;stroke-dasharray:2.0,2.0;" x1="809" x2="809" y1="397.2383" y2="410.2383"/><line style="stroke:#181818;stroke-width:1.0;stroke-dasharray:2.0,2.0;" x1="768" x2="809" y1="410.2383" y2="410.2383"/><polygon fill="#181818" points="778,406.2383,768,410.2383,778,414.2383,774,410.2383" style="stroke:#181818;stroke-width:1.0;"/><text fill="#000000" font-family="sans-serif" font-size="13" lengthAdjust="spacing" textLength="127" x="774" y="392.4961">return loaded chunk</text><polygon fill="#181818" points="515,442.5488,505,446.5488,515,450.5488,511,446.5488" style="stroke:#181818;stroke-width:1.0;"/><line style="stroke:#181818;stroke-width:1.0;stroke-dasharray:2.0,2.0;" x1="509" x2="756" y1="446.5488" y2="446.5488"/><text fill="#000000" font-family="sans-serif" font-size="13" lengthAdjust="spacing" textLength="229" x="521" y="441.8066">{ content: [{ type: "text", text: "..." }] }</text><path d="M10,461.5488 L72,461.5488 L72,468.8594 L62,478.8594 L10,478.8594 L10,461.5488 " fill="#EEEEEE" style="stroke:#000000;stroke-width:1.5;"/><rect fill="none" height="90.8867" style="stroke:#000000;stroke-width:1.5;" width="544.5" x="10" y="461.5488"/><text fill="#000000" font-family="sans-serif" font-size="13" font-weight="bold" lengthAdjust="spacing" textLength="17" x="25" y="475.1172">alt</text><text fill="#000000" font-family="sans-serif" font-size="11" font-weight="bold" lengthAdjust="spacing" textLength="101" x="87" y="474.1836">[chunk not found]</text><polygon fill="#181818" points="71,496.1699,61,500.1699,71,504.1699,67,500.1699" style="stroke:#181818;stroke-width:1.0;"/><line style="stroke:#181818;stroke-width:1.0;stroke-dasharray:2.0,2.0;" x1="65" x2="493" y1="500.1699" y2="500.1699"/><text fill="#000000" font-family="sans-serif" font-size="13" lengthAdjust="spacing" textLength="410" x="77" y="495.4277">{ content: [{ type: "text", text: "Chunk not found." }], isError: true }</text><line style="stroke:#000000;stroke-width:1.0;stroke-dasharray:2.0,2.0;" x1="10" x2="554.5" y1="509.1699" y2="509.1699"/><text fill="#000000" font-family="sans-serif" font-size="11" font-weight="bold" lengthAdjust="spacing" textLength="79" x="15" y="519.8047">[chunk found]</text><polygon fill="#181818" points="71,540.4355,61,544.4355,71,548.4355,67,544.4355" style="stroke:#181818;stroke-width:1.0;"/><line style="stroke:#181818;stroke-width:1.0;stroke-dasharray:2.0,2.0;" x1="65" x2="493" y1="544.4355" y2="544.4355"/><text fill="#000000" font-family="sans-serif" font-size="13" lengthAdjust="spacing" textLength="229" x="77" y="539.6934">{ content: [{ type: "text", text: "..." }] }</text><!--SRC=[fLBBQiCm4BphAnQVKaZJky41apPGI23WtaefGjucQbGfIElG4FBlNVaLExqKUh4UEpipchLKv3magzNw8T-YfGHa03w9W_IabJv8Iv2i5nieq1_Hr_LcEuRaLffJq27MjC8QbnTZp58RXE8K2B_g-h8G8ijWY_IkTfNTGvO9reRxUIkHWfB6l3Xd9acFIgPmXdhtNAQGp6Qp12vtGYhIHqdOkMkMo9KNQTHOn9P9spZ0iykyw71gXseFx3fWkV7k4nK5Di7NGXfgPE73LRO4RTi2GEnl2JnIvTjAsU05ce1jgtLqspZd758mJfOt3W5wZvmKyATNgJ6FaYHVbpY6_JOJkQzcR2bQI1Son-aiyVHJU3q3dGx8kH9-4qSTbpxbDxWCOeXlgQDWqIvjPkK9_eboCIQf-QUWmvFtZasHhv3b1jdzG-jgFpv_a1WFVt1gVvqV]--></g></svg>