<svg xmlns="http://www.w3.org/2000/svg" xmlns:xlink="http://www.w3.org/1999/xlink" contentStyleType="text/css" height="1445px" preserveAspectRatio="none" style="width:1279px;height:1445px;background:#FFFFFF;" version="1.1" viewBox="0 0 1279 1445" width="1279px" zoomAndPan="magnify"><defs/><g><rect fill="#FFFFFF" height="884.3848" style="stroke:#181818;stroke-width:1.0;" width="10" x="355" y="112.7988"/><rect fill="#FFFFFF" height="319.75" style="stroke:#181818;stroke-width:1.0;" width="10" x="355" y="1026.4941"/><rect fill="#FFFFFF" height="1213.1348" style="stroke:#181818;stroke-width:1.0;" width="10" x="553" y="142.1094"/><rect fill="#FFFFFF" height="1175.8242" style="stroke:#181818;stroke-width:1.0;" width="10" x="558" y="179.4199"/><rect fill="#FFFFFF" height="402.7266" style="stroke:#181818;stroke-width:1.0;" width="10" x="563" y="565.1465"/><rect fill="#FFFFFF" height="261.1289" style="stroke:#181818;stroke-width:1.0;" width="10" x="563" y="1055.8047"/><rect fill="#FFFFFF" height="1058.582" style="stroke:#181818;stroke-width:1.0;" width="10" x="866" y="296.6621"/><rect fill="#FFFFFF" height="92.9316" style="stroke:#181818;stroke-width:1.0;" width="10" x="871" y="434.9043"/><rect fill="#FFFFFF" height="755.7871" style="stroke:#181818;stroke-width:1.0;" width="10" x="871" y="599.457"/><rect fill="#FFFFFF" height="92.9316" style="stroke:#181818;stroke-width:1.0;" width="10" x="876" y="737.6992"/><rect fill="#FFFFFF" height="29.3105" style="stroke:#181818;stroke-width:1.0;" width="10" x="1107" y="325.9727"/><rect fill="#FFFFFF" height="29.3105" style="stroke:#181818;stroke-width:1.0;" width="10" x="1107" y="628.7676"/><rect fill="#FFFFFF" height="29.3105" style="stroke:#181818;stroke-width:1.0;" width="10" x="1212.5" y="213.7305"/><rect fill="#FFFFFF" height="29.3105" style="stroke:#181818;stroke-width:1.0;" width="10" x="1212.5" y="469.2148"/><rect fill="#FFFFFF" height="29.3105" style="stroke:#181818;stroke-width:1.0;" width="10" x="1212.5" y="772.0098"/><rect fill="#FFFFFF" height="29.3105" style="stroke:#181818;stroke-width:1.0;" width="10" x="1212.5" y="859.9414"/><rect fill="#FFFFFF" height="29.3105" style="stroke:#181818;stroke-width:1.0;" width="10" x="1212.5" y="1209.002"/><rect fill="none" height="681.5215" style="stroke:#000000;stroke-width:1.5;" width="783.5" x="489" y="258.041"/><rect fill="none" height="175.5078" style="stroke:#000000;stroke-width:1.5;" width="783.5" x="489" y="1113.1152"/><line style="stroke:#181818;stroke-width:0.5;stroke-dasharray:5.0,5.0;" x1="45" x2="45" y1="81.4883" y2="1364.2441"/><line style="stroke:#181818;stroke-width:0.5;stroke-dasharray:5.0,5.0;" x1="360" x2="360" y1="81.4883" y2="1364.2441"/><line style="stroke:#181818;stroke-width:0.5;stroke-dasharray:5.0,5.0;" x1="558" x2="558" y1="81.4883" y2="1364.2441"/><line style="stroke:#181818;stroke-width:0.5;stroke-dasharray:5.0,5.0;" x1="871" x2="871" y1="81.4883" y2="1364.2441"/><line style="stroke:#181818;stroke-width:0.5;stroke-dasharray:5.0,5.0;" x1="1111.5" x2="1111.5" y1="81.4883" y2="1364.2441"/><line style="stroke:#181818;stroke-width:0.5;stroke-dasharray:5.0,5.0;" x1="1217.5" x2="1217.5" y1="81.4883" y2="1364.2441"/><text fill="#000000" font-family="sans-serif" font-size="14" lengthAdjust="spacing" textLength="74" x="5" y="78.5352">LLM/Agent</text><ellipse cx="45" cy="13.5" fill="#E2E2F0" rx="8" ry="8" style="stroke:#181818;stroke-width:0.5;"/><path d="M45,21.5 L45,48.5 M32,29.5 L58,29.5 M45,48.5 L32,63.5 M45,48.5 L58,63.5 " fill="none" style="stroke:#181818;stroke-width:0.5;"/><text fill="#000000" font-family="sans-serif" font-size="14" lengthAdjust="spacing" textLength="74" x="5" y="1376.7793">LLM/Agent</text><ellipse cx="45" cy="1388.2324" fill="#E2E2F0" rx="8" ry="8" style="stroke:#181818;stroke-width:0.5;"/><path d="M45,1396.2324 L45,1423.2324 M32,1404.2324 L58,1404.2324 M45,1423.2324 L32,1438.2324 M45,1423.2324 L58,1438.2324 " fill="none" style="stroke:#181818;stroke-width:0.5;"/><rect fill="#E2E2F0" height="30.4883" rx="2.5" ry="2.5" style="stroke:#181818;stroke-width:0.5;" width="160" x="280" y="50"/><text fill="#000000" font-family="sans-serif" font-size="14" lengthAdjust="spacing" textLength="146" x="287" y="70.5352">MCP Server (index.ts)</text><rect fill="#E2E2F0" height="30.4883" rx="2.5" ry="2.5" style="stroke:#181818;stroke-width:0.5;" width="160" x="280" y="1363.2441"/><text fill="#000000" font-family="sans-serif" font-size="14" lengthAdjust="spacing" textLength="146" x="287" y="1383.7793">MCP Server (index.ts)</text><rect fill="#E2E2F0" height="30.4883" rx="2.5" ry="2.5" style="stroke:#181818;stroke-width:0.5;" width="118" x="499" y="50"/><text fill="#000000" font-family="sans-serif" font-size="14" lengthAdjust="spacing" textLength="104" x="506" y="70.5352">AnalysisService</text><rect fill="#E2E2F0" height="30.4883" rx="2.5" ry="2.5" style="stroke:#181818;stroke-width:0.5;" width="118" x="499" y="1363.2441"/><text fill="#000000" font-family="sans-serif" font-size="14" lengthAdjust="spacing" textLength="104" x="506" y="1383.7793">AnalysisService</text><rect fill="#E2E2F0" height="30.4883" rx="2.5" ry="2.5" style="stroke:#181818;stroke-width:0.5;" width="90" x="826" y="50"/><text fill="#000000" font-family="sans-serif" font-size="14" lengthAdjust="spacing" textLength="76" x="833" y="70.5352">SwiftParser</text><rect fill="#E2E2F0" height="30.4883" rx="2.5" ry="2.5" style="stroke:#181818;stroke-width:0.5;" width="90" x="826" y="1363.2441"/><text fill="#000000" font-family="sans-serif" font-size="14" lengthAdjust="spacing" textLength="76" x="833" y="1383.7793">SwiftParser</text><rect fill="#E2E2F0" height="30.4883" rx="2.5" ry="2.5" style="stroke:#181818;stroke-width:0.5;" width="101" x="1061.5" y="50"/><text fill="#000000" font-family="sans-serif" font-size="14" lengthAdjust="spacing" textLength="87" x="1068.5" y="70.5352">SourceKitten</text><rect fill="#E2E2F0" height="30.4883" rx="2.5" ry="2.5" style="stroke:#181818;stroke-width:0.5;" width="101" x="1061.5" y="1363.2441"/><text fill="#000000" font-family="sans-serif" font-size="14" lengthAdjust="spacing" textLength="87" x="1068.5" y="1383.7793">SourceKitten</text><rect fill="#E2E2F0" height="30.4883" rx="2.5" ry="2.5" style="stroke:#181818;stroke-width:0.5;" width="90" x="1172.5" y="50"/><text fill="#000000" font-family="sans-serif" font-size="14" lengthAdjust="spacing" textLength="76" x="1179.5" y="70.5352">File System</text><rect fill="#E2E2F0" height="30.4883" rx="2.5" ry="2.5" style="stroke:#181818;stroke-width:0.5;" width="90" x="1172.5" y="1363.2441"/><text fill="#000000" font-family="sans-serif" font-size="14" lengthAdjust="spacing" textLength="76" x="1179.5" y="1383.7793">File System</text><rect fill="#FFFFFF" height="884.3848" style="stroke:#181818;stroke-width:1.0;" width="10" x="355" y="112.7988"/><rect fill="#FFFFFF" height="319.75" style="stroke:#181818;stroke-width:1.0;" width="10" x="355" y="1026.4941"/><rect fill="#FFFFFF" height="1213.1348" style="stroke:#181818;stroke-width:1.0;" width="10" x="553" y="142.1094"/><rect fill="#FFFFFF" height="1175.8242" style="stroke:#181818;stroke-width:1.0;" width="10" x="558" y="179.4199"/><rect fill="#FFFFFF" height="402.7266" style="stroke:#181818;stroke-width:1.0;" width="10" x="563" y="565.1465"/><rect fill="#FFFFFF" height="261.1289" style="stroke:#181818;stroke-width:1.0;" width="10" x="563" y="1055.8047"/><rect fill="#FFFFFF" height="1058.582" style="stroke:#181818;stroke-width:1.0;" width="10" x="866" y="296.6621"/><rect fill="#FFFFFF" height="92.9316" style="stroke:#181818;stroke-width:1.0;" width="10" x="871" y="434.9043"/><rect fill="#FFFFFF" height="755.7871" style="stroke:#181818;stroke-width:1.0;" width="10" x="871" y="599.457"/><rect fill="#FFFFFF" height="92.9316" style="stroke:#181818;stroke-width:1.0;" width="10" x="876" y="737.6992"/><rect fill="#FFFFFF" height="29.3105" style="stroke:#181818;stroke-width:1.0;" width="10" x="1107" y="325.9727"/><rect fill="#FFFFFF" height="29.3105" style="stroke:#181818;stroke-width:1.0;" width="10" x="1107" y="628.7676"/><rect fill="#FFFFFF" height="29.3105" style="stroke:#181818;stroke-width:1.0;" width="10" x="1212.5" y="213.7305"/><rect fill="#FFFFFF" height="29.3105" style="stroke:#181818;stroke-width:1.0;" width="10" x="1212.5" y="469.2148"/><rect fill="#FFFFFF" height="29.3105" style="stroke:#181818;stroke-width:1.0;" width="10" x="1212.5" y="772.0098"/><rect fill="#FFFFFF" height="29.3105" style="stroke:#181818;stroke-width:1.0;" width="10" x="1212.5" y="859.9414"/><rect fill="#FFFFFF" height="29.3105" style="stroke:#181818;stroke-width:1.0;" width="10" x="1212.5" y="1209.002"/><polygon fill="#181818" points="343,108.7988,353,112.7988,343,116.7988,347,112.7988" style="stroke:#181818;stroke-width:1.0;"/><line style="stroke:#181818;stroke-width:1.0;" x1="45" x2="349" y1="112.7988" y2="112.7988"/><text fill="#000000" font-family="sans-serif" font-size="13" lengthAdjust="spacing" textLength="291" x="52" y="108.0566">callTool("analyze_project", { projectPath: "..." })</text><polygon fill="#181818" points="541,138.1094,551,142.1094,541,146.1094,545,142.1094" style="stroke:#181818;stroke-width:1.0;"/><line style="stroke:#181818;stroke-width:1.0;" x1="365" x2="547" y1="142.1094" y2="142.1094"/><text fill="#000000" font-family="sans-serif" font-size="13" lengthAdjust="spacing" textLength="169" x="372" y="137.3672">analyzeProject(projectPath)</text><line style="stroke:#181818;stroke-width:1.0;" x1="563" x2="610" y1="166.4199" y2="166.4199"/><line style="stroke:#181818;stroke-width:1.0;" x1="610" x2="610" y1="166.4199" y2="179.4199"/><line style="stroke:#181818;stroke-width:1.0;" x1="569" x2="610" y1="179.4199" y2="179.4199"/><polygon fill="#181818" points="579,175.4199,569,179.4199,579,183.4199,575,179.4199" style="stroke:#181818;stroke-width:1.0;"/><text fill="#000000" font-family="sans-serif" font-size="13" lengthAdjust="spacing" textLength="159" x="575" y="161.6777">getSwiftFiles(projectPath)</text><polygon fill="#181818" points="1200.5,209.7305,1210.5,213.7305,1200.5,217.7305,1204.5,213.7305" style="stroke:#181818;stroke-width:1.0;"/><line style="stroke:#181818;stroke-width:1.0;" x1="568" x2="1206.5" y1="213.7305" y2="213.7305"/><text fill="#000000" font-family="sans-serif" font-size="13" lengthAdjust="spacing" textLength="164" x="575" y="208.9883">readDirectory(projectPath)</text><polygon fill="#181818" points="579,239.041,569,243.041,579,247.041,575,243.041" style="stroke:#181818;stroke-width:1.0;"/><line style="stroke:#181818;stroke-width:1.0;stroke-dasharray:2.0,2.0;" x1="573" x2="1216.5" y1="243.041" y2="243.041"/><text fill="#000000" font-family="sans-serif" font-size="13" lengthAdjust="spacing" textLength="60" x="585" y="238.2988">swiftFiles</text><path d="M489,258.041 L563,258.041 L563,265.3516 L553,275.3516 L489,275.3516 L489,258.041 " fill="#EEEEEE" style="stroke:#000000;stroke-width:1.5;"/><rect fill="none" height="681.5215" style="stroke:#000000;stroke-width:1.5;" width="783.5" x="489" y="258.041"/><text fill="#000000" font-family="sans-serif" font-size="13" font-weight="bold" lengthAdjust="spacing" textLength="29" x="504" y="271.6094">loop</text><text fill="#000000" font-family="sans-serif" font-size="11" font-weight="bold" lengthAdjust="spacing" textLength="106" x="578" y="270.6758">[for each swiftFile]</text><polygon fill="#181818" points="854,292.6621,864,296.6621,854,300.6621,858,296.6621" style="stroke:#181818;stroke-width:1.0;"/><line style="stroke:#181818;stroke-width:1.0;" x1="568" x2="860" y1="296.6621" y2="296.6621"/><text fill="#000000" font-family="sans-serif" font-size="13" lengthAdjust="spacing" textLength="117" x="575" y="291.9199">parseFile(swiftFile)</text><polygon fill="#181818" points="1095,321.9727,1105,325.9727,1095,329.9727,1099,325.9727" style="stroke:#181818;stroke-width:1.0;"/><line style="stroke:#181818;stroke-width:1.0;" x1="876" x2="1101" y1="325.9727" y2="325.9727"/><text fill="#000000" font-family="sans-serif" font-size="13" lengthAdjust="spacing" textLength="154" x="883" y="321.2305">structure --file swiftFile</text><polygon fill="#181818" points="887,351.2832,877,355.2832,887,359.2832,883,355.2832" style="stroke:#181818;stroke-width:1.0;"/><line style="stroke:#181818;stroke-width:1.0;stroke-dasharray:2.0,2.0;" x1="881" x2="1111" y1="355.2832" y2="355.2832"/><text fill="#000000" font-family="sans-serif" font-size="13" lengthAdjust="spacing" textLength="77" x="893" y="350.541">JSON output</text><line style="stroke:#181818;stroke-width:1.0;" x1="876" x2="918" y1="384.5938" y2="384.5938"/><line style="stroke:#181818;stroke-width:1.0;" x1="918" x2="918" y1="384.5938" y2="397.5938"/><line style="stroke:#181818;stroke-width:1.0;" x1="877" x2="918" y1="397.5938" y2="397.5938"/><polygon fill="#181818" points="887,393.5938,877,397.5938,887,401.5938,883,397.5938" style="stroke:#181818;stroke-width:1.0;"/><text fill="#000000" font-family="sans-serif" font-size="13" lengthAdjust="spacing" textLength="197" x="883" y="379.8516">extract functions and metadata</text><line style="stroke:#181818;stroke-width:1.0;" x1="876" x2="923" y1="421.9043" y2="421.9043"/><line style="stroke:#181818;stroke-width:1.0;" x1="923" x2="923" y1="421.9043" y2="434.9043"/><line style="stroke:#181818;stroke-width:1.0;" x1="882" x2="923" y1="434.9043" y2="434.9043"/><polygon fill="#181818" points="892,430.9043,882,434.9043,892,438.9043,888,434.9043" style="stroke:#181818;stroke-width:1.0;"/><text fill="#000000" font-family="sans-serif" font-size="13" lengthAdjust="spacing" textLength="196" x="888" y="417.1621">getLineNumber(filePath, offset)</text><polygon fill="#181818" points="1200.5,465.2148,1210.5,469.2148,1200.5,473.2148,1204.5,469.2148" style="stroke:#181818;stroke-width:1.0;"/><line style="stroke:#181818;stroke-width:1.0;" x1="881" x2="1206.5" y1="469.2148" y2="469.2148"/><text fill="#000000" font-family="sans-serif" font-size="13" lengthAdjust="spacing" textLength="104" x="888" y="464.4727">readFile(filePath)</text><polygon fill="#181818" points="892,494.5254,882,498.5254,892,502.5254,888,498.5254" style="stroke:#181818;stroke-width:1.0;"/><line style="stroke:#181818;stroke-width:1.0;stroke-dasharray:2.0,2.0;" x1="886" x2="1216.5" y1="498.5254" y2="498.5254"/><text fill="#000000" font-family="sans-serif" font-size="13" lengthAdjust="spacing" textLength="70" x="898" y="493.7832">fileContent</text><polygon fill="#181818" points="579,523.8359,569,527.8359,579,531.8359,575,527.8359" style="stroke:#181818;stroke-width:1.0;"/><line style="stroke:#181818;stroke-width:1.0;stroke-dasharray:2.0,2.0;" x1="573" x2="865" y1="527.8359" y2="527.8359"/><text fill="#000000" font-family="sans-serif" font-size="13" lengthAdjust="spacing" textLength="81" x="585" y="523.0938">CodeChunk[]</text><line style="stroke:#181818;stroke-width:1.0;" x1="568" x2="615" y1="552.1465" y2="552.1465"/><line style="stroke:#181818;stroke-width:1.0;" x1="615" x2="615" y1="552.1465" y2="565.1465"/><line style="stroke:#181818;stroke-width:1.0;" x1="574" x2="615" y1="565.1465" y2="565.1465"/><polygon fill="#181818" points="584,561.1465,574,565.1465,584,569.1465,580,565.1465" style="stroke:#181818;stroke-width:1.0;"/><text fill="#000000" font-family="sans-serif" font-size="13" lengthAdjust="spacing" textLength="253" x="580" y="547.4043">getFunctionContent(swiftFile, signature)</text><polygon fill="#181818" points="859,595.457,869,599.457,859,603.457,863,599.457" style="stroke:#181818;stroke-width:1.0;"/><line style="stroke:#181818;stroke-width:1.0;" x1="573" x2="865" y1="599.457" y2="599.457"/><text fill="#000000" font-family="sans-serif" font-size="13" lengthAdjust="spacing" textLength="269" x="580" y="594.7148">parseFile(swiftFile) (re-parse if not cached)</text><polygon fill="#181818" points="1095,624.7676,1105,628.7676,1095,632.7676,1099,628.7676" style="stroke:#181818;stroke-width:1.0;"/><line style="stroke:#181818;stroke-width:1.0;" x1="881" x2="1101" y1="628.7676" y2="628.7676"/><text fill="#000000" font-family="sans-serif" font-size="13" lengthAdjust="spacing" textLength="154" x="888" y="624.0254">structure --file swiftFile</text><polygon fill="#181818" points="892,654.0781,882,658.0781,892,662.0781,888,658.0781" style="stroke:#181818;stroke-width:1.0;"/><line style="stroke:#181818;stroke-width:1.0;stroke-dasharray:2.0,2.0;" x1="886" x2="1111" y1="658.0781" y2="658.0781"/><text fill="#000000" font-family="sans-serif" font-size="13" lengthAdjust="spacing" textLength="77" x="898" y="653.3359">JSON output</text><line style="stroke:#181818;stroke-width:1.0;" x1="881" x2="923" y1="687.3887" y2="687.3887"/><line style="stroke:#181818;stroke-width:1.0;" x1="923" x2="923" y1="687.3887" y2="700.3887"/><line style="stroke:#181818;stroke-width:1.0;" x1="882" x2="923" y1="700.3887" y2="700.3887"/><polygon fill="#181818" points="892,696.3887,882,700.3887,892,704.3887,888,700.3887" style="stroke:#181818;stroke-width:1.0;"/><text fill="#000000" font-family="sans-serif" font-size="13" lengthAdjust="spacing" textLength="197" x="888" y="682.6465">extract functions and metadata</text><line style="stroke:#181818;stroke-width:1.0;" x1="881" x2="928" y1="724.6992" y2="724.6992"/><line style="stroke:#181818;stroke-width:1.0;" x1="928" x2="928" y1="724.6992" y2="737.6992"/><line style="stroke:#181818;stroke-width:1.0;" x1="887" x2="928" y1="737.6992" y2="737.6992"/><polygon fill="#181818" points="897,733.6992,887,737.6992,897,741.6992,893,737.6992" style="stroke:#181818;stroke-width:1.0;"/><text fill="#000000" font-family="sans-serif" font-size="13" lengthAdjust="spacing" textLength="196" x="893" y="719.957">getLineNumber(filePath, offset)</text><polygon fill="#181818" points="1200.5,768.0098,1210.5,772.0098,1200.5,776.0098,1204.5,772.0098" style="stroke:#181818;stroke-width:1.0;"/><line style="stroke:#181818;stroke-width:1.0;" x1="886" x2="1206.5" y1="772.0098" y2="772.0098"/><text fill="#000000" font-family="sans-serif" font-size="13" lengthAdjust="spacing" textLength="104" x="893" y="767.2676">readFile(filePath)</text><polygon fill="#181818" points="897,797.3203,887,801.3203,897,805.3203,893,801.3203" style="stroke:#181818;stroke-width:1.0;"/><line style="stroke:#181818;stroke-width:1.0;stroke-dasharray:2.0,2.0;" x1="891" x2="1216.5" y1="801.3203" y2="801.3203"/><text fill="#000000" font-family="sans-serif" font-size="13" lengthAdjust="spacing" textLength="70" x="903" y="796.5781">fileContent</text><polygon fill="#181818" points="584,826.6309,574,830.6309,584,834.6309,580,830.6309" style="stroke:#181818;stroke-width:1.0;"/><line style="stroke:#181818;stroke-width:1.0;stroke-dasharray:2.0,2.0;" x1="578" x2="870" y1="830.6309" y2="830.6309"/><text fill="#000000" font-family="sans-serif" font-size="13" lengthAdjust="spacing" textLength="103" x="590" y="825.8887">functionContent</text><polygon fill="#181818" points="1200.5,855.9414,1210.5,859.9414,1200.5,863.9414,1204.5,859.9414" style="stroke:#181818;stroke-width:1.0;"/><line style="stroke:#181818;stroke-width:1.0;" x1="573" x2="1206.5" y1="859.9414" y2="859.9414"/><text fill="#000000" font-family="sans-serif" font-size="13" lengthAdjust="spacing" textLength="150" x="580" y="855.1992">saveChunk(CodeChunk)</text><polygon fill="#181818" points="584,885.252,574,889.252,584,893.252,580,889.252" style="stroke:#181818;stroke-width:1.0;"/><line style="stroke:#181818;stroke-width:1.0;stroke-dasharray:2.0,2.0;" x1="578" x2="1216.5" y1="889.252" y2="889.252"/><text fill="#000000" font-family="sans-serif" font-size="13" lengthAdjust="spacing" textLength="36" x="590" y="884.5098">saved</text><line style="stroke:#181818;stroke-width:1.0;" x1="573" x2="615" y1="918.5625" y2="918.5625"/><line style="stroke:#181818;stroke-width:1.0;" x1="615" x2="615" y1="918.5625" y2="931.5625"/><line style="stroke:#181818;stroke-width:1.0;" x1="574" x2="615" y1="931.5625" y2="931.5625"/><polygon fill="#181818" points="584,927.5625,574,931.5625,584,935.5625,580,931.5625" style="stroke:#181818;stroke-width:1.0;"/><text fill="#000000" font-family="sans-serif" font-size="13" lengthAdjust="spacing" textLength="176" x="580" y="913.8203">add to parsedProjects cache</text><polygon fill="#181818" points="376,963.873,366,967.873,376,971.873,372,967.873" style="stroke:#181818;stroke-width:1.0;"/><line style="stroke:#181818;stroke-width:1.0;stroke-dasharray:2.0,2.0;" x1="370" x2="557" y1="967.873" y2="967.873"/><text fill="#000000" font-family="sans-serif" font-size="13" lengthAdjust="spacing" textLength="121" x="382" y="963.1309">analysis completed</text><polygon fill="#181818" points="56,993.1836,46,997.1836,56,1001.1836,52,997.1836" style="stroke:#181818;stroke-width:1.0;"/><line style="stroke:#181818;stroke-width:1.0;stroke-dasharray:2.0,2.0;" x1="50" x2="359" y1="997.1836" y2="997.1836"/><text fill="#000000" font-family="sans-serif" font-size="13" lengthAdjust="spacing" textLength="216" x="62" y="992.4414">{ status: "success", message: "..." }</text><polygon fill="#181818" points="343,1022.4941,353,1026.4941,343,1030.4941,347,1026.4941" style="stroke:#181818;stroke-width:1.0;"/><line style="stroke:#181818;stroke-width:1.0;" x1="45" x2="349" y1="1026.4941" y2="1026.4941"/><text fill="#000000" font-family="sans-serif" font-size="13" lengthAdjust="spacing" textLength="239" x="52" y="1021.752">callTool("get_chunk", { chunkId: "..." })</text><polygon fill="#181818" points="551,1051.8047,561,1055.8047,551,1059.8047,555,1055.8047" style="stroke:#181818;stroke-width:1.0;"/><line style="stroke:#181818;stroke-width:1.0;" x1="365" x2="557" y1="1055.8047" y2="1055.8047"/><text fill="#000000" font-family="sans-serif" font-size="13" lengthAdjust="spacing" textLength="120" x="372" y="1051.0625">getChunk(chunkId)</text><line style="stroke:#181818;stroke-width:1.0;" x1="573" x2="615" y1="1085.1152" y2="1085.1152"/><line style="stroke:#181818;stroke-width:1.0;" x1="615" x2="615" y1="1085.1152" y2="1098.1152"/><line style="stroke:#181818;stroke-width:1.0;" x1="574" x2="615" y1="1098.1152" y2="1098.1152"/><polygon fill="#181818" points="584,1094.1152,574,1098.1152,584,1102.1152,580,1098.1152" style="stroke:#181818;stroke-width:1.0;"/><text fill="#000000" font-family="sans-serif" font-size="13" lengthAdjust="spacing" textLength="173" x="580" y="1080.373">check parsedProjects cache</text><path d="M489,1113.1152 L551,1113.1152 L551,1120.4258 L541,1130.4258 L489,1130.4258 L489,1113.1152 " fill="#EEEEEE" style="stroke:#000000;stroke-width:1.5;"/><rect fill="none" height="175.5078" style="stroke:#000000;stroke-width:1.5;" width="783.5" x="489" y="1113.1152"/><text fill="#000000" font-family="sans-serif" font-size="13" font-weight="bold" lengthAdjust="spacing" textLength="17" x="504" y="1126.6836">alt</text><text fill="#000000" font-family="sans-serif" font-size="11" font-weight="bold" lengthAdjust="spacing" textLength="129" x="566" y="1125.75">[chunk found in cache]</text><line style="stroke:#181818;stroke-width:1.0;stroke-dasharray:2.0,2.0;" x1="573" x2="615" y1="1151.7363" y2="1151.7363"/><line style="stroke:#181818;stroke-width:1.0;stroke-dasharray:2.0,2.0;" x1="615" x2="615" y1="1151.7363" y2="1164.7363"/><line style="stroke:#181818;stroke-width:1.0;stroke-dasharray:2.0,2.0;" x1="574" x2="615" y1="1164.7363" y2="1164.7363"/><polygon fill="#181818" points="584,1160.7363,574,1164.7363,584,1168.7363,580,1164.7363" style="stroke:#181818;stroke-width:1.0;"/><text fill="#000000" font-family="sans-serif" font-size="13" lengthAdjust="spacing" textLength="129" x="580" y="1146.9941">return cached chunk</text><line style="stroke:#000000;stroke-width:1.0;stroke-dasharray:2.0,2.0;" x1="489" x2="1272.5" y1="1173.7363" y2="1173.7363"/><text fill="#000000" font-family="sans-serif" font-size="11" font-weight="bold" lengthAdjust="spacing" textLength="114" x="494" y="1184.3711">[chunk not in cache]</text><polygon fill="#181818" points="1200.5,1205.002,1210.5,1209.002,1200.5,1213.002,1204.5,1209.002" style="stroke:#181818;stroke-width:1.0;"/><line style="stroke:#181818;stroke-width:1.0;" x1="573" x2="1206.5" y1="1209.002" y2="1209.002"/><text fill="#000000" font-family="sans-serif" font-size="13" lengthAdjust="spacing" textLength="127" x="580" y="1204.2598">loadChunk(chunkId)</text><polygon fill="#181818" points="584,1234.3125,574,1238.3125,584,1242.3125,580,1238.3125" style="stroke:#181818;stroke-width:1.0;"/><line style="stroke:#181818;stroke-width:1.0;stroke-dasharray:2.0,2.0;" x1="578" x2="1216.5" y1="1238.3125" y2="1238.3125"/><text fill="#000000" font-family="sans-serif" font-size="13" lengthAdjust="spacing" textLength="68" x="590" y="1233.5703">chunkData</text><line style="stroke:#181818;stroke-width:1.0;stroke-dasharray:2.0,2.0;" x1="573" x2="615" y1="1267.623" y2="1267.623"/><line style="stroke:#181818;stroke-width:1.0;stroke-dasharray:2.0,2.0;" x1="615" x2="615" y1="1267.623" y2="1280.623"/><line style="stroke:#181818;stroke-width:1.0;stroke-dasharray:2.0,2.0;" x1="574" x2="615" y1="1280.623" y2="1280.623"/><polygon fill="#181818" points="584,1276.623,574,1280.623,584,1284.623,580,1280.623" style="stroke:#181818;stroke-width:1.0;"/><text fill="#000000" font-family="sans-serif" font-size="13" lengthAdjust="spacing" textLength="127" x="580" y="1262.8809">return loaded chunk</text><polygon fill="#181818" points="376,1312.9336,366,1316.9336,376,1320.9336,372,1316.9336" style="stroke:#181818;stroke-width:1.0;"/><line style="stroke:#181818;stroke-width:1.0;stroke-dasharray:2.0,2.0;" x1="370" x2="557" y1="1316.9336" y2="1316.9336"/><text fill="#000000" font-family="sans-serif" font-size="13" lengthAdjust="spacing" textLength="94" x="382" y="1312.1914">{ content: "..." }</text><polygon fill="#181818" points="56,1342.2441,46,1346.2441,56,1350.2441,52,1346.2441" style="stroke:#181818;stroke-width:1.0;"/><line style="stroke:#181818;stroke-width:1.0;stroke-dasharray:2.0,2.0;" x1="50" x2="359" y1="1346.2441" y2="1346.2441"/><text fill="#000000" font-family="sans-serif" font-size="13" lengthAdjust="spacing" textLength="200" x="62" y="1341.502">{ status: "success", chunk: "..." }</text><!--SRC=[xLJBRjim4BphAnOwAK3Ytdqe83Wmq3f91QYteWXOScMpaKc1NAL9Y_vxbo9jIwwT13ttP5axiwzPZP1a7UGtDxVloZKQoa5uu7zP9nnfgJjX2FBRHGKrkaTqK6YZy6b6_cA0nhTJT6b4- -or3p4jSS2LzHHJ_z0DLS9vT35FTHItlPEuqaHe8c0r1InrYr0_UyBj45_MMSPzmzNxrDCSf6ZRpzQsHIv2Hp_nldFsEqhAB-4NfETAq6OE-Mmso-7tHIOawKT1k1iiJSrPoteEAKyLgSKenOZ9evRrZh566aODxVhN24icE1JgMZiCkZoV8V2iIoQa4dwVFrCunhJMTj2mlFnsSu1b0B5SNSsX2nA4jyK-Vi60mneg_bTN0tp5jSZradg7NBq92eop7aYhG5eD7OOY7-jFTs1xwdhYmAZ92AnspU0JEOv1qnj6MEDvuGgsI4894XCex_L66xphjz_G5Q6LiADBi4tZaSwDi5lmCF2ED07psW3ISaET05fOmrTurFe035cJ2WkhSB7fpSENhqSpLlk5fuDOfl5ItiFcBy7hjH5XlvEcolfLpQ1mU3K4G3TWBF7romsg_sB-YvZDLA6pWeOMl7YCmXVx4pZRH9dmwaJvmua8fO1ib5abh_5HpmoD6inYP7CYsIr8k-rQ9Cu-oisti_Cmvh13pjdxFF6HUROztqk9thCXRlb7h75lXUCSoGlF-oiBU2_3v8Ep3ayVr9jTbTbnWObupajvVlbmUYsYfLYM_QxdCzCc1U9UKmA7VEqfeY8-mvO_cKWDNyqHCKhSMg6EEdn1u05p7M_ybCZJPaBkGpD_gylhZ4TuKfctgZkaVqdRFm00]--></g></svg>