<svg xmlns="http://www.w3.org/2000/svg" xmlns:xlink="http://www.w3.org/1999/xlink" contentStyleType="text/css" height="1142px" preserveAspectRatio="none" style="width:1176px;height:1142px;background:#FFFFFF;" version="1.1" viewBox="0 0 1176 1142" width="1176px" zoomAndPan="magnify"><defs/><g><rect fill="#FFFFFF" height="581.5898" style="stroke:#181818;stroke-width:1.0;" width="10" x="355" y="112.7988"/><rect fill="#FFFFFF" height="319.75" style="stroke:#181818;stroke-width:1.0;" width="10" x="355" y="723.6992"/><rect fill="#FFFFFF" height="910.3398" style="stroke:#181818;stroke-width:1.0;" width="10" x="553" y="142.1094"/><rect fill="#FFFFFF" height="485.6582" style="stroke:#181818;stroke-width:1.0;" width="10" x="558" y="179.4199"/><rect fill="#FFFFFF" height="261.1289" style="stroke:#181818;stroke-width:1.0;" width="10" x="558" y="753.0098"/><rect fill="#FFFFFF" height="755.7871" style="stroke:#181818;stroke-width:1.0;" width="10" x="773" y="296.6621"/><rect fill="#FFFFFF" height="92.9316" style="stroke:#181818;stroke-width:1.0;" width="10" x="778" y="434.9043"/><rect fill="#FFFFFF" height="29.3105" style="stroke:#181818;stroke-width:1.0;" width="10" x="1004" y="325.9727"/><rect fill="#FFFFFF" height="29.3105" style="stroke:#181818;stroke-width:1.0;" width="10" x="1109.5" y="213.7305"/><rect fill="#FFFFFF" height="29.3105" style="stroke:#181818;stroke-width:1.0;" width="10" x="1109.5" y="469.2148"/><rect fill="#FFFFFF" height="29.3105" style="stroke:#181818;stroke-width:1.0;" width="10" x="1109.5" y="557.1465"/><rect fill="#FFFFFF" height="29.3105" style="stroke:#181818;stroke-width:1.0;" width="10" x="1109.5" y="906.207"/><rect fill="none" height="378.7266" style="stroke:#000000;stroke-width:1.5;" width="680.5" x="489" y="258.041"/><rect fill="none" height="175.5078" style="stroke:#000000;stroke-width:1.5;" width="680.5" x="489" y="810.3203"/><line style="stroke:#181818;stroke-width:0.5;stroke-dasharray:5.0,5.0;" x1="45" x2="45" y1="81.4883" y2="1061.4492"/><line style="stroke:#181818;stroke-width:0.5;stroke-dasharray:5.0,5.0;" x1="360" x2="360" y1="81.4883" y2="1061.4492"/><line style="stroke:#181818;stroke-width:0.5;stroke-dasharray:5.0,5.0;" x1="558" x2="558" y1="81.4883" y2="1061.4492"/><line style="stroke:#181818;stroke-width:0.5;stroke-dasharray:5.0,5.0;" x1="778" x2="778" y1="81.4883" y2="1061.4492"/><line style="stroke:#181818;stroke-width:0.5;stroke-dasharray:5.0,5.0;" x1="1008.5" x2="1008.5" y1="81.4883" y2="1061.4492"/><line style="stroke:#181818;stroke-width:0.5;stroke-dasharray:5.0,5.0;" x1="1114.5" x2="1114.5" y1="81.4883" y2="1061.4492"/><text fill="#000000" font-family="sans-serif" font-size="14" lengthAdjust="spacing" textLength="74" x="5" y="78.5352">LLM/Agent</text><ellipse cx="45" cy="13.5" fill="#E2E2F0" rx="8" ry="8" style="stroke:#181818;stroke-width:0.5;"/><path d="M45,21.5 L45,48.5 M32,29.5 L58,29.5 M45,48.5 L32,63.5 M45,48.5 L58,63.5 " fill="none" style="stroke:#181818;stroke-width:0.5;"/><text fill="#000000" font-family="sans-serif" font-size="14" lengthAdjust="spacing" textLength="74" x="5" y="1073.9844">LLM/Agent</text><ellipse cx="45" cy="1085.4375" fill="#E2E2F0" rx="8" ry="8" style="stroke:#181818;stroke-width:0.5;"/><path d="M45,1093.4375 L45,1120.4375 M32,1101.4375 L58,1101.4375 M45,1120.4375 L32,1135.4375 M45,1120.4375 L58,1135.4375 " fill="none" style="stroke:#181818;stroke-width:0.5;"/><rect fill="#E2E2F0" height="30.4883" rx="2.5" ry="2.5" style="stroke:#181818;stroke-width:0.5;" width="160" x="280" y="50"/><text fill="#000000" font-family="sans-serif" font-size="14" lengthAdjust="spacing" textLength="146" x="287" y="70.5352">MCP Server (index.ts)</text><rect fill="#E2E2F0" height="30.4883" rx="2.5" ry="2.5" style="stroke:#181818;stroke-width:0.5;" width="160" x="280" y="1060.4492"/><text fill="#000000" font-family="sans-serif" font-size="14" lengthAdjust="spacing" textLength="146" x="287" y="1080.9844">MCP Server (index.ts)</text><rect fill="#E2E2F0" height="30.4883" rx="2.5" ry="2.5" style="stroke:#181818;stroke-width:0.5;" width="118" x="499" y="50"/><text fill="#000000" font-family="sans-serif" font-size="14" lengthAdjust="spacing" textLength="104" x="506" y="70.5352">AnalysisService</text><rect fill="#E2E2F0" height="30.4883" rx="2.5" ry="2.5" style="stroke:#181818;stroke-width:0.5;" width="118" x="499" y="1060.4492"/><text fill="#000000" font-family="sans-serif" font-size="14" lengthAdjust="spacing" textLength="104" x="506" y="1080.9844">AnalysisService</text><rect fill="#E2E2F0" height="30.4883" rx="2.5" ry="2.5" style="stroke:#181818;stroke-width:0.5;" width="90" x="733" y="50"/><text fill="#000000" font-family="sans-serif" font-size="14" lengthAdjust="spacing" textLength="76" x="740" y="70.5352">SwiftParser</text><rect fill="#E2E2F0" height="30.4883" rx="2.5" ry="2.5" style="stroke:#181818;stroke-width:0.5;" width="90" x="733" y="1060.4492"/><text fill="#000000" font-family="sans-serif" font-size="14" lengthAdjust="spacing" textLength="76" x="740" y="1080.9844">SwiftParser</text><rect fill="#E2E2F0" height="30.4883" rx="2.5" ry="2.5" style="stroke:#181818;stroke-width:0.5;" width="101" x="958.5" y="50"/><text fill="#000000" font-family="sans-serif" font-size="14" lengthAdjust="spacing" textLength="87" x="965.5" y="70.5352">SourceKitten</text><rect fill="#E2E2F0" height="30.4883" rx="2.5" ry="2.5" style="stroke:#181818;stroke-width:0.5;" width="101" x="958.5" y="1060.4492"/><text fill="#000000" font-family="sans-serif" font-size="14" lengthAdjust="spacing" textLength="87" x="965.5" y="1080.9844">SourceKitten</text><rect fill="#E2E2F0" height="30.4883" rx="2.5" ry="2.5" style="stroke:#181818;stroke-width:0.5;" width="90" x="1069.5" y="50"/><text fill="#000000" font-family="sans-serif" font-size="14" lengthAdjust="spacing" textLength="76" x="1076.5" y="70.5352">File System</text><rect fill="#E2E2F0" height="30.4883" rx="2.5" ry="2.5" style="stroke:#181818;stroke-width:0.5;" width="90" x="1069.5" y="1060.4492"/><text fill="#000000" font-family="sans-serif" font-size="14" lengthAdjust="spacing" textLength="76" x="1076.5" y="1080.9844">File System</text><rect fill="#FFFFFF" height="581.5898" style="stroke:#181818;stroke-width:1.0;" width="10" x="355" y="112.7988"/><rect fill="#FFFFFF" height="319.75" style="stroke:#181818;stroke-width:1.0;" width="10" x="355" y="723.6992"/><rect fill="#FFFFFF" height="910.3398" style="stroke:#181818;stroke-width:1.0;" width="10" x="553" y="142.1094"/><rect fill="#FFFFFF" height="485.6582" style="stroke:#181818;stroke-width:1.0;" width="10" x="558" y="179.4199"/><rect fill="#FFFFFF" height="261.1289" style="stroke:#181818;stroke-width:1.0;" width="10" x="558" y="753.0098"/><rect fill="#FFFFFF" height="755.7871" style="stroke:#181818;stroke-width:1.0;" width="10" x="773" y="296.6621"/><rect fill="#FFFFFF" height="92.9316" style="stroke:#181818;stroke-width:1.0;" width="10" x="778" y="434.9043"/><rect fill="#FFFFFF" height="29.3105" style="stroke:#181818;stroke-width:1.0;" width="10" x="1004" y="325.9727"/><rect fill="#FFFFFF" height="29.3105" style="stroke:#181818;stroke-width:1.0;" width="10" x="1109.5" y="213.7305"/><rect fill="#FFFFFF" height="29.3105" style="stroke:#181818;stroke-width:1.0;" width="10" x="1109.5" y="469.2148"/><rect fill="#FFFFFF" height="29.3105" style="stroke:#181818;stroke-width:1.0;" width="10" x="1109.5" y="557.1465"/><rect fill="#FFFFFF" height="29.3105" style="stroke:#181818;stroke-width:1.0;" width="10" x="1109.5" y="906.207"/><polygon fill="#181818" points="343,108.7988,353,112.7988,343,116.7988,347,112.7988" style="stroke:#181818;stroke-width:1.0;"/><line style="stroke:#181818;stroke-width:1.0;" x1="45" x2="349" y1="112.7988" y2="112.7988"/><text fill="#000000" font-family="sans-serif" font-size="13" lengthAdjust="spacing" textLength="291" x="52" y="108.0566">callTool("analyze_project", { projectPath: "..." })</text><polygon fill="#181818" points="541,138.1094,551,142.1094,541,146.1094,545,142.1094" style="stroke:#181818;stroke-width:1.0;"/><line style="stroke:#181818;stroke-width:1.0;" x1="365" x2="547" y1="142.1094" y2="142.1094"/><text fill="#000000" font-family="sans-serif" font-size="13" lengthAdjust="spacing" textLength="169" x="372" y="137.3672">analyzeProject(projectPath)</text><line style="stroke:#181818;stroke-width:1.0;" x1="563" x2="610" y1="166.4199" y2="166.4199"/><line style="stroke:#181818;stroke-width:1.0;" x1="610" x2="610" y1="166.4199" y2="179.4199"/><line style="stroke:#181818;stroke-width:1.0;" x1="569" x2="610" y1="179.4199" y2="179.4199"/><polygon fill="#181818" points="579,175.4199,569,179.4199,579,183.4199,575,179.4199" style="stroke:#181818;stroke-width:1.0;"/><text fill="#000000" font-family="sans-serif" font-size="13" lengthAdjust="spacing" textLength="159" x="575" y="161.6777">getSwiftFiles(projectPath)</text><polygon fill="#181818" points="1097.5,209.7305,1107.5,213.7305,1097.5,217.7305,1101.5,213.7305" style="stroke:#181818;stroke-width:1.0;"/><line style="stroke:#181818;stroke-width:1.0;" x1="568" x2="1103.5" y1="213.7305" y2="213.7305"/><text fill="#000000" font-family="sans-serif" font-size="13" lengthAdjust="spacing" textLength="164" x="575" y="208.9883">readDirectory(projectPath)</text><polygon fill="#181818" points="579,239.041,569,243.041,579,247.041,575,243.041" style="stroke:#181818;stroke-width:1.0;"/><line style="stroke:#181818;stroke-width:1.0;stroke-dasharray:2.0,2.0;" x1="573" x2="1113.5" y1="243.041" y2="243.041"/><text fill="#000000" font-family="sans-serif" font-size="13" lengthAdjust="spacing" textLength="60" x="585" y="238.2988">swiftFiles</text><path d="M489,258.041 L563,258.041 L563,265.3516 L553,275.3516 L489,275.3516 L489,258.041 " fill="#EEEEEE" style="stroke:#000000;stroke-width:1.5;"/><rect fill="none" height="378.7266" style="stroke:#000000;stroke-width:1.5;" width="680.5" x="489" y="258.041"/><text fill="#000000" font-family="sans-serif" font-size="13" font-weight="bold" lengthAdjust="spacing" textLength="29" x="504" y="271.6094">loop</text><text fill="#000000" font-family="sans-serif" font-size="11" font-weight="bold" lengthAdjust="spacing" textLength="106" x="578" y="270.6758">[for each swiftFile]</text><polygon fill="#181818" points="761,292.6621,771,296.6621,761,300.6621,765,296.6621" style="stroke:#181818;stroke-width:1.0;"/><line style="stroke:#181818;stroke-width:1.0;" x1="568" x2="767" y1="296.6621" y2="296.6621"/><text fill="#000000" font-family="sans-serif" font-size="13" lengthAdjust="spacing" textLength="117" x="575" y="291.9199">parseFile(swiftFile)</text><polygon fill="#181818" points="992,321.9727,1002,325.9727,992,329.9727,996,325.9727" style="stroke:#181818;stroke-width:1.0;"/><line style="stroke:#181818;stroke-width:1.0;" x1="783" x2="998" y1="325.9727" y2="325.9727"/><text fill="#000000" font-family="sans-serif" font-size="13" lengthAdjust="spacing" textLength="154" x="790" y="321.2305">structure --file swiftFile</text><polygon fill="#181818" points="794,351.2832,784,355.2832,794,359.2832,790,355.2832" style="stroke:#181818;stroke-width:1.0;"/><line style="stroke:#181818;stroke-width:1.0;stroke-dasharray:2.0,2.0;" x1="788" x2="1008" y1="355.2832" y2="355.2832"/><text fill="#000000" font-family="sans-serif" font-size="13" lengthAdjust="spacing" textLength="77" x="800" y="350.541">JSON output</text><line style="stroke:#181818;stroke-width:1.0;" x1="783" x2="825" y1="384.5938" y2="384.5938"/><line style="stroke:#181818;stroke-width:1.0;" x1="825" x2="825" y1="384.5938" y2="397.5938"/><line style="stroke:#181818;stroke-width:1.0;" x1="784" x2="825" y1="397.5938" y2="397.5938"/><polygon fill="#181818" points="794,393.5938,784,397.5938,794,401.5938,790,397.5938" style="stroke:#181818;stroke-width:1.0;"/><text fill="#000000" font-family="sans-serif" font-size="13" lengthAdjust="spacing" textLength="197" x="790" y="379.8516">extract functions and metadata</text><line style="stroke:#181818;stroke-width:1.0;" x1="783" x2="830" y1="421.9043" y2="421.9043"/><line style="stroke:#181818;stroke-width:1.0;" x1="830" x2="830" y1="421.9043" y2="434.9043"/><line style="stroke:#181818;stroke-width:1.0;" x1="789" x2="830" y1="434.9043" y2="434.9043"/><polygon fill="#181818" points="799,430.9043,789,434.9043,799,438.9043,795,434.9043" style="stroke:#181818;stroke-width:1.0;"/><text fill="#000000" font-family="sans-serif" font-size="13" lengthAdjust="spacing" textLength="196" x="795" y="417.1621">getLineNumber(filePath, offset)</text><polygon fill="#181818" points="1097.5,465.2148,1107.5,469.2148,1097.5,473.2148,1101.5,469.2148" style="stroke:#181818;stroke-width:1.0;"/><line style="stroke:#181818;stroke-width:1.0;" x1="788" x2="1103.5" y1="469.2148" y2="469.2148"/><text fill="#000000" font-family="sans-serif" font-size="13" lengthAdjust="spacing" textLength="104" x="795" y="464.4727">readFile(filePath)</text><polygon fill="#181818" points="799,494.5254,789,498.5254,799,502.5254,795,498.5254" style="stroke:#181818;stroke-width:1.0;"/><line style="stroke:#181818;stroke-width:1.0;stroke-dasharray:2.0,2.0;" x1="793" x2="1113.5" y1="498.5254" y2="498.5254"/><text fill="#000000" font-family="sans-serif" font-size="13" lengthAdjust="spacing" textLength="70" x="805" y="493.7832">fileContent</text><polygon fill="#181818" points="579,523.8359,569,527.8359,579,531.8359,575,527.8359" style="stroke:#181818;stroke-width:1.0;"/><line style="stroke:#181818;stroke-width:1.0;stroke-dasharray:2.0,2.0;" x1="573" x2="772" y1="527.8359" y2="527.8359"/><text fill="#000000" font-family="sans-serif" font-size="13" lengthAdjust="spacing" textLength="81" x="585" y="523.0938">CodeChunk[]</text><polygon fill="#181818" points="1097.5,553.1465,1107.5,557.1465,1097.5,561.1465,1101.5,557.1465" style="stroke:#181818;stroke-width:1.0;"/><line style="stroke:#181818;stroke-width:1.0;" x1="568" x2="1103.5" y1="557.1465" y2="557.1465"/><text fill="#000000" font-family="sans-serif" font-size="13" lengthAdjust="spacing" textLength="150" x="575" y="552.4043">saveChunk(CodeChunk)</text><polygon fill="#181818" points="579,582.457,569,586.457,579,590.457,575,586.457" style="stroke:#181818;stroke-width:1.0;"/><line style="stroke:#181818;stroke-width:1.0;stroke-dasharray:2.0,2.0;" x1="573" x2="1113.5" y1="586.457" y2="586.457"/><text fill="#000000" font-family="sans-serif" font-size="13" lengthAdjust="spacing" textLength="36" x="585" y="581.7148">saved</text><line style="stroke:#181818;stroke-width:1.0;" x1="568" x2="610" y1="615.7676" y2="615.7676"/><line style="stroke:#181818;stroke-width:1.0;" x1="610" x2="610" y1="615.7676" y2="628.7676"/><line style="stroke:#181818;stroke-width:1.0;" x1="569" x2="610" y1="628.7676" y2="628.7676"/><polygon fill="#181818" points="579,624.7676,569,628.7676,579,632.7676,575,628.7676" style="stroke:#181818;stroke-width:1.0;"/><text fill="#000000" font-family="sans-serif" font-size="13" lengthAdjust="spacing" textLength="176" x="575" y="611.0254">add to parsedProjects cache</text><polygon fill="#181818" points="376,661.0781,366,665.0781,376,669.0781,372,665.0781" style="stroke:#181818;stroke-width:1.0;"/><line style="stroke:#181818;stroke-width:1.0;stroke-dasharray:2.0,2.0;" x1="370" x2="552" y1="665.0781" y2="665.0781"/><text fill="#000000" font-family="sans-serif" font-size="13" lengthAdjust="spacing" textLength="121" x="382" y="660.3359">analysis completed</text><polygon fill="#181818" points="56,690.3887,46,694.3887,56,698.3887,52,694.3887" style="stroke:#181818;stroke-width:1.0;"/><line style="stroke:#181818;stroke-width:1.0;stroke-dasharray:2.0,2.0;" x1="50" x2="359" y1="694.3887" y2="694.3887"/><text fill="#000000" font-family="sans-serif" font-size="13" lengthAdjust="spacing" textLength="216" x="62" y="689.6465">{ status: "success", message: "..." }</text><polygon fill="#181818" points="343,719.6992,353,723.6992,343,727.6992,347,723.6992" style="stroke:#181818;stroke-width:1.0;"/><line style="stroke:#181818;stroke-width:1.0;" x1="45" x2="349" y1="723.6992" y2="723.6992"/><text fill="#000000" font-family="sans-serif" font-size="13" lengthAdjust="spacing" textLength="239" x="52" y="718.957">callTool("get_chunk", { chunkId: "..." })</text><polygon fill="#181818" points="546,749.0098,556,753.0098,546,757.0098,550,753.0098" style="stroke:#181818;stroke-width:1.0;"/><line style="stroke:#181818;stroke-width:1.0;" x1="365" x2="552" y1="753.0098" y2="753.0098"/><text fill="#000000" font-family="sans-serif" font-size="13" lengthAdjust="spacing" textLength="120" x="372" y="748.2676">getChunk(chunkId)</text><line style="stroke:#181818;stroke-width:1.0;" x1="568" x2="610" y1="782.3203" y2="782.3203"/><line style="stroke:#181818;stroke-width:1.0;" x1="610" x2="610" y1="782.3203" y2="795.3203"/><line style="stroke:#181818;stroke-width:1.0;" x1="569" x2="610" y1="795.3203" y2="795.3203"/><polygon fill="#181818" points="579,791.3203,569,795.3203,579,799.3203,575,795.3203" style="stroke:#181818;stroke-width:1.0;"/><text fill="#000000" font-family="sans-serif" font-size="13" lengthAdjust="spacing" textLength="173" x="575" y="777.5781">check parsedProjects cache</text><path d="M489,810.3203 L551,810.3203 L551,817.6309 L541,827.6309 L489,827.6309 L489,810.3203 " fill="#EEEEEE" style="stroke:#000000;stroke-width:1.5;"/><rect fill="none" height="175.5078" style="stroke:#000000;stroke-width:1.5;" width="680.5" x="489" y="810.3203"/><text fill="#000000" font-family="sans-serif" font-size="13" font-weight="bold" lengthAdjust="spacing" textLength="17" x="504" y="823.8887">alt</text><text fill="#000000" font-family="sans-serif" font-size="11" font-weight="bold" lengthAdjust="spacing" textLength="129" x="566" y="822.9551">[chunk found in cache]</text><line style="stroke:#181818;stroke-width:1.0;stroke-dasharray:2.0,2.0;" x1="568" x2="610" y1="848.9414" y2="848.9414"/><line style="stroke:#181818;stroke-width:1.0;stroke-dasharray:2.0,2.0;" x1="610" x2="610" y1="848.9414" y2="861.9414"/><line style="stroke:#181818;stroke-width:1.0;stroke-dasharray:2.0,2.0;" x1="569" x2="610" y1="861.9414" y2="861.9414"/><polygon fill="#181818" points="579,857.9414,569,861.9414,579,865.9414,575,861.9414" style="stroke:#181818;stroke-width:1.0;"/><text fill="#000000" font-family="sans-serif" font-size="13" lengthAdjust="spacing" textLength="129" x="575" y="844.1992">return cached chunk</text><line style="stroke:#000000;stroke-width:1.0;stroke-dasharray:2.0,2.0;" x1="489" x2="1169.5" y1="870.9414" y2="870.9414"/><text fill="#000000" font-family="sans-serif" font-size="11" font-weight="bold" lengthAdjust="spacing" textLength="114" x="494" y="881.5762">[chunk not in cache]</text><polygon fill="#181818" points="1097.5,902.207,1107.5,906.207,1097.5,910.207,1101.5,906.207" style="stroke:#181818;stroke-width:1.0;"/><line style="stroke:#181818;stroke-width:1.0;" x1="568" x2="1103.5" y1="906.207" y2="906.207"/><text fill="#000000" font-family="sans-serif" font-size="13" lengthAdjust="spacing" textLength="127" x="575" y="901.4648">loadChunk(chunkId)</text><polygon fill="#181818" points="579,931.5176,569,935.5176,579,939.5176,575,935.5176" style="stroke:#181818;stroke-width:1.0;"/><line style="stroke:#181818;stroke-width:1.0;stroke-dasharray:2.0,2.0;" x1="573" x2="1113.5" y1="935.5176" y2="935.5176"/><text fill="#000000" font-family="sans-serif" font-size="13" lengthAdjust="spacing" textLength="68" x="585" y="930.7754">chunkData</text><line style="stroke:#181818;stroke-width:1.0;stroke-dasharray:2.0,2.0;" x1="568" x2="610" y1="964.8281" y2="964.8281"/><line style="stroke:#181818;stroke-width:1.0;stroke-dasharray:2.0,2.0;" x1="610" x2="610" y1="964.8281" y2="977.8281"/><line style="stroke:#181818;stroke-width:1.0;stroke-dasharray:2.0,2.0;" x1="569" x2="610" y1="977.8281" y2="977.8281"/><polygon fill="#181818" points="579,973.8281,569,977.8281,579,981.8281,575,977.8281" style="stroke:#181818;stroke-width:1.0;"/><text fill="#000000" font-family="sans-serif" font-size="13" lengthAdjust="spacing" textLength="127" x="575" y="960.0859">return loaded chunk</text><polygon fill="#181818" points="376,1010.1387,366,1014.1387,376,1018.1387,372,1014.1387" style="stroke:#181818;stroke-width:1.0;"/><line style="stroke:#181818;stroke-width:1.0;stroke-dasharray:2.0,2.0;" x1="370" x2="552" y1="1014.1387" y2="1014.1387"/><text fill="#000000" font-family="sans-serif" font-size="13" lengthAdjust="spacing" textLength="94" x="382" y="1009.3965">{ content: "..." }</text><polygon fill="#181818" points="56,1039.4492,46,1043.4492,56,1047.4492,52,1043.4492" style="stroke:#181818;stroke-width:1.0;"/><line style="stroke:#181818;stroke-width:1.0;stroke-dasharray:2.0,2.0;" x1="50" x2="359" y1="1043.4492" y2="1043.4492"/><text fill="#000000" font-family="sans-serif" font-size="13" lengthAdjust="spacing" textLength="200" x="62" y="1038.707">{ status: "success", chunk: "..." }</text><!--SRC=[ZLFBZjf04BpxAre-WRGXTmwHB5P82Up6adEBejLafW5dpOmrqoPBelnxUXu6cy1cJtvqLVMZkeKaOo5Vhn_U5rlKb8Dmm5zPAopLicw59iWV5YLKQ0zeOL9hXIypSjC0ZN_7w4ABvkXgvsErn80hgZ6c-bblg1JMeOqwvKNST5RYgYP27G6hCM1PDmZLqH7kGtnPPHdN3Uy-f9hc84NJV36ccUJ2L_GBdrfhVg2a_0v-Gtel1UtcaCzcinp-J3CXgJu8mhwnr3Mh5jKSaauPgPE1n839hHPLpzWYXLPzkUv_X2KJB0frNrlqlXnl4BZN9HDI2dVIpnGECOqnBMpONlwxEyCoW9YkAkVGUWlytyafFcN0UGmbVrLbWAyu5zbEKcUHis-y0qFLCsdbIQjGeK_ogVhy2AQZjYCE38gCmB8l1b_8SWmsdMQ4qOu7hc2F99GWCOBoNDUrniTk_ntjn9VYPtG7PhDnIBTQw0SS6kv98p2F3I0Dr-Vne8NHl8KNfGUWLqqkB8p2nQxJpr-_NVHOdWRkqpjnYBZ9YN6pW2BXrPNKvnKJIW6PwAHAg-bu-UKECzGgxDRWAaIwJf1ctpP8h3xGvbtiLvuvV51pFXL7WZh7L-8wAT4vlfyzFyGMJvSpr4YdS_iSsRmdwJiFXnZUFget7o6pum0JyTRfSV_o-VfOH4CnBPz7nojMwnI8Sqq25ddJKqH5V8QDmqJLXYw9qUB627LHuIi61ynztEzh9e-ByThdOlvrbySPj_MgCszrDyY_vkrV]--></g></svg>