<svg xmlns="http://www.w3.org/2000/svg" xmlns:xlink="http://www.w3.org/1999/xlink" contentStyleType="text/css" height="787px" preserveAspectRatio="none" style="width:1769px;height:787px;background:#FFFFFF;" version="1.1" viewBox="0 0 1769 787" width="1769px" zoomAndPan="magnify"><defs/><g><rect fill="#FFFFFF" height="540.1895" style="stroke:#181818;stroke-width:1.0;" width="10" x="551" y="156.1094"/><rect fill="#FFFFFF" height="368.6816" style="stroke:#181818;stroke-width:1.0;" width="10" x="871" y="185.4199"/><rect fill="#FFFFFF" height="29.3105" style="stroke:#181818;stroke-width:1.0;" width="10" x="1023" y="214.7305"/><rect fill="#FFFFFF" height="29.3105" style="stroke:#181818;stroke-width:1.0;" width="10" x="1344" y="385.5938"/><rect fill="#FFFFFF" height="29.3105" style="stroke:#181818;stroke-width:1.0;" width="10" x="1444" y="459.1699"/><rect fill="#FFFFFF" height="29.3105" style="stroke:#181818;stroke-width:1.0;" width="10" x="1538.5" y="302.6621"/><rect fill="#FFFFFF" height="251.4395" style="stroke:#181818;stroke-width:1.0;" width="10" x="1708" y="273.3516"/><rect fill="none" height="149.5078" style="stroke:#000000;stroke-width:1.5;" width="463.5" x="1288.5" y="346.9727"/><rect fill="none" height="90.8867" style="stroke:#000000;stroke-width:1.5;" width="601.5" x="10" y="598.4121"/><line style="stroke:#181818;stroke-width:0.5;stroke-dasharray:5.0,5.0;" x1="60" x2="60" y1="81.4883" y2="706.2988"/><line style="stroke:#181818;stroke-width:0.5;stroke-dasharray:5.0,5.0;" x1="555.5" x2="555.5" y1="81.4883" y2="706.2988"/><line style="stroke:#181818;stroke-width:0.5;stroke-dasharray:5.0,5.0;" x1="876" x2="876" y1="81.4883" y2="706.2988"/><line style="stroke:#181818;stroke-width:0.5;stroke-dasharray:5.0,5.0;" x1="1027.5" x2="1027.5" y1="81.4883" y2="706.2988"/><line style="stroke:#181818;stroke-width:0.5;stroke-dasharray:5.0,5.0;" x1="1136.5" x2="1136.5" y1="81.4883" y2="706.2988"/><line style="stroke:#181818;stroke-width:0.5;stroke-dasharray:5.0,5.0;" x1="1239.5" x2="1239.5" y1="81.4883" y2="706.2988"/><line style="stroke:#181818;stroke-width:0.5;stroke-dasharray:5.0,5.0;" x1="1348.5" x2="1348.5" y1="81.4883" y2="706.2988"/><line style="stroke:#181818;stroke-width:0.5;stroke-dasharray:5.0,5.0;" x1="1448.5" x2="1448.5" y1="81.4883" y2="706.2988"/><line style="stroke:#181818;stroke-width:0.5;stroke-dasharray:5.0,5.0;" x1="1543.5" x2="1543.5" y1="81.4883" y2="706.2988"/><line style="stroke:#181818;stroke-width:0.5;stroke-dasharray:5.0,5.0;" x1="1713" x2="1713" y1="81.4883" y2="706.2988"/><text fill="#000000" font-family="sans-serif" font-size="14" lengthAdjust="spacing" textLength="74" x="20" y="78.5352">LLM/Agent</text><ellipse cx="60" cy="13.5" fill="#E2E2F0" rx="8" ry="8" style="stroke:#181818;stroke-width:0.5;"/><path d="M60,21.5 L60,48.5 M47,29.5 L73,29.5 M60,48.5 L47,63.5 M60,48.5 L73,63.5 " fill="none" style="stroke:#181818;stroke-width:0.5;"/><text fill="#000000" font-family="sans-serif" font-size="14" lengthAdjust="spacing" textLength="74" x="20" y="718.834">LLM/Agent</text><ellipse cx="60" cy="730.2871" fill="#E2E2F0" rx="8" ry="8" style="stroke:#181818;stroke-width:0.5;"/><path d="M60,738.2871 L60,765.2871 M47,746.2871 L73,746.2871 M60,765.2871 L47,780.2871 M60,765.2871 L73,780.2871 " fill="none" style="stroke:#181818;stroke-width:0.5;"/><rect fill="#E2E2F0" height="30.4883" rx="2.5" ry="2.5" style="stroke:#181818;stroke-width:0.5;" width="91" x="510.5" y="50"/><text fill="#000000" font-family="sans-serif" font-size="14" lengthAdjust="spacing" textLength="77" x="517.5" y="70.5352">MCP Server</text><rect fill="#E2E2F0" height="30.4883" rx="2.5" ry="2.5" style="stroke:#181818;stroke-width:0.5;" width="91" x="510.5" y="705.2988"/><text fill="#000000" font-family="sans-serif" font-size="14" lengthAdjust="spacing" textLength="77" x="517.5" y="725.834">MCP Server</text><rect fill="#E2E2F0" height="30.4883" rx="2.5" ry="2.5" style="stroke:#181818;stroke-width:0.5;" width="118" x="817" y="50"/><text fill="#000000" font-family="sans-serif" font-size="14" lengthAdjust="spacing" textLength="104" x="824" y="70.5352">AnalysisService</text><rect fill="#E2E2F0" height="30.4883" rx="2.5" ry="2.5" style="stroke:#181818;stroke-width:0.5;" width="118" x="817" y="705.2988"/><text fill="#000000" font-family="sans-serif" font-size="14" lengthAdjust="spacing" textLength="104" x="824" y="725.834">AnalysisService</text><rect fill="#E2E2F0" height="30.4883" rx="2.5" ry="2.5" style="stroke:#181818;stroke-width:0.5;" width="107" x="974.5" y="50"/><text fill="#000000" font-family="sans-serif" font-size="14" lengthAdjust="spacing" textLength="93" x="981.5" y="70.5352">ParserFactory</text><rect fill="#E2E2F0" height="30.4883" rx="2.5" ry="2.5" style="stroke:#181818;stroke-width:0.5;" width="107" x="974.5" y="705.2988"/><text fill="#000000" font-family="sans-serif" font-size="14" lengthAdjust="spacing" textLength="93" x="981.5" y="725.834">ParserFactory</text><rect fill="#E2E2F0" height="30.4883" rx="2.5" ry="2.5" style="stroke:#181818;stroke-width:0.5;" width="90" x="1091.5" y="50"/><text fill="#000000" font-family="sans-serif" font-size="14" lengthAdjust="spacing" textLength="76" x="1098.5" y="70.5352">SwiftParser</text><rect fill="#E2E2F0" height="30.4883" rx="2.5" ry="2.5" style="stroke:#181818;stroke-width:0.5;" width="90" x="1091.5" y="705.2988"/><text fill="#000000" font-family="sans-serif" font-size="14" lengthAdjust="spacing" textLength="76" x="1098.5" y="725.834">SwiftParser</text><rect fill="#E2E2F0" height="30.4883" rx="2.5" ry="2.5" style="stroke:#181818;stroke-width:0.5;" width="97" x="1191.5" y="50"/><text fill="#000000" font-family="sans-serif" font-size="14" lengthAdjust="spacing" textLength="83" x="1198.5" y="70.5352">KotlinParser</text><rect fill="#E2E2F0" height="30.4883" rx="2.5" ry="2.5" style="stroke:#181818;stroke-width:0.5;" width="97" x="1191.5" y="705.2988"/><text fill="#000000" font-family="sans-serif" font-size="14" lengthAdjust="spacing" textLength="83" x="1198.5" y="725.834">KotlinParser</text><rect fill="#E2E2F0" height="30.4883" rx="2.5" ry="2.5" style="stroke:#181818;stroke-width:0.5;" width="101" x="1298.5" y="50"/><text fill="#000000" font-family="sans-serif" font-size="14" lengthAdjust="spacing" textLength="87" x="1305.5" y="70.5352">SourceKitten</text><rect fill="#E2E2F0" height="30.4883" rx="2.5" ry="2.5" style="stroke:#181818;stroke-width:0.5;" width="101" x="1298.5" y="705.2988"/><text fill="#000000" font-family="sans-serif" font-size="14" lengthAdjust="spacing" textLength="87" x="1305.5" y="725.834">SourceKitten</text><rect fill="#E2E2F0" height="30.4883" rx="2.5" ry="2.5" style="stroke:#181818;stroke-width:0.5;" width="79" x="1409.5" y="50"/><text fill="#000000" font-family="sans-serif" font-size="14" lengthAdjust="spacing" textLength="65" x="1416.5" y="70.5352">Kotlin CLI</text><rect fill="#E2E2F0" height="30.4883" rx="2.5" ry="2.5" style="stroke:#181818;stroke-width:0.5;" width="79" x="1409.5" y="705.2988"/><text fill="#000000" font-family="sans-serif" font-size="14" lengthAdjust="spacing" textLength="65" x="1416.5" y="725.834">Kotlin CLI</text><rect fill="#E2E2F0" height="30.4883" rx="2.5" ry="2.5" style="stroke:#181818;stroke-width:0.5;" width="90" x="1498.5" y="50"/><text fill="#000000" font-family="sans-serif" font-size="14" lengthAdjust="spacing" textLength="76" x="1505.5" y="70.5352">File System</text><rect fill="#E2E2F0" height="30.4883" rx="2.5" ry="2.5" style="stroke:#181818;stroke-width:0.5;" width="90" x="1498.5" y="705.2988"/><text fill="#000000" font-family="sans-serif" font-size="14" lengthAdjust="spacing" textLength="76" x="1505.5" y="725.834">File System</text><rect fill="#E2E2F0" height="30.4883" rx="2.5" ry="2.5" style="stroke:#181818;stroke-width:0.5;" width="58" x="1684" y="50"/><text fill="#000000" font-family="sans-serif" font-size="14" lengthAdjust="spacing" textLength="44" x="1691" y="70.5352">parser</text><rect fill="#E2E2F0" height="30.4883" rx="2.5" ry="2.5" style="stroke:#181818;stroke-width:0.5;" width="58" x="1684" y="705.2988"/><text fill="#000000" font-family="sans-serif" font-size="14" lengthAdjust="spacing" textLength="44" x="1691" y="725.834">parser</text><rect fill="#FFFFFF" height="540.1895" style="stroke:#181818;stroke-width:1.0;" width="10" x="551" y="156.1094"/><rect fill="#FFFFFF" height="368.6816" style="stroke:#181818;stroke-width:1.0;" width="10" x="871" y="185.4199"/><rect fill="#FFFFFF" height="29.3105" style="stroke:#181818;stroke-width:1.0;" width="10" x="1023" y="214.7305"/><rect fill="#FFFFFF" height="29.3105" style="stroke:#181818;stroke-width:1.0;" width="10" x="1344" y="385.5938"/><rect fill="#FFFFFF" height="29.3105" style="stroke:#181818;stroke-width:1.0;" width="10" x="1444" y="459.1699"/><rect fill="#FFFFFF" height="29.3105" style="stroke:#181818;stroke-width:1.0;" width="10" x="1538.5" y="302.6621"/><rect fill="#FFFFFF" height="251.4395" style="stroke:#181818;stroke-width:1.0;" width="10" x="1708" y="273.3516"/><rect fill="#EEEEEE" height="3" style="stroke:#EEEEEE;stroke-width:1.0;" width="1762" x="0" y="112.1436"/><line style="stroke:#000000;stroke-width:1.0;" x1="0" x2="1762" y1="112.1436" y2="112.1436"/><line style="stroke:#000000;stroke-width:1.0;" x1="0" x2="1762" y1="115.1436" y2="115.1436"/><rect fill="#EEEEEE" height="23.3105" style="stroke:#000000;stroke-width:2.0;" width="152" x="805" y="101.4883"/><text fill="#000000" font-family="sans-serif" font-size="13" font-weight="bold" lengthAdjust="spacing" textLength="134" x="811" y="118.0566">get_function_chunk</text><polygon fill="#181818" points="539,152.1094,549,156.1094,539,160.1094,543,156.1094" style="stroke:#181818;stroke-width:1.0;"/><line style="stroke:#181818;stroke-width:1.0;" x1="60" x2="545" y1="156.1094" y2="156.1094"/><text fill="#000000" font-family="sans-serif" font-size="13" lengthAdjust="spacing" textLength="445" x="67" y="151.3672">callTool("get_function_chunk", { filePath: "...", functionSignature: "..." })</text><polygon fill="#181818" points="859,181.4199,869,185.4199,859,189.4199,863,185.4199" style="stroke:#181818;stroke-width:1.0;"/><line style="stroke:#181818;stroke-width:1.0;" x1="561" x2="865" y1="185.4199" y2="185.4199"/><text fill="#000000" font-family="sans-serif" font-size="13" lengthAdjust="spacing" textLength="291" x="568" y="180.6777">getFunctionChunk(filePath, functionSignature)</text><polygon fill="#181818" points="1011,210.7305,1021,214.7305,1011,218.7305,1015,214.7305" style="stroke:#181818;stroke-width:1.0;"/><line style="stroke:#181818;stroke-width:1.0;" x1="881" x2="1017" y1="214.7305" y2="214.7305"/><text fill="#000000" font-family="sans-serif" font-size="13" lengthAdjust="spacing" textLength="123" x="888" y="209.9883">getParser(language)</text><polygon fill="#181818" points="892,240.041,882,244.041,892,248.041,888,244.041" style="stroke:#181818;stroke-width:1.0;"/><line style="stroke:#181818;stroke-width:1.0;stroke-dasharray:2.0,2.0;" x1="886" x2="1027" y1="244.041" y2="244.041"/><text fill="#000000" font-family="sans-serif" font-size="13" lengthAdjust="spacing" textLength="39" x="898" y="239.2988">parser</text><polygon fill="#181818" points="1696,269.3516,1706,273.3516,1696,277.3516,1700,273.3516" style="stroke:#181818;stroke-width:1.0;"/><line style="stroke:#181818;stroke-width:1.0;" x1="881" x2="1702" y1="273.3516" y2="273.3516"/><text fill="#000000" font-family="sans-serif" font-size="13" lengthAdjust="spacing" textLength="111" x="888" y="268.6094">parseFile(filePath)</text><polygon fill="#181818" points="1559.5,298.6621,1549.5,302.6621,1559.5,306.6621,1555.5,302.6621" style="stroke:#181818;stroke-width:1.0;"/><line style="stroke:#181818;stroke-width:1.0;" x1="1553.5" x2="1707" y1="302.6621" y2="302.6621"/><text fill="#000000" font-family="sans-serif" font-size="13" lengthAdjust="spacing" textLength="104" x="1565.5" y="297.9199">readFile(filePath)</text><polygon fill="#181818" points="1696,327.9727,1706,331.9727,1696,335.9727,1700,331.9727" style="stroke:#181818;stroke-width:1.0;"/><line style="stroke:#181818;stroke-width:1.0;stroke-dasharray:2.0,2.0;" x1="1543.5" x2="1702" y1="331.9727" y2="331.9727"/><text fill="#000000" font-family="sans-serif" font-size="13" lengthAdjust="spacing" textLength="70" x="1550.5" y="327.2305">fileContent</text><path d="M1288.5,346.9727 L1350.5,346.9727 L1350.5,354.2832 L1340.5,364.2832 L1288.5,364.2832 L1288.5,346.9727 " fill="#EEEEEE" style="stroke:#000000;stroke-width:1.5;"/><rect fill="none" height="149.5078" style="stroke:#000000;stroke-width:1.5;" width="463.5" x="1288.5" y="346.9727"/><text fill="#000000" font-family="sans-serif" font-size="13" font-weight="bold" lengthAdjust="spacing" textLength="17" x="1303.5" y="360.541">alt</text><text fill="#000000" font-family="sans-serif" font-size="11" font-weight="bold" lengthAdjust="spacing" textLength="72" x="1365.5" y="359.6074">[if Swift file]</text><polygon fill="#181818" points="1365,381.5938,1355,385.5938,1365,389.5938,1361,385.5938" style="stroke:#181818;stroke-width:1.0;"/><line style="stroke:#181818;stroke-width:1.0;" x1="1359" x2="1707" y1="385.5938" y2="385.5938"/><text fill="#000000" font-family="sans-serif" font-size="13" lengthAdjust="spacing" textLength="148" x="1371" y="380.8516">structure --file filePath</text><polygon fill="#181818" points="1696,410.9043,1706,414.9043,1696,418.9043,1700,414.9043" style="stroke:#181818;stroke-width:1.0;"/><line style="stroke:#181818;stroke-width:1.0;stroke-dasharray:2.0,2.0;" x1="1349" x2="1702" y1="414.9043" y2="414.9043"/><text fill="#000000" font-family="sans-serif" font-size="13" lengthAdjust="spacing" textLength="77" x="1356" y="410.1621">JSON output</text><line style="stroke:#000000;stroke-width:1.0;stroke-dasharray:2.0,2.0;" x1="1288.5" x2="1752" y1="423.9043" y2="423.9043"/><text fill="#000000" font-family="sans-serif" font-size="11" font-weight="bold" lengthAdjust="spacing" textLength="78" x="1293.5" y="434.5391">[if Kotlin file]</text><polygon fill="#181818" points="1465,455.1699,1455,459.1699,1465,463.1699,1461,459.1699" style="stroke:#181818;stroke-width:1.0;"/><line style="stroke:#181818;stroke-width:1.0;" x1="1459" x2="1707" y1="459.1699" y2="459.1699"/><text fill="#000000" font-family="sans-serif" font-size="13" lengthAdjust="spacing" textLength="235" x="1471" y="454.4277">java -jar kotlin-parser-cli.jar filePath</text><polygon fill="#181818" points="1696,484.4805,1706,488.4805,1696,492.4805,1700,488.4805" style="stroke:#181818;stroke-width:1.0;"/><line style="stroke:#181818;stroke-width:1.0;stroke-dasharray:2.0,2.0;" x1="1449" x2="1702" y1="488.4805" y2="488.4805"/><text fill="#000000" font-family="sans-serif" font-size="13" lengthAdjust="spacing" textLength="77" x="1456" y="483.7383">JSON output</text><polygon fill="#181818" points="892,520.791,882,524.791,892,528.791,888,524.791" style="stroke:#181818;stroke-width:1.0;"/><line style="stroke:#181818;stroke-width:1.0;stroke-dasharray:2.0,2.0;" x1="886" x2="1712" y1="524.791" y2="524.791"/><text fill="#000000" font-family="sans-serif" font-size="13" lengthAdjust="spacing" textLength="81" x="898" y="520.0488">CodeChunk[]</text><polygon fill="#181818" points="572,550.1016,562,554.1016,572,558.1016,568,554.1016" style="stroke:#181818;stroke-width:1.0;"/><line style="stroke:#181818;stroke-width:1.0;stroke-dasharray:2.0,2.0;" x1="566" x2="875" y1="554.1016" y2="554.1016"/><text fill="#000000" font-family="sans-serif" font-size="13" lengthAdjust="spacing" textLength="103" x="578" y="549.3594">functionContent</text><polygon fill="#181818" points="71,579.4121,61,583.4121,71,587.4121,67,583.4121" style="stroke:#181818;stroke-width:1.0;"/><line style="stroke:#181818;stroke-width:1.0;stroke-dasharray:2.0,2.0;" x1="65" x2="550" y1="583.4121" y2="583.4121"/><text fill="#000000" font-family="sans-serif" font-size="13" lengthAdjust="spacing" textLength="229" x="77" y="578.6699">{ content: [{ type: "text", text: "..." }] }</text><path d="M10,598.4121 L72,598.4121 L72,605.7227 L62,615.7227 L10,615.7227 L10,598.4121 " fill="#EEEEEE" style="stroke:#000000;stroke-width:1.5;"/><rect fill="none" height="90.8867" style="stroke:#000000;stroke-width:1.5;" width="601.5" x="10" y="598.4121"/><text fill="#000000" font-family="sans-serif" font-size="13" font-weight="bold" lengthAdjust="spacing" textLength="17" x="25" y="611.9805">alt</text><text fill="#000000" font-family="sans-serif" font-size="11" font-weight="bold" lengthAdjust="spacing" textLength="114" x="87" y="611.0469">[function not found]</text><polygon fill="#181818" points="71,633.0332,61,637.0332,71,641.0332,67,637.0332" style="stroke:#181818;stroke-width:1.0;"/><line style="stroke:#181818;stroke-width:1.0;stroke-dasharray:2.0,2.0;" x1="65" x2="550" y1="637.0332" y2="637.0332"/><text fill="#000000" font-family="sans-serif" font-size="13" lengthAdjust="spacing" textLength="467" x="77" y="632.291">{ content: [{ type: "text", text: "Function chunk not found." }], isError: true }</text><line style="stroke:#000000;stroke-width:1.0;stroke-dasharray:2.0,2.0;" x1="10" x2="611.5" y1="646.0332" y2="646.0332"/><text fill="#000000" font-family="sans-serif" font-size="11" font-weight="bold" lengthAdjust="spacing" textLength="92" x="15" y="656.668">[function found]</text><polygon fill="#181818" points="71,677.2988,61,681.2988,71,685.2988,67,681.2988" style="stroke:#181818;stroke-width:1.0;"/><line style="stroke:#181818;stroke-width:1.0;stroke-dasharray:2.0,2.0;" x1="65" x2="550" y1="681.2988" y2="681.2988"/><text fill="#000000" font-family="sans-serif" font-size="13" lengthAdjust="spacing" textLength="229" x="77" y="676.5566">{ content: [{ type: "text", text: "..." }] }</text><!--SRC=[fLF1Qjmm4BtxAmQVjX1lxuOj65D3wqrhK6yX1A7LEafKoSZZRPUGV-z8ihrsiuNIdcHvthmtVlFC1Le7wNv_-xvefS4KU0zqIphkK0dLSOEGtfODCEbEqeLwV5n32iFrkLUzhoaX0wvWQqp3NIzTnRtcEI2QQerWFzGH8omgDUjwRL4him3Klm6O7PoGjKAK9ZBKrnYWt7-A_VIm1bHAIs3d7kNtWAXOaknsq4fyE0v6eBBcGJmEvXbskuISWkp3Q4WEWclzpLgzIT_2qnjuWIEHDnmVSqYtsoszcZ1CjORZuEHOWTTt2VcaJXpbv7Syl5x1SZzGDJQNddypSLyXNN3HJWhcEPegS4GlDvgRTk3j4acxQIh8Hhaku9A3NDOZKooD46_VFCg2RUoFX- -gYDH9VlXJ0_bUiI0_yNjGQGrj5fTp491h17M4a9u0Im0kIgpEeKSt26y5CNh0l0b2NdokwSRgbUXdzlKBs06x0Qcua2MmrBtqkcEctWZxSENmn4ySiYVku3dWiWZ8X5PR__RQ926M48w_coOqI7EO3HxNLjg33F6ukrzwDcwZY0PFyProSyLaYiqKFsgWsEUKPX5nEToz09uxdrsKFv5YxOyvoVVm6ZOqqOEnTB43JGlm3wnJx27-XZDRqBe1rNzqpjBdqCebIOSjpTh_eNlv6c_qCWhn__m5]--></g></svg>