<svg xmlns="http://www.w3.org/2000/svg" xmlns:xlink="http://www.w3.org/1999/xlink" contentStyleType="text/css" height="521px" preserveAspectRatio="none" style="width:1013px;height:521px;background:#FFFFFF;" version="1.1" viewBox="0 0 1013 521" width="1013px" zoomAndPan="magnify"><defs/><g><!--entity LLM/Agent--><g id="elem_LLM/Agent"><rect fill="#F1F1F1" height="46.4883" rx="2.5" ry="2.5" style="stroke:#181818;stroke-width:0.5;" width="114" x="505.52" y="7"/><rect fill="#F1F1F1" height="10" style="stroke:#181818;stroke-width:0.5;" width="15" x="599.52" y="12"/><rect fill="#F1F1F1" height="2" style="stroke:#181818;stroke-width:0.5;" width="4" x="597.52" y="14"/><rect fill="#F1F1F1" height="2" style="stroke:#181818;stroke-width:0.5;" width="4" x="597.52" y="18"/><text fill="#000000" font-family="sans-serif" font-size="14" lengthAdjust="spacing" textLength="74" x="520.52" y="40.5352">LLM/Agent</text></g><g id="elem_callTool"><ellipse cx="562.5167" cy="128.1709" fill="#F1F1F1" rx="49.7967" ry="14.6909" style="stroke:#181818;stroke-width:0.5;"/><text fill="#000000" font-family="sans-serif" font-size="14" lengthAdjust="spacing" textLength="54" x="533.074" y="132.0722">callTool</text></g><g id="elem_analyzeProject"><ellipse cx="650.5229" cy="222.0286" fill="#F1F1F1" rx="72.1429" ry="16.8286" style="stroke:#181818;stroke-width:0.5;"/><text fill="#000000" font-family="sans-serif" font-size="14" lengthAdjust="spacing" textLength="99" x="600.3329" y="225.5054">analyzeProject</text></g><g id="elem_getChunk"><ellipse cx="817.5182" cy="222.0289" fill="#F1F1F1" rx="59.3882" ry="14.7689" style="stroke:#181818;stroke-width:0.5;"/><text fill="#000000" font-family="sans-serif" font-size="14" lengthAdjust="spacing" textLength="67" x="781.0182" y="226.0465">getChunk</text></g><g id="elem_listFunctionsInFile"><ellipse cx="88.5182" cy="222.0336" fill="#F1F1F1" rx="82.5182" ry="18.9036" style="stroke:#181818;stroke-width:0.5;"/><text fill="#000000" font-family="sans-serif" font-size="14" lengthAdjust="spacing" textLength="124" x="26.5182" y="225.3247">listFunctionsInFile</text></g><g id="elem_getFunctionChunk"><ellipse cx="289.5247" cy="222.0309" fill="#F1F1F1" rx="83.8047" ry="19.1609" style="stroke:#181818;stroke-width:0.5;"/><text fill="#000000" font-family="sans-serif" font-size="14" lengthAdjust="spacing" textLength="127" x="226.0247" y="225.322">getFunctionChunk</text></g><g id="elem_findFile"><ellipse cx="959.5204" cy="222.0254" fill="#F1F1F1" rx="47.6104" ry="14.6754" style="stroke:#181818;stroke-width:0.5;"/><text fill="#000000" font-family="sans-serif" font-size="14" lengthAdjust="spacing" textLength="51" x="932.3489" y="225.7538">findFile</text></g><g id="elem_findFunction"><ellipse cx="475.5172" cy="222.0314" fill="#F1F1F1" rx="67.6072" ry="15.9214" style="stroke:#181818;stroke-width:0.5;"/><text fill="#000000" font-family="sans-serif" font-size="14" lengthAdjust="spacing" textLength="87" x="429.0172" y="226.049">findFunction</text></g><g id="elem_parseFile"><ellipse cx="340.5166" cy="316.2716" fill="#F1F1F1" rx="55.6966" ry="14.7416" style="stroke:#181818;stroke-width:0.5;"/><text fill="#000000" font-family="sans-serif" font-size="14" lengthAdjust="spacing" textLength="62" x="306.5166" y="320.2892">parseFile</text></g><g id="elem_saveChunk"><ellipse cx="650.5225" cy="316.2665" fill="#F1F1F1" rx="63.4325" ry="15.0865" style="stroke:#181818;stroke-width:0.5;"/><text fill="#000000" font-family="sans-serif" font-size="14" lengthAdjust="spacing" textLength="75" x="610.0225" y="320.2841">saveChunk</text></g><g id="elem_loadChunk"><ellipse cx="817.5225" cy="316.2665" fill="#F1F1F1" rx="63.4325" ry="15.0865" style="stroke:#181818;stroke-width:0.5;"/><text fill="#000000" font-family="sans-serif" font-size="14" lengthAdjust="spacing" textLength="75" x="777.0225" y="320.2841">loadChunk</text></g><g id="elem_glob"><ellipse cx="959.5156" cy="316.269" fill="#F1F1F1" rx="33.4056" ry="14.659" style="stroke:#181818;stroke-width:0.5;"/><text fill="#000000" font-family="sans-serif" font-size="14" lengthAdjust="spacing" textLength="31" x="944.0156" y="319.56">glob</text></g><g id="elem_execPromise"><ellipse cx="214.5172" cy="408.6714" fill="#F1F1F1" rx="67.6072" ry="15.9214" style="stroke:#181818;stroke-width:0.5;"/><text fill="#000000" font-family="sans-serif" font-size="14" lengthAdjust="spacing" textLength="87" x="168.0172" y="412.689">execPromise</text></g><g id="elem_getLineNumber"><ellipse cx="391.5239" cy="408.6728" fill="#F1F1F1" rx="74.5639" ry="17.3128" style="stroke:#181818;stroke-width:0.5;"/><text fill="#000000" font-family="sans-serif" font-size="14" lengthAdjust="spacing" textLength="105" x="339.0239" y="411.9638">getLineNumber</text></g><g id="elem_fs.readFile"><ellipse cx="604.5208" cy="500.8122" fill="#F1F1F1" rx="62.1108" ry="14.8222" style="stroke:#181818;stroke-width:0.5;"/><text fill="#000000" font-family="sans-serif" font-size="14" lengthAdjust="spacing" textLength="71" x="566.0208" y="504.8297">fs.readFile</text></g><g id="elem_fs.mkdir"><ellipse cx="552.5174" cy="408.6736" fill="#F1F1F1" rx="51.2674" ry="14.7036" style="stroke:#181818;stroke-width:0.5;"/><text fill="#000000" font-family="sans-serif" font-size="14" lengthAdjust="spacing" textLength="56" x="521.5393" y="412.6867">fs.mkdir</text></g><g id="elem_fs.writeFile"><ellipse cx="701.5186" cy="408.6697" fill="#F1F1F1" rx="63.0986" ry="15.0197" style="stroke:#181818;stroke-width:0.5;"/><text fill="#000000" font-family="sans-serif" font-size="14" lengthAdjust="spacing" textLength="74" x="661.5186" y="412.6873">fs.writeFile</text></g><!--link LLM/Agent to callTool--><g id="link_LLM/Agent_callTool"><path d="M562.52,53.97 C562.52,72.37 562.52,91.69 562.52,107.21 " fill="none" id="LLM/Agent-to-callTool" style="stroke:#181818;stroke-width:1.0;"/><polygon fill="#181818" points="562.52,113.21,566.52,104.21,562.52,108.21,558.52,104.21,562.52,113.21" style="stroke:#181818;stroke-width:1.0;"/></g><!--link callTool to analyzeProject--><g id="link_callTool_analyzeProject"><path d="M575.5,142.73 C591.47,159.39 614.3793,183.3074 631.2593,200.9274 " fill="none" id="callTool-to-analyzeProject" style="stroke:#181818;stroke-width:1.0;"/><polygon fill="#181818" points="635.41,205.26,632.0724,195.9939,631.9511,201.6495,626.2955,201.5282,635.41,205.26" style="stroke:#181818;stroke-width:1.0;"/></g><!--link callTool to getChunk--><g id="link_callTool_getChunk"><path d="M593.02,140.16 C641.41,157.59 729.6952,189.3864 779.3252,207.2664 " fill="none" id="callTool-to-getChunk" style="stroke:#181818;stroke-width:1.0;"/><polygon fill="#181818" points="784.97,209.3,777.8585,202.4863,780.266,207.6053,775.147,210.0128,784.97,209.3" style="stroke:#181818;stroke-width:1.0;"/></g><!--link callTool to listFunctionsInFile--><g id="link_callTool_listFunctionsInFile"><path d="M522.11,137.01 C439.05,153.1 254.5905,188.8488 156.0505,207.9388 " fill="none" id="callTool-to-listFunctionsInFile" style="stroke:#181818;stroke-width:1.0;"/><polygon fill="#181818" points="150.16,209.08,159.7565,211.2953,155.0687,208.129,158.235,203.4413,150.16,209.08" style="stroke:#181818;stroke-width:1.0;"/></g><!--link callTool to getFunctionChunk--><g id="link_callTool_getFunctionChunk"><path d="M530.67,139.89 C482.42,156.12 396.2766,185.1063 340.9166,203.7363 " fill="none" id="callTool-to-getFunctionChunk" style="stroke:#181818;stroke-width:1.0;"/><polygon fill="#181818" points="335.23,205.65,345.0357,206.5706,339.9689,204.0553,342.4842,198.9884,335.23,205.65" style="stroke:#181818;stroke-width:1.0;"/></g><!--link callTool to findFile--><g id="link_callTool_findFile"><path d="M602.54,137.33 C665.09,150.24 789.71,176.61 894.52,202.87 C904.75,205.43 910.0431,206.809 920.0931,209.629 " fill="none" id="callTool-to-findFile" style="stroke:#181818;stroke-width:1.0;"/><polygon fill="#181818" points="925.87,211.25,918.2853,204.9673,921.0559,209.8992,916.124,212.6698,925.87,211.25" style="stroke:#181818;stroke-width:1.0;"/></g><!--link callTool to findFunction--><g id="link_callTool_findFunction"><path d="M549.68,142.73 C533.61,159.69 510.3069,184.3047 493.6869,201.8447 " fill="none" id="callTool-to-findFunction" style="stroke:#181818;stroke-width:1.0;"/><polygon fill="#181818" points="489.56,206.2,498.6539,202.4183,492.9991,202.5706,492.8468,196.9158,489.56,206.2" style="stroke:#181818;stroke-width:1.0;"/></g><!--link analyzeProject to parseFile--><g id="link_analyzeProject_parseFile"><path d="M607.41,235.85 C545.69,254.22 439.0308,285.9587 381.8008,302.9887 " fill="none" id="analyzeProject-to-parseFile" style="stroke:#181818;stroke-width:1.0;"/><polygon fill="#181818" points="376.05,304.7,385.817,305.967,380.8423,303.2739,383.5353,298.2992,376.05,304.7" style="stroke:#181818;stroke-width:1.0;"/></g><!--link analyzeProject to saveChunk--><g id="link_analyzeProject_saveChunk"><path d="M650.52,239.09 C650.52,256.54 650.52,278.15 650.52,294.9 " fill="none" id="analyzeProject-to-saveChunk" style="stroke:#181818;stroke-width:1.0;"/><polygon fill="#181818" points="650.52,300.9,654.52,291.9,650.52,295.9,646.52,291.9,650.52,300.9" style="stroke:#181818;stroke-width:1.0;"/></g><!--link getChunk to loadChunk--><g id="link_getChunk_loadChunk"><path d="M817.52,237.04 C817.52,254.27 817.52,277.39 817.52,294.83 " fill="none" id="getChunk-to-loadChunk" style="stroke:#181818;stroke-width:1.0;"/><polygon fill="#181818" points="817.52,300.83,821.52,291.83,817.52,295.83,813.52,291.83,817.52,300.83" style="stroke:#181818;stroke-width:1.0;"/></g><!--link listFunctionsInFile to parseFile--><g id="link_listFunctionsInFile_parseFile"><path d="M130.98,238.57 C181.34,257 258.4556,285.2377 303.4256,301.6977 " fill="none" id="listFunctionsInFile-to-parseFile" style="stroke:#181818;stroke-width:1.0;"/><polygon fill="#181818" points="309.06,303.76,301.9832,296.9102,304.3646,302.0414,299.2335,304.4228,309.06,303.76" style="stroke:#181818;stroke-width:1.0;"/></g><!--link getFunctionChunk to parseFile--><g id="link_getFunctionChunk_parseFile"><path d="M299.59,241.25 C309.35,258.89 321.0164,280.0094 329.8864,296.0494 " fill="none" id="getFunctionChunk-to-parseFile" style="stroke:#181818;stroke-width:1.0;"/><polygon fill="#181818" points="332.79,301.3,331.9351,291.4883,330.3704,296.9245,324.9342,295.3597,332.79,301.3" style="stroke:#181818;stroke-width:1.0;"/></g><!--link findFile to glob--><g id="link_findFile_glob"><path d="M959.52,237.04 C959.52,254.37 959.52,277.73 959.52,295.13 " fill="none" id="findFile-to-glob" style="stroke:#181818;stroke-width:1.0;"/><polygon fill="#181818" points="959.52,301.13,963.52,292.13,959.52,296.13,955.52,292.13,959.52,301.13" style="stroke:#181818;stroke-width:1.0;"/></g><!--link findFunction to parseFile--><g id="link_findFunction_parseFile"><path d="M454.42,237.44 C428.47,255.18 389.7236,281.6445 364.6736,298.7645 " fill="none" id="findFunction-to-parseFile" style="stroke:#181818;stroke-width:1.0;"/><polygon fill="#181818" points="359.72,302.15,369.4074,300.3742,363.848,299.3288,364.8935,293.7694,359.72,302.15" style="stroke:#181818;stroke-width:1.0;"/></g><!--link parseFile to execPromise--><g id="link_parseFile_execPromise"><path d="M321.93,330.61 C298.65,347.31 263.7943,372.3113 239.7343,389.5813 " fill="none" id="parseFile-to-execPromise" style="stroke:#181818;stroke-width:1.0;"/><polygon fill="#181818" points="234.86,393.08,244.504,391.0815,238.9219,390.1644,239.839,384.5824,234.86,393.08" style="stroke:#181818;stroke-width:1.0;"/></g><!--link parseFile to getLineNumber--><g id="link_parseFile_getLineNumber"><path d="M348.26,331 C357.35,347.11 369.45,368.5653 379.19,385.8153 " fill="none" id="parseFile-to-getLineNumber" style="stroke:#181818;stroke-width:1.0;"/><polygon fill="#181818" points="382.14,391.04,381.198,381.2363,379.6816,386.6861,374.2318,385.1697,382.14,391.04" style="stroke:#181818;stroke-width:1.0;"/></g><!--link getLineNumber to fs.readFile--><g id="link_getLineNumber_fs.readFile"><path d="M426.21,424.36 C467.59,441.86 530.504,468.4925 569.464,484.9725 " fill="none" id="getLineNumber-to-fs.readFile" style="stroke:#181818;stroke-width:1.0;"/><polygon fill="#181818" points="574.99,487.31,568.2594,480.1198,570.385,485.3621,565.1427,487.4878,574.99,487.31" style="stroke:#181818;stroke-width:1.0;"/></g><!--link saveChunk to fs.mkdir--><g id="link_saveChunk_fs.mkdir"><path d="M635.21,331.4 C616.58,348.58 589.7804,373.302 571.4904,390.172 " fill="none" id="saveChunk-to-fs.mkdir" style="stroke:#181818;stroke-width:1.0;"/><polygon fill="#181818" points="567.08,394.24,576.4076,391.0783,570.7553,390.85,570.9836,385.1978,567.08,394.24" style="stroke:#181818;stroke-width:1.0;"/></g><!--link saveChunk to fs.writeFile--><g id="link_saveChunk_fs.writeFile"><path d="M658.49,331.4 C668.01,348.28 680.9104,371.1551 690.4904,388.1251 " fill="none" id="saveChunk-to-fs.writeFile" style="stroke:#181818;stroke-width:1.0;"/><polygon fill="#181818" points="693.44,393.35,692.4989,383.5462,690.982,388.9959,685.5323,387.479,693.44,393.35" style="stroke:#181818;stroke-width:1.0;"/></g><!--link loadChunk to fs.readFile--><g id="link_loadChunk_fs.readFile"><path d="M816.67,331.5 C814.58,354.25 807.38,399.01 782.52,425.99 C748.51,462.89 699.0901,480.5141 659.1501,489.9241 " fill="none" id="loadChunk-to-fs.readFile" style="stroke:#181818;stroke-width:1.0;"/><polygon fill="#181818" points="653.31,491.3,662.9874,493.1295,658.1768,490.1534,661.1529,485.3427,653.31,491.3" style="stroke:#181818;stroke-width:1.0;"/></g><!--SRC=[TP1D3i8W48NtdA9BkwZUmCIOD36fneKxuuB2MB4K353_JczhAPY2EvXltinxSooAxM9LWJ2d9CkMoOnWpWzIyXGX_nuG5fY_th1NyWh4f06lmAmlhQX3mfasUIk8OLBeZSWPXwXyxFapvim4ZMk_n8fxvnEhGzCDAmrM7stG-0vsDV9fR0I9gMEnFC4E52QAzBXCzWXSbguy1eh8_6U0y0JIXMcOxjDDQMUaO09sRLE2iiv-2lQ6Ugu0qt63FuR3JKrP9u-XXsB6cVEtYap-0000]--></g></svg>