<svg xmlns="http://www.w3.org/2000/svg" xmlns:xlink="http://www.w3.org/1999/xlink" contentStyleType="text/css" height="1231px" preserveAspectRatio="none" style="width:1286px;height:1231px;background:#FFFFFF;" version="1.1" viewBox="0 0 1286 1231" width="1286px" zoomAndPan="magnify"><defs/><g><!--class McpServer--><g id="elem_McpServer"><rect codeLine="2" fill="#F1F1F1" height="80.9766" id="McpServer" rx="2.5" ry="2.5" style="stroke:#181818;stroke-width:0.5;" width="149" x="863.5" y="7"/><ellipse cx="899.2" cy="23" fill="#ADD1B2" rx="11" ry="11" style="stroke:#181818;stroke-width:1.0;"/><path d="M901.6731,29.1431 Q901.0921,29.4419 900.4529,29.5913 Q899.8138,29.7407 899.1082,29.7407 Q896.6014,29.7407 895.2815,28.0889 Q893.9617,26.437 893.9617,23.3159 Q893.9617,20.1865 895.2815,18.5347 Q896.6014,16.8828 899.1082,16.8828 Q899.8138,16.8828 900.4612,17.0322 Q901.1087,17.1816 901.6731,17.4805 L901.6731,20.2031 Q901.0423,19.6221 900.4488,19.3523 Q899.8553,19.0825 899.2244,19.0825 Q897.8797,19.0825 897.1949,20.1492 Q896.5101,21.2158 896.5101,23.3159 Q896.5101,25.4077 897.1949,26.4744 Q897.8797,27.541 899.2244,27.541 Q899.8553,27.541 900.4488,27.2712 Q901.0423,27.0015 901.6731,26.4204 Z " fill="#000000"/><text fill="#000000" font-family="sans-serif" font-size="14" lengthAdjust="spacing" textLength="71" x="917.8" y="28.291">McpServer</text><line style="stroke:#181818;stroke-width:0.5;" x1="864.5" x2="1011.5" y1="39" y2="39"/><line style="stroke:#181818;stroke-width:0.5;" x1="864.5" x2="1011.5" y1="47" y2="47"/><ellipse cx="874.5" cy="60.7441" fill="#84BE84" rx="3" ry="3" style="stroke:#038048;stroke-width:1.0;"/><text fill="#000000" font-family="sans-serif" font-size="14" lengthAdjust="spacing" textLength="123" x="883.5" y="64.5352">createMcpServer()</text><ellipse cx="874.5" cy="77.2324" fill="#84BE84" rx="3" ry="3" style="stroke:#038048;stroke-width:1.0;"/><text fill="#000000" font-family="sans-serif" font-size="14" lengthAdjust="spacing" textLength="94" x="883.5" y="81.0234">registerTool()</text></g><!--class IParser--><g id="elem_IParser"><rect codeLine="7" fill="#F1F1F1" height="64.4883" id="IParser" rx="2.5" ry="2.5" style="stroke:#181818;stroke-width:0.5;" width="373" x="587.5" y="662.3"/><ellipse cx="746.25" cy="678.3" fill="#B4A7E5" rx="11" ry="11" style="stroke:#181818;stroke-width:1.0;"/><path d="M742.6777,674.5651 L742.6777,672.4069 L750.0571,672.4069 L750.0571,674.5651 L747.5918,674.5651 L747.5918,682.6418 L750.0571,682.6418 L750.0571,684.8 L742.6777,684.8 L742.6777,682.6418 L745.1431,682.6418 L745.1431,674.5651 Z " fill="#000000"/><text fill="#000000" font-family="sans-serif" font-size="14" font-style="italic" lengthAdjust="spacing" textLength="47" x="766.75" y="683.591">IParser</text><line style="stroke:#181818;stroke-width:0.5;" x1="588.5" x2="959.5" y1="694.3" y2="694.3"/><line style="stroke:#181818;stroke-width:0.5;" x1="588.5" x2="959.5" y1="702.3" y2="702.3"/><ellipse cx="598.5" cy="716.0441" fill="#84BE84" rx="3" ry="3" style="stroke:#038048;stroke-width:1.0;"/><text fill="#000000" font-family="sans-serif" font-size="14" lengthAdjust="spacing" textLength="347" x="607.5" y="719.8352">parseFile(filePath: string): Promise&lt;CodeChunk[]&gt;</text></g><!--class ParserFactory--><g id="elem_ParserFactory"><rect codeLine="11" fill="#F1F1F1" height="97.4648" id="ParserFactory" rx="2.5" ry="2.5" style="stroke:#181818;stroke-width:0.5;" width="428" x="583" y="487.83"/><ellipse cx="746.25" cy="503.83" fill="#ADD1B2" rx="11" ry="11" style="stroke:#181818;stroke-width:1.0;"/><path d="M748.7231,509.9731 Q748.1421,510.2719 747.5029,510.4213 Q746.8638,510.5707 746.1582,510.5707 Q743.6514,510.5707 742.3315,508.9189 Q741.0117,507.267 741.0117,504.1459 Q741.0117,501.0165 742.3315,499.3647 Q743.6514,497.7128 746.1582,497.7128 Q746.8638,497.7128 747.5112,497.8622 Q748.1587,498.0116 748.7231,498.3105 L748.7231,501.0331 Q748.0923,500.4521 747.4988,500.1823 Q746.9053,499.9125 746.2744,499.9125 Q744.9297,499.9125 744.2449,500.9792 Q743.5601,502.0458 743.5601,504.1459 Q743.5601,506.2377 744.2449,507.3044 Q744.9297,508.371 746.2744,508.371 Q746.9053,508.371 747.4988,508.1012 Q748.0923,507.8315 748.7231,507.2504 Z " fill="#000000"/><text fill="#000000" font-family="sans-serif" font-size="14" lengthAdjust="spacing" textLength="93" x="766.75" y="509.121">ParserFactory</text><line style="stroke:#181818;stroke-width:0.5;" x1="584" x2="1010" y1="519.83" y2="519.83"/><rect fill="none" height="6" style="stroke:#C82930;stroke-width:1.0;" width="6" x="591" y="530.5741"/><text fill="#000000" font-family="sans-serif" font-size="14" lengthAdjust="spacing" textLength="245" x="603" y="537.3652">static parsers: Map&lt;string, IParser&gt;</text><line style="stroke:#181818;stroke-width:0.5;" x1="584" x2="1010" y1="544.3183" y2="544.3183"/><ellipse cx="594" cy="558.0624" fill="#84BE84" rx="3" ry="3" style="stroke:#038048;stroke-width:1.0;"/><text fill="#000000" font-family="sans-serif" font-size="14" lengthAdjust="spacing" textLength="402" x="603" y="561.8534">static registerParser(language: string, parser: IParser): void</text><ellipse cx="594" cy="574.5507" fill="#84BE84" rx="3" ry="3" style="stroke:#038048;stroke-width:1.0;"/><text fill="#000000" font-family="sans-serif" font-size="14" lengthAdjust="spacing" textLength="282" x="603" y="578.3417">static getParser(language: string): IParser</text></g><!--class AnalysisService--><g id="elem_AnalysisService"><rect codeLine="17" fill="#F1F1F1" height="245.8594" id="AnalysisService" rx="2.5" ry="2.5" style="stroke:#181818;stroke-width:0.5;" width="683" x="596.5" y="164.97"/><ellipse cx="881.75" cy="180.97" fill="#ADD1B2" rx="11" ry="11" style="stroke:#181818;stroke-width:1.0;"/><path d="M884.2231,187.1131 Q883.6421,187.4119 883.0029,187.5613 Q882.3638,187.7107 881.6582,187.7107 Q879.1514,187.7107 877.8315,186.0589 Q876.5117,184.407 876.5117,181.2859 Q876.5117,178.1565 877.8315,176.5047 Q879.1514,174.8528 881.6582,174.8528 Q882.3638,174.8528 883.0112,175.0022 Q883.6587,175.1516 884.2231,175.4505 L884.2231,178.1731 Q883.5923,177.5921 882.9988,177.3223 Q882.4053,177.0525 881.7744,177.0525 Q880.4297,177.0525 879.7449,178.1192 Q879.0601,179.1858 879.0601,181.2859 Q879.0601,183.3777 879.7449,184.4444 Q880.4297,185.511 881.7744,185.511 Q882.4053,185.511 882.9988,185.2412 Q883.5923,184.9715 884.2231,184.3904 Z " fill="#000000"/><text fill="#000000" font-family="sans-serif" font-size="14" lengthAdjust="spacing" textLength="104" x="902.25" y="186.261">AnalysisService</text><line style="stroke:#181818;stroke-width:0.5;" x1="597.5" x2="1278.5" y1="196.97" y2="196.97"/><rect fill="none" height="6" style="stroke:#C82930;stroke-width:1.0;" width="6" x="604.5" y="207.7141"/><text fill="#000000" font-family="sans-serif" font-size="14" lengthAdjust="spacing" textLength="299" x="616.5" y="214.5052">parsedProjects: Map&lt;string, CodeChunk[]&gt;</text><rect fill="none" height="6" style="stroke:#C82930;stroke-width:1.0;" width="6" x="604.5" y="224.2024"/><text fill="#000000" font-family="sans-serif" font-size="14" lengthAdjust="spacing" textLength="117" x="616.5" y="230.9934">chunksDir: string</text><line style="stroke:#181818;stroke-width:0.5;" x1="597.5" x2="1278.5" y1="237.9466" y2="237.9466"/><ellipse cx="607.5" cy="251.6907" fill="#84BE84" rx="3" ry="3" style="stroke:#038048;stroke-width:1.0;"/><text fill="#000000" font-family="sans-serif" font-size="14" lengthAdjust="spacing" textLength="206" x="616.5" y="255.4817">constructor(chunksDir: string)</text><ellipse cx="607.5" cy="268.179" fill="#84BE84" rx="3" ry="3" style="stroke:#038048;stroke-width:1.0;"/><text fill="#000000" font-family="sans-serif" font-size="14" lengthAdjust="spacing" textLength="349" x="616.5" y="271.97">analyzeProject(projectPath: string): Promise&lt;void&gt;</text><ellipse cx="607.5" cy="284.6673" fill="#84BE84" rx="3" ry="3" style="stroke:#038048;stroke-width:1.0;"/><text fill="#000000" font-family="sans-serif" font-size="14" lengthAdjust="spacing" textLength="422" x="616.5" y="288.4583">getChunk(chunkId: string): Promise&lt;{ content: string } | null&gt;</text><ellipse cx="607.5" cy="301.1555" fill="#84BE84" rx="3" ry="3" style="stroke:#038048;stroke-width:1.0;"/><text fill="#000000" font-family="sans-serif" font-size="14" lengthAdjust="spacing" textLength="459" x="616.5" y="304.9466">listFunctionsInFile(filePath: string): Promise&lt;{ signature: string }[]&gt;</text><ellipse cx="607.5" cy="317.6438" fill="#84BE84" rx="3" ry="3" style="stroke:#038048;stroke-width:1.0;"/><text fill="#000000" font-family="sans-serif" font-size="14" lengthAdjust="spacing" textLength="657" x="616.5" y="321.4348">getFunctionChunk(filePath: string, functionSignature: string): Promise&lt;{ content: string } | null&gt;</text><ellipse cx="607.5" cy="334.1321" fill="#84BE84" rx="3" ry="3" style="stroke:#038048;stroke-width:1.0;"/><text fill="#000000" font-family="sans-serif" font-size="14" lengthAdjust="spacing" textLength="301" x="616.5" y="337.9231">findFiles(pattern: string): Promise&lt;string[]&gt;</text><ellipse cx="607.5" cy="350.6204" fill="#84BE84" rx="3" ry="3" style="stroke:#038048;stroke-width:1.0;"/><text fill="#000000" font-family="sans-serif" font-size="14" lengthAdjust="spacing" textLength="652" x="616.5" y="354.4114">findFunctions(filePath: string, functionQuery: string): Promise&lt;{ id: string; signature: string }[]&gt;</text><rect fill="#F24D5C" height="6" style="stroke:#C82930;stroke-width:1.0;" width="6" x="604.5" y="364.1087"/><text fill="#000000" font-family="sans-serif" font-size="14" lengthAdjust="spacing" textLength="330" x="616.5" y="370.8997">saveChunk(chunk: CodeChunk): Promise&lt;void&gt;</text><rect fill="#F24D5C" height="6" style="stroke:#C82930;stroke-width:1.0;" width="6" x="604.5" y="380.597"/><text fill="#000000" font-family="sans-serif" font-size="14" lengthAdjust="spacing" textLength="430" x="616.5" y="387.388">loadChunk(chunkId: string): Promise&lt;{ content: string } | null&gt;</text><rect fill="#F24D5C" height="6" style="stroke:#C82930;stroke-width:1.0;" width="6" x="604.5" y="397.0852"/><text fill="#000000" font-family="sans-serif" font-size="14" lengthAdjust="spacing" textLength="250" x="616.5" y="403.8762">toSafeFileName(name: string): string</text></g><!--class SwiftParser--><g id="elem_SwiftParser"><rect codeLine="32" fill="#F1F1F1" height="97.4648" id="SwiftParser" rx="2.5" ry="2.5" style="stroke:#181818;stroke-width:0.5;" width="488" x="7" y="803.79"/><ellipse cx="208.75" cy="819.79" fill="#ADD1B2" rx="11" ry="11" style="stroke:#181818;stroke-width:1.0;"/><path d="M211.2231,825.9331 Q210.6421,826.2319 210.0029,826.3813 Q209.3638,826.5307 208.6582,826.5307 Q206.1514,826.5307 204.8315,824.8789 Q203.5117,823.227 203.5117,820.1059 Q203.5117,816.9765 204.8315,815.3247 Q206.1514,813.6728 208.6582,813.6728 Q209.3638,813.6728 210.0112,813.8222 Q210.6587,813.9716 211.2231,814.2705 L211.2231,816.9931 Q210.5923,816.4121 209.9988,816.1423 Q209.4053,815.8725 208.7744,815.8725 Q207.4297,815.8725 206.7449,816.9392 Q206.0601,818.0058 206.0601,820.1059 Q206.0601,822.1977 206.7449,823.2644 Q207.4297,824.331 208.7744,824.331 Q209.4053,824.331 209.9988,824.0612 Q210.5923,823.7915 211.2231,823.2104 Z " fill="#000000"/><text fill="#000000" font-family="sans-serif" font-size="14" lengthAdjust="spacing" textLength="76" x="229.25" y="825.081">SwiftParser</text><line style="stroke:#181818;stroke-width:0.5;" x1="8" x2="494" y1="835.79" y2="835.79"/><line style="stroke:#181818;stroke-width:0.5;" x1="8" x2="494" y1="843.79" y2="843.79"/><ellipse cx="18" cy="857.5341" fill="#84BE84" rx="3" ry="3" style="stroke:#038048;stroke-width:1.0;"/><text fill="#000000" font-family="sans-serif" font-size="14" lengthAdjust="spacing" textLength="444" x="27" y="861.3252">constructor(execFn: ExecFunction, readFileFn: ReadFileFunction)</text><ellipse cx="18" cy="874.0224" fill="#84BE84" rx="3" ry="3" style="stroke:#038048;stroke-width:1.0;"/><text fill="#000000" font-family="sans-serif" font-size="14" lengthAdjust="spacing" textLength="347" x="27" y="877.8134">parseFile(filePath: string): Promise&lt;CodeChunk[]&gt;</text><rect fill="#F24D5C" height="6" style="stroke:#C82930;stroke-width:1.0;" width="6" x="15" y="887.5107"/><text fill="#000000" font-family="sans-serif" font-size="14" lengthAdjust="spacing" textLength="462" x="27" y="894.3017">getLineNumber(filePath: string, offset: number): Promise&lt;number&gt;</text></g><!--class KotlinParser--><g id="elem_KotlinParser"><rect codeLine="38" fill="#F1F1F1" height="97.4648" id="KotlinParser" rx="2.5" ry="2.5" style="stroke:#181818;stroke-width:0.5;" width="488" x="530" y="803.79"/><ellipse cx="728.25" cy="819.79" fill="#ADD1B2" rx="11" ry="11" style="stroke:#181818;stroke-width:1.0;"/><path d="M730.7231,825.9331 Q730.1421,826.2319 729.5029,826.3813 Q728.8638,826.5307 728.1582,826.5307 Q725.6514,826.5307 724.3315,824.8789 Q723.0117,823.227 723.0117,820.1059 Q723.0117,816.9765 724.3315,815.3247 Q725.6514,813.6728 728.1582,813.6728 Q728.8638,813.6728 729.5112,813.8222 Q730.1587,813.9716 730.7231,814.2705 L730.7231,816.9931 Q730.0923,816.4121 729.4988,816.1423 Q728.9053,815.8725 728.2744,815.8725 Q726.9297,815.8725 726.2449,816.9392 Q725.5601,818.0058 725.5601,820.1059 Q725.5601,822.1977 726.2449,823.2644 Q726.9297,824.331 728.2744,824.331 Q728.9053,824.331 729.4988,824.0612 Q730.0923,823.7915 730.7231,823.2104 Z " fill="#000000"/><text fill="#000000" font-family="sans-serif" font-size="14" lengthAdjust="spacing" textLength="83" x="748.75" y="825.081">KotlinParser</text><line style="stroke:#181818;stroke-width:0.5;" x1="531" x2="1017" y1="835.79" y2="835.79"/><line style="stroke:#181818;stroke-width:0.5;" x1="531" x2="1017" y1="843.79" y2="843.79"/><ellipse cx="541" cy="857.5341" fill="#84BE84" rx="3" ry="3" style="stroke:#038048;stroke-width:1.0;"/><text fill="#000000" font-family="sans-serif" font-size="14" lengthAdjust="spacing" textLength="444" x="550" y="861.3252">constructor(execFn: ExecFunction, readFileFn: ReadFileFunction)</text><ellipse cx="541" cy="874.0224" fill="#84BE84" rx="3" ry="3" style="stroke:#038048;stroke-width:1.0;"/><text fill="#000000" font-family="sans-serif" font-size="14" lengthAdjust="spacing" textLength="347" x="550" y="877.8134">parseFile(filePath: string): Promise&lt;CodeChunk[]&gt;</text><rect fill="#F24D5C" height="6" style="stroke:#C82930;stroke-width:1.0;" width="6" x="538" y="887.5107"/><text fill="#000000" font-family="sans-serif" font-size="14" lengthAdjust="spacing" textLength="462" x="550" y="894.3017">getLineNumber(filePath: string, offset: number): Promise&lt;number&gt;</text></g><!--class CodeChunk--><g id="elem_CodeChunk"><rect codeLine="44" fill="#F1F1F1" height="245.8594" id="CodeChunk" rx="2.5" ry="2.5" style="stroke:#181818;stroke-width:0.5;" width="133" x="707.5" y="978.25"/><ellipse cx="731.5" cy="994.25" fill="#B4A7E5" rx="11" ry="11" style="stroke:#181818;stroke-width:1.0;"/><path d="M727.9277,990.5151 L727.9277,988.3569 L735.3071,988.3569 L735.3071,990.5151 L732.8418,990.5151 L732.8418,998.5918 L735.3071,998.5918 L735.3071,1000.75 L727.9277,1000.75 L727.9277,998.5918 L730.3931,998.5918 L730.3931,990.5151 Z " fill="#000000"/><text fill="#000000" font-family="sans-serif" font-size="14" font-style="italic" lengthAdjust="spacing" textLength="81" x="747.5" y="999.541">CodeChunk</text><line style="stroke:#181818;stroke-width:0.5;" x1="708.5" x2="839.5" y1="1010.25" y2="1010.25"/><text fill="#000000" font-family="sans-serif" font-size="14" lengthAdjust="spacing" textLength="61" x="713.5" y="1027.7852">id: string</text><text fill="#000000" font-family="sans-serif" font-size="14" lengthAdjust="spacing" textLength="86" x="713.5" y="1044.2734">name: string</text><text fill="#000000" font-family="sans-serif" font-size="14" lengthAdjust="spacing" textLength="113" x="713.5" y="1060.7617">signature: string</text><text fill="#000000" font-family="sans-serif" font-size="14" lengthAdjust="spacing" textLength="77" x="713.5" y="1077.25">type: string</text><text fill="#000000" font-family="sans-serif" font-size="14" lengthAdjust="spacing" textLength="100" x="713.5" y="1093.7383">content: string</text><text fill="#000000" font-family="sans-serif" font-size="14" lengthAdjust="spacing" textLength="99" x="713.5" y="1110.2266">filePath: string</text><text fill="#000000" font-family="sans-serif" font-size="14" lengthAdjust="spacing" textLength="121" x="713.5" y="1126.7148">startLine: number</text><text fill="#000000" font-family="sans-serif" font-size="14" lengthAdjust="spacing" textLength="116" x="713.5" y="1143.2031">endLine: number</text><text fill="#000000" font-family="sans-serif" font-size="14" lengthAdjust="spacing" textLength="101" x="713.5" y="1159.6914">offset: number</text><text fill="#000000" font-family="sans-serif" font-size="14" lengthAdjust="spacing" textLength="106" x="713.5" y="1176.1797">length: number</text><text fill="#000000" font-family="sans-serif" font-size="14" lengthAdjust="spacing" textLength="88" x="713.5" y="1192.668">calls: string[]</text><text fill="#000000" font-family="sans-serif" font-size="14" lengthAdjust="spacing" textLength="104" x="713.5" y="1209.1563">children?: any[]</text><line style="stroke:#181818;stroke-width:0.5;" x1="708.5" x2="839.5" y1="1216.1094" y2="1216.1094"/></g><!--link McpServer to AnalysisService--><g id="link_McpServer_AnalysisService"><path codeLine="59" d="M938,88.39 C938,109.6 938,130.94 938,158.51 " fill="none" id="McpServer-to-AnalysisService" style="stroke:#181818;stroke-width:1.0;stroke-dasharray:7.0,7.0;"/><polygon fill="#181818" points="938,164.51,942,155.51,938,159.51,934,155.51,938,164.51" style="stroke:#181818;stroke-width:1.0;"/><text fill="#000000" font-family="sans-serif" font-size="13" lengthAdjust="spacing" textLength="29" x="939" y="131.5384">uses</text></g><!--link AnalysisService to ParserFactory--><g id="link_AnalysisService_ParserFactory"><path codeLine="60" d="M868.12,411.15 C852.61,438.29 840.0381,460.2813 827.4481,482.3013 " fill="none" id="AnalysisService-to-ParserFactory" style="stroke:#181818;stroke-width:1.0;stroke-dasharray:7.0,7.0;"/><polygon fill="#181818" points="824.47,487.51,832.4096,481.6823,826.9518,483.1694,825.4647,477.7115,824.47,487.51" style="stroke:#181818;stroke-width:1.0;"/><text fill="#000000" font-family="sans-serif" font-size="13" lengthAdjust="spacing" textLength="29" x="851.72" y="454.3984">uses</text></g><!--link ParserFactory to IParser--><g id="link_ParserFactory_IParser"><path codeLine="61" d="M789.91,585.64 C786.24,610.52 782.7469,634.2544 779.5069,656.1844 " fill="none" id="ParserFactory-to-IParser" style="stroke:#181818;stroke-width:1.0;stroke-dasharray:7.0,7.0;"/><polygon fill="#181818" points="778.63,662.12,783.9025,653.8013,779.3608,657.1737,775.9884,652.632,778.63,662.12" style="stroke:#181818;stroke-width:1.0;"/><text fill="#000000" font-family="sans-serif" font-size="13" lengthAdjust="spacing" textLength="59" x="786.5" y="628.8684">&#171;creates&#187;</text></g><!--reverse link IParser to SwiftParser--><g id="link_IParser_SwiftParser"><path codeLine="62" d="M650.6007,732.3442 C577.3007,754.2042 495.7,778.54 412.66,803.3 " fill="none" id="IParser-backto-SwiftParser" style="stroke:#181818;stroke-width:1.0;stroke-dasharray:7.0,7.0;"/><polygon fill="none" points="667.85,727.2,648.886,726.5944,652.3155,738.0939,667.85,727.2" style="stroke:#181818;stroke-width:1.0;"/><text fill="#000000" font-family="sans-serif" font-size="13" lengthAdjust="spacing" textLength="88" x="560.34" y="770.3584">&#171;implements&#187;</text></g><!--reverse link IParser to KotlinParser--><g id="link_IParser_KotlinParser"><path codeLine="63" d="M774,745.11 C774,767 774,778.58 774,803.4 " fill="none" id="IParser-backto-KotlinParser" style="stroke:#181818;stroke-width:1.0;stroke-dasharray:7.0,7.0;"/><polygon fill="none" points="774,727.11,768,745.11,780,745.11,774,727.11" style="stroke:#181818;stroke-width:1.0;"/><text fill="#000000" font-family="sans-serif" font-size="13" lengthAdjust="spacing" textLength="88" x="775" y="770.3584">&#171;implements&#187;</text></g><!--link AnalysisService to CodeChunk--><g id="link_AnalysisService_CodeChunk"><path codeLine="64" d="M1033.78,411.26 C1054.83,449.02 1071,492.14 1071,535.57 C1071,535.57 1071,535.57 1071,853.52 C1071,972.49 933.8278,1042.9263 846.2578,1076.2463 " fill="none" id="AnalysisService-to-CodeChunk" style="stroke:#181818;stroke-width:1.0;"/><polygon fill="#181818" points="840.65,1078.38,850.4842,1078.9179,845.3231,1076.6019,847.6392,1071.4409,840.65,1078.38" style="stroke:#181818;stroke-width:1.0;"/><text fill="#000000" font-family="sans-serif" font-size="13" lengthAdjust="spacing" textLength="45" x="1072" y="699.6084">creates</text></g><!--link SwiftParser to CodeChunk--><g id="link_SwiftParser_CodeChunk"><path codeLine="65" d="M353.08,901.66 C457.72,951.01 612.0033,1023.7805 701.6033,1066.0405 " fill="none" id="SwiftParser-to-CodeChunk" style="stroke:#181818;stroke-width:1.0;"/><polygon fill="#181818" points="707.03,1068.6,700.5963,1061.1429,702.5078,1066.4671,697.1836,1068.3785,707.03,1068.6" style="stroke:#181818;stroke-width:1.0;"/><text fill="#000000" font-family="sans-serif" font-size="13" lengthAdjust="spacing" textLength="45" x="451.28" y="944.8184">creates</text></g><!--link KotlinParser to CodeChunk--><g id="link_KotlinParser_CodeChunk"><path codeLine="66" d="M774,901.66 C774,923.67 774,944.85 774,971.96 " fill="none" id="KotlinParser-to-CodeChunk" style="stroke:#181818;stroke-width:1.0;"/><polygon fill="#181818" points="774,977.96,778,968.96,774,972.96,770,968.96,774,977.96" style="stroke:#181818;stroke-width:1.0;"/><text fill="#000000" font-family="sans-serif" font-size="13" lengthAdjust="spacing" textLength="45" x="775" y="944.8184">creates</text></g><!--SRC=[tLLDZzCm4BttL_YOYhO_85H1QA5I1RigbDjg3rvdaXfSExATGkdkVsTin_bgomguSMawp-CtRpviCq6D8RUise8-W2Qd2I6l2DD0BRHeClMeXf8R2_gBKWAXvyc4IpGBoe2iDrIRTd_bZ1KNa1Juiw5sbn9ZDPVbD2KRhVRSmF96vN2pg-Mt-uVCaJ4l9V2iABDA7ptT7BTIorbWrIObjxHQ1hfP39pvk8rZ51gM4a5bMTCIeePPmvJ6pIZge7ZUfoZ1NjazRRTrejzAAew66rSkZjK8idsK7DFz2ioEP0-ITyxC6UOTrp5EQ8IIQDMk6CcPH-WATR5_GXCcgSBtIirTcg5KcA2F7sZN-GNdamjlGTguHfx94v6r4852O95NjMIMeygrVAdV9s9uAQcjDNI48Nql9r85MMEY6IcQzUsOvGya5rpcJgT9AcfnGkG5ZW14ONv7JF8tgZxLe8yN5V6sjg-lLm27d1wWrv6q6v4B_PiJeMZ-RmsS4wksjF3dz8xk8P7uqsDfnh0TykrtNjZ1CUzF9_m0ji9oldVVfYOpF8dKrzkjV8x_czNfNruLJZcEoqSkuQxUF-8HFU-AAWe3cBRq3Zsc0FJkcm_A2Yx_exIwExcbztbrOuX6lzLedeqbOlPOzStH924obkTuBDK-WoWHCP3v21bcWO00MJgU5c1K21DvxnySikCYro3Vf7ZX7H72JBjNQx78pkxWbDG6p6GCEzVX6zCu3a7d5j-qb2oNuKKqMJRf7uD5NIsUXevyNmdOOwMSxs2uNd8UAvtFiruBq-PHDWC1rtm6WQyv_G80]--></g></svg>