<svg xmlns="http://www.w3.org/2000/svg" xmlns:xlink="http://www.w3.org/1999/xlink" contentStyleType="text/css" height="686px" preserveAspectRatio="none" style="width:1097px;height:686px;background:#FFFFFF;" version="1.1" viewBox="0 0 1097 686" width="1097px" zoomAndPan="magnify"><defs/><g><!--entity LLM--><g id="elem_LLM"><polygon fill="#F1F1F1" points="630.5,16,640.5,6,744.5,6,744.5,42.4883,734.5,52.4883,630.5,52.4883,630.5,16" style="stroke:#181818;stroke-width:0.5;"/><line style="stroke:#181818;stroke-width:0.5;" x1="734.5" x2="744.5" y1="16" y2="6"/><line style="stroke:#181818;stroke-width:0.5;" x1="630.5" x2="734.5" y1="16" y2="16"/><line style="stroke:#181818;stroke-width:0.5;" x1="734.5" x2="734.5" y1="16" y2="52.4883"/><text fill="#000000" font-family="sans-serif" font-size="14" lengthAdjust="spacing" textLength="74" x="645.5" y="39.5352">LLM/Agent</text></g><!--entity Server--><g id="elem_Server"><polygon fill="#F1F1F1" points="629,139.49,639,129.49,746,129.49,746,165.9783,736,175.9783,629,175.9783,629,139.49" style="stroke:#181818;stroke-width:0.5;"/><line style="stroke:#181818;stroke-width:0.5;" x1="736" x2="746" y1="139.49" y2="129.49"/><line style="stroke:#181818;stroke-width:0.5;" x1="629" x2="736" y1="139.49" y2="139.49"/><line style="stroke:#181818;stroke-width:0.5;" x1="736" x2="736" y1="139.49" y2="175.9783"/><text fill="#000000" font-family="sans-serif" font-size="14" lengthAdjust="spacing" textLength="77" x="644" y="163.0252">MCP Server</text></g><!--entity AS--><g id="elem_AS"><polygon fill="#F1F1F1" points="613.5,262.98,623.5,252.98,761.5,252.98,761.5,289.4683,751.5,299.4683,613.5,299.4683,613.5,262.98" style="stroke:#181818;stroke-width:0.5;"/><line style="stroke:#181818;stroke-width:0.5;" x1="751.5" x2="761.5" y1="262.98" y2="252.98"/><line style="stroke:#181818;stroke-width:0.5;" x1="613.5" x2="751.5" y1="262.98" y2="262.98"/><line style="stroke:#181818;stroke-width:0.5;" x1="751.5" x2="751.5" y1="262.98" y2="299.4683"/><text fill="#000000" font-family="sans-serif" font-size="14" lengthAdjust="spacing" textLength="108" x="628.5" y="286.5152">Analysis Service</text></g><!--entity PF--><g id="elem_PF"><polygon fill="#F1F1F1" points="16,386.47,26,376.47,153,376.47,153,412.9583,143,422.9583,16,422.9583,16,386.47" style="stroke:#181818;stroke-width:0.5;"/><line style="stroke:#181818;stroke-width:0.5;" x1="143" x2="153" y1="386.47" y2="376.47"/><line style="stroke:#181818;stroke-width:0.5;" x1="16" x2="143" y1="386.47" y2="386.47"/><line style="stroke:#181818;stroke-width:0.5;" x1="143" x2="143" y1="386.47" y2="422.9583"/><text fill="#000000" font-family="sans-serif" font-size="14" lengthAdjust="spacing" textLength="97" x="31" y="410.0052">Parser Factory</text></g><!--entity Parser--><g id="elem_Parser"><polygon fill="#F1F1F1" points="524,509.95,534,499.95,825,499.95,825,536.4383,815,546.4383,524,546.4383,524,509.95" style="stroke:#181818;stroke-width:0.5;"/><line style="stroke:#181818;stroke-width:0.5;" x1="815" x2="825" y1="509.95" y2="499.95"/><line style="stroke:#181818;stroke-width:0.5;" x1="524" x2="815" y1="509.95" y2="509.95"/><line style="stroke:#181818;stroke-width:0.5;" x1="815" x2="815" y1="509.95" y2="546.4383"/><text fill="#000000" font-family="sans-serif" font-size="14" lengthAdjust="spacing" textLength="261" x="539" y="533.4852">IParser (e.g., SwiftParser, KotlinParser)</text></g><!--entity ELP--><g id="elem_ELP"><polygon fill="#F1F1F1" points="463.5,633.44,473.5,623.44,885.5,623.44,885.5,659.9283,875.5,669.9283,463.5,669.9283,463.5,633.44" style="stroke:#181818;stroke-width:0.5;"/><line style="stroke:#181818;stroke-width:0.5;" x1="875.5" x2="885.5" y1="633.44" y2="623.44"/><line style="stroke:#181818;stroke-width:0.5;" x1="463.5" x2="875.5" y1="633.44" y2="633.44"/><line style="stroke:#181818;stroke-width:0.5;" x1="875.5" x2="875.5" y1="633.44" y2="669.9283"/><text fill="#000000" font-family="sans-serif" font-size="14" lengthAdjust="spacing" textLength="382" x="478.5" y="656.9752">External Language Parser (e.g., SourceKitten, Kotlin CLI)</text></g><!--entity FS--><g id="elem_FS"><polygon fill="#F1F1F1" points="319.5,386.47,329.5,376.47,435.5,376.47,435.5,412.9583,425.5,422.9583,319.5,422.9583,319.5,386.47" style="stroke:#181818;stroke-width:0.5;"/><line style="stroke:#181818;stroke-width:0.5;" x1="425.5" x2="435.5" y1="386.47" y2="376.47"/><line style="stroke:#181818;stroke-width:0.5;" x1="319.5" x2="425.5" y1="386.47" y2="386.47"/><line style="stroke:#181818;stroke-width:0.5;" x1="425.5" x2="425.5" y1="386.47" y2="422.9583"/><text fill="#000000" font-family="sans-serif" font-size="14" lengthAdjust="spacing" textLength="76" x="334.5" y="410.0052">File System</text></g><!--entity Cache--><g id="elem_Cache"><polygon fill="#F1F1F1" points="575,386.47,585,376.47,738,376.47,738,412.9583,728,422.9583,575,422.9583,575,386.47" style="stroke:#181818;stroke-width:0.5;"/><line style="stroke:#181818;stroke-width:0.5;" x1="728" x2="738" y1="386.47" y2="376.47"/><line style="stroke:#181818;stroke-width:0.5;" x1="575" x2="728" y1="386.47" y2="386.47"/><line style="stroke:#181818;stroke-width:0.5;" x1="728" x2="728" y1="386.47" y2="422.9583"/><text fill="#000000" font-family="sans-serif" font-size="14" lengthAdjust="spacing" textLength="123" x="590" y="410.0052">In-memory Cache</text></g><!--entity GL--><g id="elem_GL"><polygon fill="#F1F1F1" points="839,386.47,849,376.47,962,376.47,962,412.9583,952,422.9583,839,422.9583,839,386.47" style="stroke:#181818;stroke-width:0.5;"/><line style="stroke:#181818;stroke-width:0.5;" x1="952" x2="962" y1="386.47" y2="376.47"/><line style="stroke:#181818;stroke-width:0.5;" x1="839" x2="952" y1="386.47" y2="386.47"/><line style="stroke:#181818;stroke-width:0.5;" x1="952" x2="952" y1="386.47" y2="422.9583"/><text fill="#000000" font-family="sans-serif" font-size="14" lengthAdjust="spacing" textLength="83" x="854" y="410.0052">Glob Library</text></g><!--link LLM to Server--><g id="link_LLM_Server"><path d="M638.94,52.79 C627.58,60.52 616.93,70.36 610.5,82.49 C600.65,101.07 610.779,113.9972 630.229,125.9572 " fill="none" id="LLM-to-Server" style="stroke:#181818;stroke-width:1.0;"/><polygon fill="#181818" points="635.34,129.1,629.7687,120.9784,631.0808,126.481,625.5782,127.7931,635.34,129.1" style="stroke:#181818;stroke-width:1.0;"/><text fill="#000000" font-family="sans-serif" font-size="13" lengthAdjust="spacing" textLength="106" x="611.5" y="96.0584">Tool Calls (JSON)</text></g><!--link Server to LLM--><g id="link_Server_LLM"><path d="M709,129.17 C718.9,116.03 727.48,98.86 722.5,82.49 C719.29,71.94 716.6749,66.4498 710.4349,57.7798 " fill="none" id="Server-to-LLM" style="stroke:#181818;stroke-width:1.0;"/><polygon fill="#181818" points="706.93,52.91,708.9408,62.5514,709.8508,56.9682,715.434,57.8781,706.93,52.91" style="stroke:#181818;stroke-width:1.0;"/><text fill="#000000" font-family="sans-serif" font-size="13" lengthAdjust="spacing" textLength="121" x="724.96" y="96.0584">Tool Results (JSON)</text></g><!--link Server to AS--><g id="link_Server_AS"><path d="M635.63,176.35 C624,184 613.15,193.78 606.5,205.98 C596.27,224.74 606.5898,237.6255 626.6798,249.4555 " fill="none" id="Server-to-AS" style="stroke:#181818;stroke-width:1.0;"/><polygon fill="#181818" points="631.85,252.5,626.1243,244.4865,627.5415,249.9629,622.065,251.3801,631.85,252.5" style="stroke:#181818;stroke-width:1.0;"/><text fill="#000000" font-family="sans-serif" font-size="13" lengthAdjust="spacing" textLength="115" x="607.5" y="219.5484">Tool Inputs (JSON)</text></g><!--link AS to Server--><g id="link_AS_Server"><path d="M712.31,252.6 C723.51,239.58 733.11,222.54 727.5,205.98 C723.83,195.16 720.7424,189.4531 713.6824,180.8731 " fill="none" id="AS-to-Server" style="stroke:#181818;stroke-width:1.0;"/><polygon fill="#181818" points="709.87,176.24,712.4998,185.7313,713.047,180.1009,718.6773,180.6481,709.87,176.24" style="stroke:#181818;stroke-width:1.0;"/><text fill="#000000" font-family="sans-serif" font-size="13" lengthAdjust="spacing" textLength="121" x="730.15" y="219.5484">Tool Results (JSON)</text></g><!--link AS to GL--><g id="link_AS_GL"><path d="M738.73,299.96 C757.22,308.64 778.08,318.99 796.5,329.47 C821.58,343.73 843.7503,358.4254 863.9903,372.5554 " fill="none" id="AS-to-GL" style="stroke:#181818;stroke-width:1.0;"/><polygon fill="#181818" points="868.91,375.99,863.8201,367.5583,864.8102,373.1279,859.2407,374.118,868.91,375.99" style="stroke:#181818;stroke-width:1.0;"/><text fill="#000000" font-family="sans-serif" font-size="13" lengthAdjust="spacing" textLength="77" x="823.92" y="343.0384">File Patterns</text></g><!--link GL to AS--><g id="link_GL_AS"><path d="M911.21,376.17 C916.51,361.4 919.81,342.48 909.5,329.47 C891.19,306.34 824.9378,293.2298 767.7778,285.6398 " fill="none" id="GL-to-AS" style="stroke:#181818;stroke-width:1.0;"/><polygon fill="#181818" points="761.83,284.85,770.2252,289.9999,766.7865,285.5081,771.2782,282.0695,761.83,284.85" style="stroke:#181818;stroke-width:1.0;"/><text fill="#000000" font-family="sans-serif" font-size="13" lengthAdjust="spacing" textLength="60" x="916.96" y="343.0384">File Paths</text></g><!--link AS to PF--><g id="link_AS_PF"><path d="M613.04,277.69 C451.18,279.48 78.66,288.1 40.5,329.47 C27.56,343.49 35.8715,357.6759 50.8815,371.9459 " fill="none" id="AS-to-PF" style="stroke:#181818;stroke-width:1.0;"/><polygon fill="#181818" points="55.23,376.08,51.4633,366.9799,51.6063,372.6349,45.9512,372.7778,55.23,376.08" style="stroke:#181818;stroke-width:1.0;"/><text fill="#000000" font-family="sans-serif" font-size="13" lengthAdjust="spacing" textLength="198" x="41.5" y="343.0384">Request Parser (Language Type)</text></g><!--link PF to Parser--><g id="link_PF_Parser"><path d="M153.34,414.88 C254.33,435.68 437.8332,473.4703 558.3632,498.2803 " fill="none" id="PF-to-Parser" style="stroke:#181818;stroke-width:1.0;"/><polygon fill="#181818" points="564.24,499.49,556.2313,493.7576,559.3427,498.4819,554.6184,501.5933,564.24,499.49" style="stroke:#181818;stroke-width:1.0;"/><text fill="#000000" font-family="sans-serif" font-size="13" lengthAdjust="spacing" textLength="147" x="415.82" y="466.5184">Returns Parser Instance</text></g><!--link Parser to ELP--><g id="link_Parser_ELP"><path d="M642.87,546.83 C629.17,559.6 617.65,576.38 624.5,593.44 C628.99,604.63 632.8646,610.5604 641.3046,618.8704 " fill="none" id="Parser-to-ELP" style="stroke:#181818;stroke-width:1.0;"/><polygon fill="#181818" points="645.58,623.08,641.9732,613.9153,642.0171,619.572,636.3604,619.6159,645.58,623.08" style="stroke:#181818;stroke-width:1.0;"/><text fill="#000000" font-family="sans-serif" font-size="13" lengthAdjust="spacing" textLength="53" x="625.5" y="590.0084">File Path</text></g><!--link ELP to Parser--><g id="link_ELP_Parser"><path d="M679.24,623.16 C680.95,613.99 682.66,603.25 683.5,593.44 C684.83,577.86 683.6797,566.2908 681.0697,552.8008 " fill="none" id="ELP-to-Parser" style="stroke:#181818;stroke-width:1.0;"/><polygon fill="#181818" points="679.93,546.91,677.7124,556.506,680.8798,551.819,685.5668,554.9863,679.93,546.91" style="stroke:#181818;stroke-width:1.0;"/><text fill="#000000" font-family="sans-serif" font-size="13" lengthAdjust="spacing" textLength="158" x="684.89" y="590.0084">Raw Parser Output (JSON)</text></g><!--link Parser to AS--><g id="link_Parser_AS"><path d="M825.14,508.41 C882.19,495.24 942.28,470.19 979.5,422.95 C1034.97,352.54 999.69,346.36 985.5,329.47 C957.46,296.08 846.4708,284.3616 767.6908,280.0016 " fill="none" id="Parser-to-AS" style="stroke:#181818;stroke-width:1.0;"/><polygon fill="#181818" points="761.7,279.67,770.4652,284.1612,766.6924,279.9463,770.9073,276.1734,761.7,279.67" style="stroke:#181818;stroke-width:1.0;"/><text fill="#000000" font-family="sans-serif" font-size="13" lengthAdjust="spacing" textLength="81" x="1008.11" y="404.7784">CodeChunk[]</text></g><!--link AS to Cache--><g id="link_AS_Cache"><path d="M648.65,299.92 C638.59,307.88 629.03,317.8 623.5,329.47 C616.08,345.11 621.0696,357.943 631.3596,371.483 " fill="none" id="AS-to-Cache" style="stroke:#181818;stroke-width:1.0;"/><polygon fill="#181818" points="634.99,376.26,632.7291,366.6742,631.9647,372.2791,626.3597,371.5147,634.99,376.26" style="stroke:#181818;stroke-width:1.0;"/><text fill="#000000" font-family="sans-serif" font-size="13" lengthAdjust="spacing" textLength="81" x="624.5" y="343.0384">CodeChunk[]</text></g><!--link Cache to AS--><g id="link_Cache_AS"><path d="M688.26,375.99 C697.16,367.8 705.71,357.75 710.5,346.47 C716.98,331.19 713.7002,318.6625 706.1302,304.9525 " fill="none" id="Cache-to-AS" style="stroke:#181818;stroke-width:1.0;"/><polygon fill="#181818" points="703.23,299.7,704.0786,309.5122,705.6468,304.0771,711.082,305.6453,703.23,299.7" style="stroke:#181818;stroke-width:1.0;"/><text fill="#000000" font-family="sans-serif" font-size="13" lengthAdjust="spacing" textLength="73" x="714.21" y="343.0384">CodeChunk</text></g><!--link AS to FS--><g id="link_AS_FS"><path d="M613.02,280.93 C495.71,287.55 278.77,303.21 255.5,329.47 C231.35,356.71 271.2086,374.2192 313.3886,385.3492 " fill="none" id="AS-to-FS" style="stroke:#181818;stroke-width:1.0;"/><polygon fill="#181818" points="319.19,386.88,311.5084,380.7162,314.3555,385.6043,309.4673,388.4514,319.19,386.88" style="stroke:#181818;stroke-width:1.0;"/><text fill="#000000" font-family="sans-serif" font-size="13" lengthAdjust="spacing" textLength="142" x="256.5" y="343.0384">CodeChunk (JSON File)</text></g><!--link FS to AS--><g id="link_FS_AS"><path d="M401.15,376.27 C418.52,360.96 443.38,341.36 468.5,329.47 C514.16,307.84 563.6306,295.7686 607.2706,288.0986 " fill="none" id="FS-to-AS" style="stroke:#181818;stroke-width:1.0;"/><polygon fill="#181818" points="613.18,287.06,603.6235,284.6783,608.2555,287.9255,605.0083,292.5575,613.18,287.06" style="stroke:#181818;stroke-width:1.0;"/><text fill="#000000" font-family="sans-serif" font-size="13" lengthAdjust="spacing" textLength="142" x="469.5" y="343.0384">CodeChunk (JSON File)</text></g><!--SRC=[RP7BRi8m44Nt_eeHAv20xhke54K4fPWI4NPL5suw3L6DG_qepT_NyICYb9rdpfqx3uls0s52wVOXgL7e2J05DYB2vRTf0INA7vGE-6TWYM2yKutFDXKwHL86MZ2fK4B6AjtAph4Y2omFS8hBUZc7yj9yQf-QmwRLl14-claozmwbgr-DqZO6oaHjM8rmuzKQMU6cqHf5D8EKvjvgHOlWapKSeUoKnfCZMPmx5uiJdkp8aBBgw9Tohy3Nl7q7shnB5hPQKqBimM2nU0htWKSuj2stPPmhc3wNkvSP2QXN9MLKvE9iz20X5lHyJIrt0nPCz-igObD3PIH7DLGKcStlyTkWqiD1XWiTkZFEYDKugQUzN1jh7HEvK9g92ac8UwqzrtK_qiTZ3tQ9mSvekqjSvSh4pPpQswL78xvUtuQXtLLlM43PgCQRkZdiaRBoZkr8uet_YuREus_Qep9St_ke_bllY_u0]--></g></svg>