<svg xmlns="http://www.w3.org/2000/svg" xmlns:xlink="http://www.w3.org/1999/xlink" contentStyleType="text/css" height="682px" preserveAspectRatio="none" style="width:1553px;height:682px;background:#FFFFFF;" version="1.1" viewBox="0 0 1553 682" width="1553px" zoomAndPan="magnify"><defs/><g><rect fill="#FFFFFF" height="427.3027" style="stroke:#181818;stroke-width:1.0;" width="10" x="455" y="156.1094"/><rect fill="#FFFFFF" height="368.6816" style="stroke:#181818;stroke-width:1.0;" width="10" x="655" y="185.4199"/><rect fill="#FFFFFF" height="29.3105" style="stroke:#181818;stroke-width:1.0;" width="10" x="807" y="214.7305"/><rect fill="#FFFFFF" height="29.3105" style="stroke:#181818;stroke-width:1.0;" width="10" x="1128" y="385.5938"/><rect fill="#FFFFFF" height="29.3105" style="stroke:#181818;stroke-width:1.0;" width="10" x="1228" y="459.1699"/><rect fill="#FFFFFF" height="29.3105" style="stroke:#181818;stroke-width:1.0;" width="10" x="1322.5" y="302.6621"/><rect fill="#FFFFFF" height="251.4395" style="stroke:#181818;stroke-width:1.0;" width="10" x="1492" y="273.3516"/><rect fill="none" height="149.5078" style="stroke:#000000;stroke-width:1.5;" width="463.5" x="1072.5" y="346.9727"/><line style="stroke:#181818;stroke-width:0.5;stroke-dasharray:5.0,5.0;" x1="45" x2="45" y1="81.4883" y2="601.4121"/><line style="stroke:#181818;stroke-width:0.5;stroke-dasharray:5.0,5.0;" x1="459.5" x2="459.5" y1="81.4883" y2="601.4121"/><line style="stroke:#181818;stroke-width:0.5;stroke-dasharray:5.0,5.0;" x1="660" x2="660" y1="81.4883" y2="601.4121"/><line style="stroke:#181818;stroke-width:0.5;stroke-dasharray:5.0,5.0;" x1="811.5" x2="811.5" y1="81.4883" y2="601.4121"/><line style="stroke:#181818;stroke-width:0.5;stroke-dasharray:5.0,5.0;" x1="920.5" x2="920.5" y1="81.4883" y2="601.4121"/><line style="stroke:#181818;stroke-width:0.5;stroke-dasharray:5.0,5.0;" x1="1023.5" x2="1023.5" y1="81.4883" y2="601.4121"/><line style="stroke:#181818;stroke-width:0.5;stroke-dasharray:5.0,5.0;" x1="1132.5" x2="1132.5" y1="81.4883" y2="601.4121"/><line style="stroke:#181818;stroke-width:0.5;stroke-dasharray:5.0,5.0;" x1="1232.5" x2="1232.5" y1="81.4883" y2="601.4121"/><line style="stroke:#181818;stroke-width:0.5;stroke-dasharray:5.0,5.0;" x1="1327.5" x2="1327.5" y1="81.4883" y2="601.4121"/><line style="stroke:#181818;stroke-width:0.5;stroke-dasharray:5.0,5.0;" x1="1497" x2="1497" y1="81.4883" y2="601.4121"/><text fill="#000000" font-family="sans-serif" font-size="14" lengthAdjust="spacing" textLength="74" x="5" y="78.5352">LLM/Agent</text><ellipse cx="45" cy="13.5" fill="#E2E2F0" rx="8" ry="8" style="stroke:#181818;stroke-width:0.5;"/><path d="M45,21.5 L45,48.5 M32,29.5 L58,29.5 M45,48.5 L32,63.5 M45,48.5 L58,63.5 " fill="none" style="stroke:#181818;stroke-width:0.5;"/><text fill="#000000" font-family="sans-serif" font-size="14" lengthAdjust="spacing" textLength="74" x="5" y="613.9473">LLM/Agent</text><ellipse cx="45" cy="625.4004" fill="#E2E2F0" rx="8" ry="8" style="stroke:#181818;stroke-width:0.5;"/><path d="M45,633.4004 L45,660.4004 M32,641.4004 L58,641.4004 M45,660.4004 L32,675.4004 M45,660.4004 L58,675.4004 " fill="none" style="stroke:#181818;stroke-width:0.5;"/><rect fill="#E2E2F0" height="30.4883" rx="2.5" ry="2.5" style="stroke:#181818;stroke-width:0.5;" width="91" x="414.5" y="50"/><text fill="#000000" font-family="sans-serif" font-size="14" lengthAdjust="spacing" textLength="77" x="421.5" y="70.5352">MCP Server</text><rect fill="#E2E2F0" height="30.4883" rx="2.5" ry="2.5" style="stroke:#181818;stroke-width:0.5;" width="91" x="414.5" y="600.4121"/><text fill="#000000" font-family="sans-serif" font-size="14" lengthAdjust="spacing" textLength="77" x="421.5" y="620.9473">MCP Server</text><rect fill="#E2E2F0" height="30.4883" rx="2.5" ry="2.5" style="stroke:#181818;stroke-width:0.5;" width="118" x="601" y="50"/><text fill="#000000" font-family="sans-serif" font-size="14" lengthAdjust="spacing" textLength="104" x="608" y="70.5352">AnalysisService</text><rect fill="#E2E2F0" height="30.4883" rx="2.5" ry="2.5" style="stroke:#181818;stroke-width:0.5;" width="118" x="601" y="600.4121"/><text fill="#000000" font-family="sans-serif" font-size="14" lengthAdjust="spacing" textLength="104" x="608" y="620.9473">AnalysisService</text><rect fill="#E2E2F0" height="30.4883" rx="2.5" ry="2.5" style="stroke:#181818;stroke-width:0.5;" width="107" x="758.5" y="50"/><text fill="#000000" font-family="sans-serif" font-size="14" lengthAdjust="spacing" textLength="93" x="765.5" y="70.5352">ParserFactory</text><rect fill="#E2E2F0" height="30.4883" rx="2.5" ry="2.5" style="stroke:#181818;stroke-width:0.5;" width="107" x="758.5" y="600.4121"/><text fill="#000000" font-family="sans-serif" font-size="14" lengthAdjust="spacing" textLength="93" x="765.5" y="620.9473">ParserFactory</text><rect fill="#E2E2F0" height="30.4883" rx="2.5" ry="2.5" style="stroke:#181818;stroke-width:0.5;" width="90" x="875.5" y="50"/><text fill="#000000" font-family="sans-serif" font-size="14" lengthAdjust="spacing" textLength="76" x="882.5" y="70.5352">SwiftParser</text><rect fill="#E2E2F0" height="30.4883" rx="2.5" ry="2.5" style="stroke:#181818;stroke-width:0.5;" width="90" x="875.5" y="600.4121"/><text fill="#000000" font-family="sans-serif" font-size="14" lengthAdjust="spacing" textLength="76" x="882.5" y="620.9473">SwiftParser</text><rect fill="#E2E2F0" height="30.4883" rx="2.5" ry="2.5" style="stroke:#181818;stroke-width:0.5;" width="97" x="975.5" y="50"/><text fill="#000000" font-family="sans-serif" font-size="14" lengthAdjust="spacing" textLength="83" x="982.5" y="70.5352">KotlinParser</text><rect fill="#E2E2F0" height="30.4883" rx="2.5" ry="2.5" style="stroke:#181818;stroke-width:0.5;" width="97" x="975.5" y="600.4121"/><text fill="#000000" font-family="sans-serif" font-size="14" lengthAdjust="spacing" textLength="83" x="982.5" y="620.9473">KotlinParser</text><rect fill="#E2E2F0" height="30.4883" rx="2.5" ry="2.5" style="stroke:#181818;stroke-width:0.5;" width="101" x="1082.5" y="50"/><text fill="#000000" font-family="sans-serif" font-size="14" lengthAdjust="spacing" textLength="87" x="1089.5" y="70.5352">SourceKitten</text><rect fill="#E2E2F0" height="30.4883" rx="2.5" ry="2.5" style="stroke:#181818;stroke-width:0.5;" width="101" x="1082.5" y="600.4121"/><text fill="#000000" font-family="sans-serif" font-size="14" lengthAdjust="spacing" textLength="87" x="1089.5" y="620.9473">SourceKitten</text><rect fill="#E2E2F0" height="30.4883" rx="2.5" ry="2.5" style="stroke:#181818;stroke-width:0.5;" width="79" x="1193.5" y="50"/><text fill="#000000" font-family="sans-serif" font-size="14" lengthAdjust="spacing" textLength="65" x="1200.5" y="70.5352">Kotlin CLI</text><rect fill="#E2E2F0" height="30.4883" rx="2.5" ry="2.5" style="stroke:#181818;stroke-width:0.5;" width="79" x="1193.5" y="600.4121"/><text fill="#000000" font-family="sans-serif" font-size="14" lengthAdjust="spacing" textLength="65" x="1200.5" y="620.9473">Kotlin CLI</text><rect fill="#E2E2F0" height="30.4883" rx="2.5" ry="2.5" style="stroke:#181818;stroke-width:0.5;" width="90" x="1282.5" y="50"/><text fill="#000000" font-family="sans-serif" font-size="14" lengthAdjust="spacing" textLength="76" x="1289.5" y="70.5352">File System</text><rect fill="#E2E2F0" height="30.4883" rx="2.5" ry="2.5" style="stroke:#181818;stroke-width:0.5;" width="90" x="1282.5" y="600.4121"/><text fill="#000000" font-family="sans-serif" font-size="14" lengthAdjust="spacing" textLength="76" x="1289.5" y="620.9473">File System</text><rect fill="#E2E2F0" height="30.4883" rx="2.5" ry="2.5" style="stroke:#181818;stroke-width:0.5;" width="58" x="1468" y="50"/><text fill="#000000" font-family="sans-serif" font-size="14" lengthAdjust="spacing" textLength="44" x="1475" y="70.5352">parser</text><rect fill="#E2E2F0" height="30.4883" rx="2.5" ry="2.5" style="stroke:#181818;stroke-width:0.5;" width="58" x="1468" y="600.4121"/><text fill="#000000" font-family="sans-serif" font-size="14" lengthAdjust="spacing" textLength="44" x="1475" y="620.9473">parser</text><rect fill="#FFFFFF" height="427.3027" style="stroke:#181818;stroke-width:1.0;" width="10" x="455" y="156.1094"/><rect fill="#FFFFFF" height="368.6816" style="stroke:#181818;stroke-width:1.0;" width="10" x="655" y="185.4199"/><rect fill="#FFFFFF" height="29.3105" style="stroke:#181818;stroke-width:1.0;" width="10" x="807" y="214.7305"/><rect fill="#FFFFFF" height="29.3105" style="stroke:#181818;stroke-width:1.0;" width="10" x="1128" y="385.5938"/><rect fill="#FFFFFF" height="29.3105" style="stroke:#181818;stroke-width:1.0;" width="10" x="1228" y="459.1699"/><rect fill="#FFFFFF" height="29.3105" style="stroke:#181818;stroke-width:1.0;" width="10" x="1322.5" y="302.6621"/><rect fill="#FFFFFF" height="251.4395" style="stroke:#181818;stroke-width:1.0;" width="10" x="1492" y="273.3516"/><rect fill="#EEEEEE" height="3" style="stroke:#EEEEEE;stroke-width:1.0;" width="1546" x="0" y="112.1436"/><line style="stroke:#000000;stroke-width:1.0;" x1="0" x2="1546" y1="112.1436" y2="112.1436"/><line style="stroke:#000000;stroke-width:1.0;" x1="0" x2="1546" y1="115.1436" y2="115.1436"/><rect fill="#EEEEEE" height="23.3105" style="stroke:#000000;stroke-width:2.0;" width="156" x="695" y="101.4883"/><text fill="#000000" font-family="sans-serif" font-size="13" font-weight="bold" lengthAdjust="spacing" textLength="138" x="701" y="118.0566">list_functions_in_file</text><polygon fill="#181818" points="443,152.1094,453,156.1094,443,160.1094,447,156.1094" style="stroke:#181818;stroke-width:1.0;"/><line style="stroke:#181818;stroke-width:1.0;" x1="45" x2="449" y1="156.1094" y2="156.1094"/><text fill="#000000" font-family="sans-serif" font-size="13" lengthAdjust="spacing" textLength="302" x="52" y="151.3672">callTool("list_functions_in_file", { filePath: "..." })</text><polygon fill="#181818" points="643,181.4199,653,185.4199,643,189.4199,647,185.4199" style="stroke:#181818;stroke-width:1.0;"/><line style="stroke:#181818;stroke-width:1.0;" x1="465" x2="649" y1="185.4199" y2="185.4199"/><text fill="#000000" font-family="sans-serif" font-size="13" lengthAdjust="spacing" textLength="171" x="472" y="180.6777">listFunctionsInFile(filePath)</text><polygon fill="#181818" points="795,210.7305,805,214.7305,795,218.7305,799,214.7305" style="stroke:#181818;stroke-width:1.0;"/><line style="stroke:#181818;stroke-width:1.0;" x1="665" x2="801" y1="214.7305" y2="214.7305"/><text fill="#000000" font-family="sans-serif" font-size="13" lengthAdjust="spacing" textLength="123" x="672" y="209.9883">getParser(language)</text><polygon fill="#181818" points="676,240.041,666,244.041,676,248.041,672,244.041" style="stroke:#181818;stroke-width:1.0;"/><line style="stroke:#181818;stroke-width:1.0;stroke-dasharray:2.0,2.0;" x1="670" x2="811" y1="244.041" y2="244.041"/><text fill="#000000" font-family="sans-serif" font-size="13" lengthAdjust="spacing" textLength="39" x="682" y="239.2988">parser</text><polygon fill="#181818" points="1480,269.3516,1490,273.3516,1480,277.3516,1484,273.3516" style="stroke:#181818;stroke-width:1.0;"/><line style="stroke:#181818;stroke-width:1.0;" x1="665" x2="1486" y1="273.3516" y2="273.3516"/><text fill="#000000" font-family="sans-serif" font-size="13" lengthAdjust="spacing" textLength="111" x="672" y="268.6094">parseFile(filePath)</text><polygon fill="#181818" points="1343.5,298.6621,1333.5,302.6621,1343.5,306.6621,1339.5,302.6621" style="stroke:#181818;stroke-width:1.0;"/><line style="stroke:#181818;stroke-width:1.0;" x1="1337.5" x2="1491" y1="302.6621" y2="302.6621"/><text fill="#000000" font-family="sans-serif" font-size="13" lengthAdjust="spacing" textLength="104" x="1349.5" y="297.9199">readFile(filePath)</text><polygon fill="#181818" points="1480,327.9727,1490,331.9727,1480,335.9727,1484,331.9727" style="stroke:#181818;stroke-width:1.0;"/><line style="stroke:#181818;stroke-width:1.0;stroke-dasharray:2.0,2.0;" x1="1327.5" x2="1486" y1="331.9727" y2="331.9727"/><text fill="#000000" font-family="sans-serif" font-size="13" lengthAdjust="spacing" textLength="70" x="1334.5" y="327.2305">fileContent</text><path d="M1072.5,346.9727 L1134.5,346.9727 L1134.5,354.2832 L1124.5,364.2832 L1072.5,364.2832 L1072.5,346.9727 " fill="#EEEEEE" style="stroke:#000000;stroke-width:1.5;"/><rect fill="none" height="149.5078" style="stroke:#000000;stroke-width:1.5;" width="463.5" x="1072.5" y="346.9727"/><text fill="#000000" font-family="sans-serif" font-size="13" font-weight="bold" lengthAdjust="spacing" textLength="17" x="1087.5" y="360.541">alt</text><text fill="#000000" font-family="sans-serif" font-size="11" font-weight="bold" lengthAdjust="spacing" textLength="72" x="1149.5" y="359.6074">[if Swift file]</text><polygon fill="#181818" points="1149,381.5938,1139,385.5938,1149,389.5938,1145,385.5938" style="stroke:#181818;stroke-width:1.0;"/><line style="stroke:#181818;stroke-width:1.0;" x1="1143" x2="1491" y1="385.5938" y2="385.5938"/><text fill="#000000" font-family="sans-serif" font-size="13" lengthAdjust="spacing" textLength="148" x="1155" y="380.8516">structure --file filePath</text><polygon fill="#181818" points="1480,410.9043,1490,414.9043,1480,418.9043,1484,414.9043" style="stroke:#181818;stroke-width:1.0;"/><line style="stroke:#181818;stroke-width:1.0;stroke-dasharray:2.0,2.0;" x1="1133" x2="1486" y1="414.9043" y2="414.9043"/><text fill="#000000" font-family="sans-serif" font-size="13" lengthAdjust="spacing" textLength="77" x="1140" y="410.1621">JSON output</text><line style="stroke:#000000;stroke-width:1.0;stroke-dasharray:2.0,2.0;" x1="1072.5" x2="1536" y1="423.9043" y2="423.9043"/><text fill="#000000" font-family="sans-serif" font-size="11" font-weight="bold" lengthAdjust="spacing" textLength="78" x="1077.5" y="434.5391">[if Kotlin file]</text><polygon fill="#181818" points="1249,455.1699,1239,459.1699,1249,463.1699,1245,459.1699" style="stroke:#181818;stroke-width:1.0;"/><line style="stroke:#181818;stroke-width:1.0;" x1="1243" x2="1491" y1="459.1699" y2="459.1699"/><text fill="#000000" font-family="sans-serif" font-size="13" lengthAdjust="spacing" textLength="235" x="1255" y="454.4277">java -jar kotlin-parser-cli.jar filePath</text><polygon fill="#181818" points="1480,484.4805,1490,488.4805,1480,492.4805,1484,488.4805" style="stroke:#181818;stroke-width:1.0;"/><line style="stroke:#181818;stroke-width:1.0;stroke-dasharray:2.0,2.0;" x1="1233" x2="1486" y1="488.4805" y2="488.4805"/><text fill="#000000" font-family="sans-serif" font-size="13" lengthAdjust="spacing" textLength="77" x="1240" y="483.7383">JSON output</text><polygon fill="#181818" points="676,520.791,666,524.791,676,528.791,672,524.791" style="stroke:#181818;stroke-width:1.0;"/><line style="stroke:#181818;stroke-width:1.0;stroke-dasharray:2.0,2.0;" x1="670" x2="1496" y1="524.791" y2="524.791"/><text fill="#000000" font-family="sans-serif" font-size="13" lengthAdjust="spacing" textLength="81" x="682" y="520.0488">CodeChunk[]</text><polygon fill="#181818" points="476,550.1016,466,554.1016,476,558.1016,472,554.1016" style="stroke:#181818;stroke-width:1.0;"/><line style="stroke:#181818;stroke-width:1.0;stroke-dasharray:2.0,2.0;" x1="470" x2="659" y1="554.1016" y2="554.1016"/><text fill="#000000" font-family="sans-serif" font-size="13" lengthAdjust="spacing" textLength="83" x="482" y="549.3594">functionsList</text><polygon fill="#181818" points="56,579.4121,46,583.4121,56,587.4121,52,583.4121" style="stroke:#181818;stroke-width:1.0;"/><line style="stroke:#181818;stroke-width:1.0;stroke-dasharray:2.0,2.0;" x1="50" x2="459" y1="583.4121" y2="583.4121"/><text fill="#000000" font-family="sans-serif" font-size="13" lengthAdjust="spacing" textLength="386" x="62" y="578.6699">{ content: [{ type: "text", text: JSON.stringify(functionsList) }] }</text><!--SRC=[ZP91Qzmm48Nl_XM3JnkedRjX2sR1a7hJ6jHR28lmZZTA5Dd8usrDsF_UaMGdThk1dYHxlfatF3rPKsiXtk_lR_CJ6ef1zi1VKISjgLfrqX34zxiA1DepMbyFrpMI6wd7NlMkfchqN2xMJ2LjZxQGJdFqH5Mi2V5BDHIme5IjwsLBMfa5KFu5Y7QmDPQA24sOK5wR0BlzNUZdoneeb4OGOq_uweb2HD5s2rhrT6W6KvDgJNzGvj0uSBkDs2r8lawcP51BhN-shTx4rrlYB_06xb99UieWJjCqXijDnAweioIStGs7cvoBpCiNywWxuvRSp4CMlUnuBbnFLMHmmidAZPRcDCWJBaXslYeWcSPtdekEkAo7IQ4q8P_fJltXS5q53xKeZvyriAk5yFBpV0VjMiFlHiiz69IQG3NWi-6n2E13IPGPz6I7cWQBFD4_owp8v8Ul9N-9SYNwJVpu3kr0tK1SNCWoZBf7fpibvXzX5vqCdkLPGl8iBRnuBWb0KckLkh_NDl6X0t_ytpQ-0StntU3fsNRj4NTFWtbvU5nwDhr67WoUW_cUn3rdQObpQEQmCSvnpZYXTNYA31xUWCOEEQc4ludJwuwmQyg-AtDIpRXP3R-1ooDSbX9Jfly0]--></g></svg>