<svg xmlns="http://www.w3.org/2000/svg" xmlns:xlink="http://www.w3.org/1999/xlink" contentStyleType="text/css" height="1166px" preserveAspectRatio="none" style="width:1605px;height:1166px;background:#FFFFFF;" version="1.1" viewBox="0 0 1605 1166" width="1605px" zoomAndPan="magnify"><defs/><g><rect fill="#FFFFFF" height="911.2715" style="stroke:#181818;stroke-width:1.0;" width="10" x="458" y="156.1094"/><rect fill="#FFFFFF" height="852.6504" style="stroke:#181818;stroke-width:1.0;" width="10" x="656" y="185.4199"/><rect fill="#FFFFFF" height="29.3105" style="stroke:#181818;stroke-width:1.0;" width="10" x="866" y="473.5254"/><rect fill="#FFFFFF" height="146.5527" style="stroke:#181818;stroke-width:1.0;" width="10" x="974.5" y="556.457"/><rect fill="#FFFFFF" height="146.5527" style="stroke:#181818;stroke-width:1.0;" width="10" x="1078" y="747.2754"/><rect fill="#FFFFFF" height="29.3105" style="stroke:#181818;stroke-width:1.0;" width="10" x="1187" y="585.7676"/><rect fill="#FFFFFF" height="29.3105" style="stroke:#181818;stroke-width:1.0;" width="10" x="1342" y="776.5859"/><rect fill="#FFFFFF" height="29.3105" style="stroke:#181818;stroke-width:1.0;" width="10" x="1436.5" y="214.7305"/><rect fill="#FFFFFF" height="29.3105" style="stroke:#181818;stroke-width:1.0;" width="10" x="1436.5" y="273.3516"/><rect fill="#FFFFFF" height="29.3105" style="stroke:#181818;stroke-width:1.0;" width="10" x="1436.5" y="644.3887"/><rect fill="#FFFFFF" height="29.3105" style="stroke:#181818;stroke-width:1.0;" width="10" x="1436.5" y="835.207"/><rect fill="#FFFFFF" height="29.3105" style="stroke:#181818;stroke-width:1.0;" width="10" x="1436.5" y="930.1387"/><rect fill="#FFFFFF" height="29.3105" style="stroke:#181818;stroke-width:1.0;" width="10" x="1540" y="331.9727"/><rect fill="#FFFFFF" height="29.3105" style="stroke:#181818;stroke-width:1.0;" width="10" x="1540" y="390.5938"/><rect fill="none" height="574.8555" style="stroke:#000000;stroke-width:1.5;" width="924.5" x="582" y="434.9043"/><rect fill="none" height="383.9922" style="stroke:#000000;stroke-width:1.5;" width="904.5" x="592" y="517.8359"/><line style="stroke:#181818;stroke-width:0.5;stroke-dasharray:5.0,5.0;" x1="45" x2="45" y1="81.4883" y2="1085.3809"/><line style="stroke:#181818;stroke-width:0.5;stroke-dasharray:5.0,5.0;" x1="462.5" x2="462.5" y1="81.4883" y2="1085.3809"/><line style="stroke:#181818;stroke-width:0.5;stroke-dasharray:5.0,5.0;" x1="661" x2="661" y1="81.4883" y2="1085.3809"/><line style="stroke:#181818;stroke-width:0.5;stroke-dasharray:5.0,5.0;" x1="870.5" x2="870.5" y1="81.4883" y2="1085.3809"/><line style="stroke:#181818;stroke-width:0.5;stroke-dasharray:5.0,5.0;" x1="979.5" x2="979.5" y1="81.4883" y2="1085.3809"/><line style="stroke:#181818;stroke-width:0.5;stroke-dasharray:5.0,5.0;" x1="1082.5" x2="1082.5" y1="81.4883" y2="1085.3809"/><line style="stroke:#181818;stroke-width:0.5;stroke-dasharray:5.0,5.0;" x1="1191.5" x2="1191.5" y1="81.4883" y2="1085.3809"/><line style="stroke:#181818;stroke-width:0.5;stroke-dasharray:5.0,5.0;" x1="1346.5" x2="1346.5" y1="81.4883" y2="1085.3809"/><line style="stroke:#181818;stroke-width:0.5;stroke-dasharray:5.0,5.0;" x1="1441.5" x2="1441.5" y1="81.4883" y2="1085.3809"/><line style="stroke:#181818;stroke-width:0.5;stroke-dasharray:5.0,5.0;" x1="1544.5" x2="1544.5" y1="81.4883" y2="1085.3809"/><text fill="#000000" font-family="sans-serif" font-size="14" lengthAdjust="spacing" textLength="74" x="5" y="78.5352">LLM/Agent</text><ellipse cx="45" cy="13.5" fill="#E2E2F0" rx="8" ry="8" style="stroke:#181818;stroke-width:0.5;"/><path d="M45,21.5 L45,48.5 M32,29.5 L58,29.5 M45,48.5 L32,63.5 M45,48.5 L58,63.5 " fill="none" style="stroke:#181818;stroke-width:0.5;"/><text fill="#000000" font-family="sans-serif" font-size="14" lengthAdjust="spacing" textLength="74" x="5" y="1097.916">LLM/Agent</text><ellipse cx="45" cy="1109.3691" fill="#E2E2F0" rx="8" ry="8" style="stroke:#181818;stroke-width:0.5;"/><path d="M45,1117.3691 L45,1144.3691 M32,1125.3691 L58,1125.3691 M45,1144.3691 L32,1159.3691 M45,1144.3691 L58,1159.3691 " fill="none" style="stroke:#181818;stroke-width:0.5;"/><rect fill="#E2E2F0" height="30.4883" rx="2.5" ry="2.5" style="stroke:#181818;stroke-width:0.5;" width="91" x="417.5" y="50"/><text fill="#000000" font-family="sans-serif" font-size="14" lengthAdjust="spacing" textLength="77" x="424.5" y="70.5352">MCP Server</text><rect fill="#E2E2F0" height="30.4883" rx="2.5" ry="2.5" style="stroke:#181818;stroke-width:0.5;" width="91" x="417.5" y="1084.3809"/><text fill="#000000" font-family="sans-serif" font-size="14" lengthAdjust="spacing" textLength="77" x="424.5" y="1104.916">MCP Server</text><rect fill="#E2E2F0" height="30.4883" rx="2.5" ry="2.5" style="stroke:#181818;stroke-width:0.5;" width="118" x="602" y="50"/><text fill="#000000" font-family="sans-serif" font-size="14" lengthAdjust="spacing" textLength="104" x="609" y="70.5352">AnalysisService</text><rect fill="#E2E2F0" height="30.4883" rx="2.5" ry="2.5" style="stroke:#181818;stroke-width:0.5;" width="118" x="602" y="1084.3809"/><text fill="#000000" font-family="sans-serif" font-size="14" lengthAdjust="spacing" textLength="104" x="609" y="1104.916">AnalysisService</text><rect fill="#E2E2F0" height="30.4883" rx="2.5" ry="2.5" style="stroke:#181818;stroke-width:0.5;" width="107" x="817.5" y="50"/><text fill="#000000" font-family="sans-serif" font-size="14" lengthAdjust="spacing" textLength="93" x="824.5" y="70.5352">ParserFactory</text><rect fill="#E2E2F0" height="30.4883" rx="2.5" ry="2.5" style="stroke:#181818;stroke-width:0.5;" width="107" x="817.5" y="1084.3809"/><text fill="#000000" font-family="sans-serif" font-size="14" lengthAdjust="spacing" textLength="93" x="824.5" y="1104.916">ParserFactory</text><rect fill="#E2E2F0" height="30.4883" rx="2.5" ry="2.5" style="stroke:#181818;stroke-width:0.5;" width="90" x="934.5" y="50"/><text fill="#000000" font-family="sans-serif" font-size="14" lengthAdjust="spacing" textLength="76" x="941.5" y="70.5352">SwiftParser</text><rect fill="#E2E2F0" height="30.4883" rx="2.5" ry="2.5" style="stroke:#181818;stroke-width:0.5;" width="90" x="934.5" y="1084.3809"/><text fill="#000000" font-family="sans-serif" font-size="14" lengthAdjust="spacing" textLength="76" x="941.5" y="1104.916">SwiftParser</text><rect fill="#E2E2F0" height="30.4883" rx="2.5" ry="2.5" style="stroke:#181818;stroke-width:0.5;" width="97" x="1034.5" y="50"/><text fill="#000000" font-family="sans-serif" font-size="14" lengthAdjust="spacing" textLength="83" x="1041.5" y="70.5352">KotlinParser</text><rect fill="#E2E2F0" height="30.4883" rx="2.5" ry="2.5" style="stroke:#181818;stroke-width:0.5;" width="97" x="1034.5" y="1084.3809"/><text fill="#000000" font-family="sans-serif" font-size="14" lengthAdjust="spacing" textLength="83" x="1041.5" y="1104.916">KotlinParser</text><rect fill="#E2E2F0" height="30.4883" rx="2.5" ry="2.5" style="stroke:#181818;stroke-width:0.5;" width="101" x="1141.5" y="50"/><text fill="#000000" font-family="sans-serif" font-size="14" lengthAdjust="spacing" textLength="87" x="1148.5" y="70.5352">SourceKitten</text><rect fill="#E2E2F0" height="30.4883" rx="2.5" ry="2.5" style="stroke:#181818;stroke-width:0.5;" width="101" x="1141.5" y="1084.3809"/><text fill="#000000" font-family="sans-serif" font-size="14" lengthAdjust="spacing" textLength="87" x="1148.5" y="1104.916">SourceKitten</text><rect fill="#E2E2F0" height="30.4883" rx="2.5" ry="2.5" style="stroke:#181818;stroke-width:0.5;" width="79" x="1307.5" y="50"/><text fill="#000000" font-family="sans-serif" font-size="14" lengthAdjust="spacing" textLength="65" x="1314.5" y="70.5352">Kotlin CLI</text><rect fill="#E2E2F0" height="30.4883" rx="2.5" ry="2.5" style="stroke:#181818;stroke-width:0.5;" width="79" x="1307.5" y="1084.3809"/><text fill="#000000" font-family="sans-serif" font-size="14" lengthAdjust="spacing" textLength="65" x="1314.5" y="1104.916">Kotlin CLI</text><rect fill="#E2E2F0" height="30.4883" rx="2.5" ry="2.5" style="stroke:#181818;stroke-width:0.5;" width="90" x="1396.5" y="50"/><text fill="#000000" font-family="sans-serif" font-size="14" lengthAdjust="spacing" textLength="76" x="1403.5" y="70.5352">File System</text><rect fill="#E2E2F0" height="30.4883" rx="2.5" ry="2.5" style="stroke:#181818;stroke-width:0.5;" width="90" x="1396.5" y="1084.3809"/><text fill="#000000" font-family="sans-serif" font-size="14" lengthAdjust="spacing" textLength="76" x="1403.5" y="1104.916">File System</text><rect fill="#E2E2F0" height="30.4883" rx="2.5" ry="2.5" style="stroke:#181818;stroke-width:0.5;" width="97" x="1496.5" y="50"/><text fill="#000000" font-family="sans-serif" font-size="14" lengthAdjust="spacing" textLength="83" x="1503.5" y="70.5352">Glob Library</text><rect fill="#E2E2F0" height="30.4883" rx="2.5" ry="2.5" style="stroke:#181818;stroke-width:0.5;" width="97" x="1496.5" y="1084.3809"/><text fill="#000000" font-family="sans-serif" font-size="14" lengthAdjust="spacing" textLength="83" x="1503.5" y="1104.916">Glob Library</text><rect fill="#FFFFFF" height="911.2715" style="stroke:#181818;stroke-width:1.0;" width="10" x="458" y="156.1094"/><rect fill="#FFFFFF" height="852.6504" style="stroke:#181818;stroke-width:1.0;" width="10" x="656" y="185.4199"/><rect fill="#FFFFFF" height="29.3105" style="stroke:#181818;stroke-width:1.0;" width="10" x="866" y="473.5254"/><rect fill="#FFFFFF" height="146.5527" style="stroke:#181818;stroke-width:1.0;" width="10" x="974.5" y="556.457"/><rect fill="#FFFFFF" height="146.5527" style="stroke:#181818;stroke-width:1.0;" width="10" x="1078" y="747.2754"/><rect fill="#FFFFFF" height="29.3105" style="stroke:#181818;stroke-width:1.0;" width="10" x="1187" y="585.7676"/><rect fill="#FFFFFF" height="29.3105" style="stroke:#181818;stroke-width:1.0;" width="10" x="1342" y="776.5859"/><rect fill="#FFFFFF" height="29.3105" style="stroke:#181818;stroke-width:1.0;" width="10" x="1436.5" y="214.7305"/><rect fill="#FFFFFF" height="29.3105" style="stroke:#181818;stroke-width:1.0;" width="10" x="1436.5" y="273.3516"/><rect fill="#FFFFFF" height="29.3105" style="stroke:#181818;stroke-width:1.0;" width="10" x="1436.5" y="644.3887"/><rect fill="#FFFFFF" height="29.3105" style="stroke:#181818;stroke-width:1.0;" width="10" x="1436.5" y="835.207"/><rect fill="#FFFFFF" height="29.3105" style="stroke:#181818;stroke-width:1.0;" width="10" x="1436.5" y="930.1387"/><rect fill="#FFFFFF" height="29.3105" style="stroke:#181818;stroke-width:1.0;" width="10" x="1540" y="331.9727"/><rect fill="#FFFFFF" height="29.3105" style="stroke:#181818;stroke-width:1.0;" width="10" x="1540" y="390.5938"/><rect fill="#EEEEEE" height="3" style="stroke:#EEEEEE;stroke-width:1.0;" width="1598.5" x="0" y="112.1436"/><line style="stroke:#000000;stroke-width:1.0;" x1="0" x2="1598.5" y1="112.1436" y2="112.1436"/><line style="stroke:#000000;stroke-width:1.0;" x1="0" x2="1598.5" y1="115.1436" y2="115.1436"/><rect fill="#EEEEEE" height="23.3105" style="stroke:#000000;stroke-width:2.0;" width="125" x="736.75" y="101.4883"/><text fill="#000000" font-family="sans-serif" font-size="13" font-weight="bold" lengthAdjust="spacing" textLength="107" x="742.75" y="118.0566">analyze_project</text><polygon fill="#181818" points="446,152.1094,456,156.1094,446,160.1094,450,156.1094" style="stroke:#181818;stroke-width:1.0;"/><line style="stroke:#181818;stroke-width:1.0;" x1="45" x2="452" y1="156.1094" y2="156.1094"/><text fill="#000000" font-family="sans-serif" font-size="13" lengthAdjust="spacing" textLength="291" x="52" y="151.3672">callTool("analyze_project", { projectPath: "..." })</text><polygon fill="#181818" points="644,181.4199,654,185.4199,644,189.4199,648,185.4199" style="stroke:#181818;stroke-width:1.0;"/><line style="stroke:#181818;stroke-width:1.0;" x1="468" x2="650" y1="185.4199" y2="185.4199"/><text fill="#000000" font-family="sans-serif" font-size="13" lengthAdjust="spacing" textLength="169" x="475" y="180.6777">analyzeProject(projectPath)</text><polygon fill="#181818" points="1424.5,210.7305,1434.5,214.7305,1424.5,218.7305,1428.5,214.7305" style="stroke:#181818;stroke-width:1.0;"/><line style="stroke:#181818;stroke-width:1.0;" x1="666" x2="1430.5" y1="214.7305" y2="214.7305"/><text fill="#000000" font-family="sans-serif" font-size="13" lengthAdjust="spacing" textLength="261" x="673" y="209.9883">rm(chunksDir, recursive: true, force: true)</text><polygon fill="#181818" points="677,240.041,667,244.041,677,248.041,673,244.041" style="stroke:#181818;stroke-width:1.0;"/><line style="stroke:#181818;stroke-width:1.0;stroke-dasharray:2.0,2.0;" x1="671" x2="1440.5" y1="244.041" y2="244.041"/><text fill="#000000" font-family="sans-serif" font-size="13" lengthAdjust="spacing" textLength="50" x="683" y="239.2988">success</text><polygon fill="#181818" points="1424.5,269.3516,1434.5,273.3516,1424.5,277.3516,1428.5,273.3516" style="stroke:#181818;stroke-width:1.0;"/><line style="stroke:#181818;stroke-width:1.0;" x1="666" x2="1430.5" y1="273.3516" y2="273.3516"/><text fill="#000000" font-family="sans-serif" font-size="13" lengthAdjust="spacing" textLength="208" x="673" y="268.6094">mkdir(chunksDir, recursive: true)</text><polygon fill="#181818" points="677,298.6621,667,302.6621,677,306.6621,673,302.6621" style="stroke:#181818;stroke-width:1.0;"/><line style="stroke:#181818;stroke-width:1.0;stroke-dasharray:2.0,2.0;" x1="671" x2="1440.5" y1="302.6621" y2="302.6621"/><text fill="#000000" font-family="sans-serif" font-size="13" lengthAdjust="spacing" textLength="50" x="683" y="297.9199">success</text><polygon fill="#181818" points="1528,327.9727,1538,331.9727,1528,335.9727,1532,331.9727" style="stroke:#181818;stroke-width:1.0;"/><line style="stroke:#181818;stroke-width:1.0;" x1="666" x2="1534" y1="331.9727" y2="331.9727"/><text fill="#000000" font-family="sans-serif" font-size="13" lengthAdjust="spacing" textLength="329" x="673" y="327.2305">glob("**/*.swift", { cwd: projectPath, absolute: true })</text><polygon fill="#181818" points="677,357.2832,667,361.2832,677,365.2832,673,361.2832" style="stroke:#181818;stroke-width:1.0;"/><line style="stroke:#181818;stroke-width:1.0;stroke-dasharray:2.0,2.0;" x1="671" x2="1544" y1="361.2832" y2="361.2832"/><text fill="#000000" font-family="sans-serif" font-size="13" lengthAdjust="spacing" textLength="60" x="683" y="356.541">swiftFiles</text><polygon fill="#181818" points="1528,386.5938,1538,390.5938,1528,394.5938,1532,390.5938" style="stroke:#181818;stroke-width:1.0;"/><line style="stroke:#181818;stroke-width:1.0;" x1="666" x2="1534" y1="390.5938" y2="390.5938"/><text fill="#000000" font-family="sans-serif" font-size="13" lengthAdjust="spacing" textLength="311" x="673" y="385.8516">glob("**/*.kt", { cwd: projectPath, absolute: true })</text><polygon fill="#181818" points="677,415.9043,667,419.9043,677,423.9043,673,419.9043" style="stroke:#181818;stroke-width:1.0;"/><line style="stroke:#181818;stroke-width:1.0;stroke-dasharray:2.0,2.0;" x1="671" x2="1544" y1="419.9043" y2="419.9043"/><text fill="#000000" font-family="sans-serif" font-size="13" lengthAdjust="spacing" textLength="66" x="683" y="415.1621">kotlinFiles</text><path d="M582,434.9043 L656,434.9043 L656,442.2148 L646,452.2148 L582,452.2148 L582,434.9043 " fill="#EEEEEE" style="stroke:#000000;stroke-width:1.5;"/><rect fill="none" height="574.8555" style="stroke:#000000;stroke-width:1.5;" width="924.5" x="582" y="434.9043"/><text fill="#000000" font-family="sans-serif" font-size="13" font-weight="bold" lengthAdjust="spacing" textLength="29" x="597" y="448.4727">loop</text><text fill="#000000" font-family="sans-serif" font-size="11" font-weight="bold" lengthAdjust="spacing" textLength="136" x="671" y="447.5391">[for each file in allFiles]</text><polygon fill="#181818" points="854,469.5254,864,473.5254,854,477.5254,858,473.5254" style="stroke:#181818;stroke-width:1.0;"/><line style="stroke:#181818;stroke-width:1.0;" x1="666" x2="860" y1="473.5254" y2="473.5254"/><text fill="#000000" font-family="sans-serif" font-size="13" lengthAdjust="spacing" textLength="123" x="673" y="468.7832">getParser(language)</text><polygon fill="#181818" points="677,498.8359,667,502.8359,677,506.8359,673,502.8359" style="stroke:#181818;stroke-width:1.0;"/><line style="stroke:#181818;stroke-width:1.0;stroke-dasharray:2.0,2.0;" x1="671" x2="870" y1="502.8359" y2="502.8359"/><text fill="#000000" font-family="sans-serif" font-size="13" lengthAdjust="spacing" textLength="101" x="683" y="498.0938">parser (SP or KP)</text><path d="M592,517.8359 L654,517.8359 L654,525.1465 L644,535.1465 L592,535.1465 L592,517.8359 " fill="#EEEEEE" style="stroke:#000000;stroke-width:1.5;"/><rect fill="none" height="383.9922" style="stroke:#000000;stroke-width:1.5;" width="904.5" x="592" y="517.8359"/><text fill="#000000" font-family="sans-serif" font-size="13" font-weight="bold" lengthAdjust="spacing" textLength="17" x="607" y="531.4043">alt</text><text fill="#000000" font-family="sans-serif" font-size="11" font-weight="bold" lengthAdjust="spacing" textLength="72" x="669" y="530.4707">[if Swift file]</text><polygon fill="#181818" points="962.5,552.457,972.5,556.457,962.5,560.457,966.5,556.457" style="stroke:#181818;stroke-width:1.0;"/><line style="stroke:#181818;stroke-width:1.0;" x1="666" x2="968.5" y1="556.457" y2="556.457"/><text fill="#000000" font-family="sans-serif" font-size="13" lengthAdjust="spacing" textLength="111" x="673" y="551.7148">parseFile(filePath)</text><polygon fill="#181818" points="1175,581.7676,1185,585.7676,1175,589.7676,1179,585.7676" style="stroke:#181818;stroke-width:1.0;"/><line style="stroke:#181818;stroke-width:1.0;" x1="984.5" x2="1181" y1="585.7676" y2="585.7676"/><text fill="#000000" font-family="sans-serif" font-size="13" lengthAdjust="spacing" textLength="148" x="991.5" y="581.0254">structure --file filePath</text><polygon fill="#181818" points="995.5,611.0781,985.5,615.0781,995.5,619.0781,991.5,615.0781" style="stroke:#181818;stroke-width:1.0;"/><line style="stroke:#181818;stroke-width:1.0;stroke-dasharray:2.0,2.0;" x1="989.5" x2="1191" y1="615.0781" y2="615.0781"/><text fill="#000000" font-family="sans-serif" font-size="13" lengthAdjust="spacing" textLength="77" x="1001.5" y="610.3359">JSON output</text><polygon fill="#181818" points="1424.5,640.3887,1434.5,644.3887,1424.5,648.3887,1428.5,644.3887" style="stroke:#181818;stroke-width:1.0;"/><line style="stroke:#181818;stroke-width:1.0;" x1="984.5" x2="1430.5" y1="644.3887" y2="644.3887"/><text fill="#000000" font-family="sans-serif" font-size="13" lengthAdjust="spacing" textLength="104" x="991.5" y="639.6465">readFile(filePath)</text><polygon fill="#181818" points="995.5,669.6992,985.5,673.6992,995.5,677.6992,991.5,673.6992" style="stroke:#181818;stroke-width:1.0;"/><line style="stroke:#181818;stroke-width:1.0;stroke-dasharray:2.0,2.0;" x1="989.5" x2="1440.5" y1="673.6992" y2="673.6992"/><text fill="#000000" font-family="sans-serif" font-size="13" lengthAdjust="spacing" textLength="70" x="1001.5" y="668.957">fileContent</text><polygon fill="#181818" points="677,699.0098,667,703.0098,677,707.0098,673,703.0098" style="stroke:#181818;stroke-width:1.0;"/><line style="stroke:#181818;stroke-width:1.0;stroke-dasharray:2.0,2.0;" x1="671" x2="978.5" y1="703.0098" y2="703.0098"/><text fill="#000000" font-family="sans-serif" font-size="13" lengthAdjust="spacing" textLength="81" x="683" y="698.2676">CodeChunk[]</text><line style="stroke:#000000;stroke-width:1.0;stroke-dasharray:2.0,2.0;" x1="592" x2="1496.5" y1="712.0098" y2="712.0098"/><text fill="#000000" font-family="sans-serif" font-size="11" font-weight="bold" lengthAdjust="spacing" textLength="78" x="597" y="722.6445">[if Kotlin file]</text><polygon fill="#181818" points="1066,743.2754,1076,747.2754,1066,751.2754,1070,747.2754" style="stroke:#181818;stroke-width:1.0;"/><line style="stroke:#181818;stroke-width:1.0;" x1="666" x2="1072" y1="747.2754" y2="747.2754"/><text fill="#000000" font-family="sans-serif" font-size="13" lengthAdjust="spacing" textLength="111" x="673" y="742.5332">parseFile(filePath)</text><polygon fill="#181818" points="1330,772.5859,1340,776.5859,1330,780.5859,1334,776.5859" style="stroke:#181818;stroke-width:1.0;"/><line style="stroke:#181818;stroke-width:1.0;" x1="1088" x2="1336" y1="776.5859" y2="776.5859"/><text fill="#000000" font-family="sans-serif" font-size="13" lengthAdjust="spacing" textLength="235" x="1095" y="771.8438">java -jar kotlin-parser-cli.jar filePath</text><polygon fill="#181818" points="1099,801.8965,1089,805.8965,1099,809.8965,1095,805.8965" style="stroke:#181818;stroke-width:1.0;"/><line style="stroke:#181818;stroke-width:1.0;stroke-dasharray:2.0,2.0;" x1="1093" x2="1346" y1="805.8965" y2="805.8965"/><text fill="#000000" font-family="sans-serif" font-size="13" lengthAdjust="spacing" textLength="77" x="1105" y="801.1543">JSON output</text><polygon fill="#181818" points="1424.5,831.207,1434.5,835.207,1424.5,839.207,1428.5,835.207" style="stroke:#181818;stroke-width:1.0;"/><line style="stroke:#181818;stroke-width:1.0;" x1="1088" x2="1430.5" y1="835.207" y2="835.207"/><text fill="#000000" font-family="sans-serif" font-size="13" lengthAdjust="spacing" textLength="104" x="1095" y="830.4648">readFile(filePath)</text><polygon fill="#181818" points="1099,860.5176,1089,864.5176,1099,868.5176,1095,864.5176" style="stroke:#181818;stroke-width:1.0;"/><line style="stroke:#181818;stroke-width:1.0;stroke-dasharray:2.0,2.0;" x1="1093" x2="1440.5" y1="864.5176" y2="864.5176"/><text fill="#000000" font-family="sans-serif" font-size="13" lengthAdjust="spacing" textLength="70" x="1105" y="859.7754">fileContent</text><polygon fill="#181818" points="677,889.8281,667,893.8281,677,897.8281,673,893.8281" style="stroke:#181818;stroke-width:1.0;"/><line style="stroke:#181818;stroke-width:1.0;stroke-dasharray:2.0,2.0;" x1="671" x2="1082" y1="893.8281" y2="893.8281"/><text fill="#000000" font-family="sans-serif" font-size="13" lengthAdjust="spacing" textLength="81" x="683" y="889.0859">CodeChunk[]</text><polygon fill="#181818" points="1424.5,926.1387,1434.5,930.1387,1424.5,934.1387,1428.5,930.1387" style="stroke:#181818;stroke-width:1.0;"/><line style="stroke:#181818;stroke-width:1.0;" x1="666" x2="1430.5" y1="930.1387" y2="930.1387"/><text fill="#000000" font-family="sans-serif" font-size="13" lengthAdjust="spacing" textLength="150" x="673" y="925.3965">saveChunk(CodeChunk)</text><polygon fill="#181818" points="677,955.4492,667,959.4492,677,963.4492,673,959.4492" style="stroke:#181818;stroke-width:1.0;"/><line style="stroke:#181818;stroke-width:1.0;stroke-dasharray:2.0,2.0;" x1="671" x2="1440.5" y1="959.4492" y2="959.4492"/><text fill="#000000" font-family="sans-serif" font-size="13" lengthAdjust="spacing" textLength="36" x="683" y="954.707">saved</text><line style="stroke:#181818;stroke-width:1.0;" x1="666" x2="708" y1="988.7598" y2="988.7598"/><line style="stroke:#181818;stroke-width:1.0;" x1="708" x2="708" y1="988.7598" y2="1001.7598"/><line style="stroke:#181818;stroke-width:1.0;" x1="667" x2="708" y1="1001.7598" y2="1001.7598"/><polygon fill="#181818" points="677,997.7598,667,1001.7598,677,1005.7598,673,1001.7598" style="stroke:#181818;stroke-width:1.0;"/><text fill="#000000" font-family="sans-serif" font-size="13" lengthAdjust="spacing" textLength="176" x="673" y="984.0176">add to parsedProjects cache</text><polygon fill="#181818" points="479,1034.0703,469,1038.0703,479,1042.0703,475,1038.0703" style="stroke:#181818;stroke-width:1.0;"/><line style="stroke:#181818;stroke-width:1.0;stroke-dasharray:2.0,2.0;" x1="473" x2="660" y1="1038.0703" y2="1038.0703"/><text fill="#000000" font-family="sans-serif" font-size="13" lengthAdjust="spacing" textLength="121" x="485" y="1033.3281">analysis completed</text><polygon fill="#181818" points="56,1063.3809,46,1067.3809,56,1071.3809,52,1067.3809" style="stroke:#181818;stroke-width:1.0;"/><line style="stroke:#181818;stroke-width:1.0;stroke-dasharray:2.0,2.0;" x1="50" x2="462" y1="1067.3809" y2="1067.3809"/><text fill="#000000" font-family="sans-serif" font-size="13" lengthAdjust="spacing" textLength="389" x="62" y="1062.6387">{ content: [{ type: "text", text: "Project analysis completed." }] }</text><!--SRC=[fLNHRjem57tFLrpbAQk0laTY4c82RKctIDbRDKskOy0bn97jqB6g_xvxRGC9HLNLlPGuFlUSw-ERKyQjqX3d-TtjR2qQ6mCpWAkePTfABblMM8ZlvWMKGk-5Tll-SGYPDQm-66beJtBXSBDoY2cODa8l66aU7A9O317barnP3_DAnN0_KxQMJG-GNG1ArMakCccjQ3n3Teq1vlbNNuyFGy12rWBAWx5Yvn2BYqCiQ_K0kNpGB9nXcKVHT0gC3FWhVhTQFGfkOJgDq4SOVmvsfS1PNVzKgaxY2smyWcS8pmMpcnJYoMGImykd2BsIUsR5qNF_GwopCZrg5huqwL7qAl4MPYLLBB12xnA-wPgj-IBr2BJWdJPoBrAmkXCZM2bqpozw36Z10Xc2gEau5yP4bUW3pXAxRINr6oeV8bxcAQpH-II-kRczcHYQ4sSRVwhIldSZO0z6rPqDQWCJyQgM-LcFIEYw1vA8kIgv_M-zhHkzQuArKYrv3_Xs0okQG9nH71SF1l0T5GliI8Jl8wbPi-xO6lq4E97X1mNuvwJPEYmaPG58dnK4xcaxEAijo1MuRy-9uxkZP5a43keaeKq_NOGupsRXrgX15HawYqvmssc1VRZJ70ilwZ9VbxbsIUfR-UCxgCwsdNLRlLQFuE8qoe9LRtM5iqFhC634Ji2vQZ0QNh47CB47v-Qg4dCQuljVhrgXyuhQ2B8j1Cg5RzbxVCkyRvax4YLH2ezips3yo7IObh6_m36lvOJUNZVIfPYZmWTtWknjCyy57xGpUvUTsRliT3Q8fZhDERLZsDxZarFbOD2TGZyy45z5hvlmZ2uigmgiyhTIXSWq6Cfy8o9IduL12MdDmZyqu6hNri8YUuyRG_KOnLY3GPzIDdWpKhX_1djeCH5YA_vGRj0FheBg5MvA-r_mqfS8YVyF]--></g></svg>